<?xml version="1.0" encoding="utf-8"?>
<svg xmlns="http://www.w3.org/2000/svg" xmlns:xlink="http://www.w3.org/1999/xlink" width="1500" height="500" viewBox="0 0 6000 2000">
<defs>
  <clipPath id="clip880">
    <rect x="0" y="0" width="6000" height="2000"/>
  </clipPath>
</defs>
<path clip-path="url(#clip880)" d="M0 2000 L6000 2000 L6000 0 L0 0  Z" fill="#ffffff" fill-rule="evenodd" fill-opacity="1"/>
<defs>
  <clipPath id="clip881">
    <rect x="1200" y="0" width="4201" height="2000"/>
  </clipPath>
</defs>
<path clip-path="url(#clip880)" d="M431.431 1650.27 L5952.76 1650.27 L5952.76 47.2441 L431.431 47.2441  Z" fill="#ffffff" fill-rule="evenodd" fill-opacity="1"/>
<defs>
  <clipPath id="clip882">
    <rect x="431" y="47" width="5522" height="1604"/>
  </clipPath>
</defs>
<polyline clip-path="url(#clip882)" style="stroke:#000000; stroke-linecap:round; stroke-linejoin:round; stroke-width:2; stroke-opacity:0.1; fill:none" points="587.695,1650.27 587.695,47.2441 "/>
<polyline clip-path="url(#clip882)" style="stroke:#000000; stroke-linecap:round; stroke-linejoin:round; stroke-width:2; stroke-opacity:0.1; fill:none" points="2323.96,1650.27 2323.96,47.2441 "/>
<polyline clip-path="url(#clip882)" style="stroke:#000000; stroke-linecap:round; stroke-linejoin:round; stroke-width:2; stroke-opacity:0.1; fill:none" points="4060.23,1650.27 4060.23,47.2441 "/>
<polyline clip-path="url(#clip882)" style="stroke:#000000; stroke-linecap:round; stroke-linejoin:round; stroke-width:2; stroke-opacity:0.1; fill:none" points="5796.49,1650.27 5796.49,47.2441 "/>
<polyline clip-path="url(#clip880)" style="stroke:#000000; stroke-linecap:round; stroke-linejoin:round; stroke-width:4; stroke-opacity:1; fill:none" points="431.431,1650.27 5952.76,1650.27 "/>
<polyline clip-path="url(#clip880)" style="stroke:#000000; stroke-linecap:round; stroke-linejoin:round; stroke-width:4; stroke-opacity:1; fill:none" points="587.695,1650.27 587.695,1631.37 "/>
<polyline clip-path="url(#clip880)" style="stroke:#000000; stroke-linecap:round; stroke-linejoin:round; stroke-width:4; stroke-opacity:1; fill:none" points="2323.96,1650.27 2323.96,1631.37 "/>
<polyline clip-path="url(#clip880)" style="stroke:#000000; stroke-linecap:round; stroke-linejoin:round; stroke-width:4; stroke-opacity:1; fill:none" points="4060.23,1650.27 4060.23,1631.37 "/>
<polyline clip-path="url(#clip880)" style="stroke:#000000; stroke-linecap:round; stroke-linejoin:round; stroke-width:4; stroke-opacity:1; fill:none" points="5796.49,1650.27 5796.49,1631.37 "/>
<path clip-path="url(#clip880)" d="M562.341 1757.12 Q562.341 1743.33 565.152 1734.95 Q568.016 1726.52 573.585 1721.95 Q579.208 1717.39 587.695 1717.39 Q593.954 1717.39 598.674 1719.94 Q603.395 1722.43 606.472 1727.21 Q609.548 1731.93 611.299 1738.77 Q613.049 1745.56 613.049 1757.12 Q613.049 1770.81 610.238 1779.24 Q607.426 1787.62 601.804 1792.24 Q596.235 1796.8 587.695 1796.8 Q576.45 1796.8 570.032 1788.74 Q562.341 1779.03 562.341 1757.12 M572.153 1757.12 Q572.153 1776.27 576.609 1782.64 Q581.117 1788.95 587.695 1788.95 Q594.272 1788.95 598.728 1782.58 Q603.236 1776.22 603.236 1757.12 Q603.236 1737.92 598.728 1731.61 Q594.272 1725.3 587.589 1725.3 Q581.011 1725.3 577.086 1730.87 Q572.153 1737.97 572.153 1757.12 Z" fill="#000000" fill-rule="nonzero" fill-opacity="1" /><path clip-path="url(#clip880)" d="M2240.29 1795.47 L2230.74 1795.47 L2230.74 1734.63 Q2227.29 1737.92 2221.67 1741.21 Q2216.1 1744.5 2211.64 1746.14 L2211.64 1736.91 Q2219.65 1733.15 2225.65 1727.79 Q2231.64 1722.43 2234.13 1717.39 L2240.29 1717.39 L2240.29 1795.47 Z" fill="#000000" fill-rule="nonzero" fill-opacity="1" /><path clip-path="url(#clip880)" d="M2264.74 1757.12 Q2264.74 1743.33 2267.55 1734.95 Q2270.41 1726.52 2275.98 1721.95 Q2281.61 1717.39 2290.09 1717.39 Q2296.35 1717.39 2301.07 1719.94 Q2305.79 1722.43 2308.87 1727.21 Q2311.95 1731.93 2313.7 1738.77 Q2315.45 1745.56 2315.45 1757.12 Q2315.45 1770.81 2312.64 1779.24 Q2309.82 1787.62 2304.2 1792.24 Q2298.63 1796.8 2290.09 1796.8 Q2278.85 1796.8 2272.43 1788.74 Q2264.74 1779.03 2264.74 1757.12 M2274.55 1757.12 Q2274.55 1776.27 2279.01 1782.64 Q2283.52 1788.95 2290.09 1788.95 Q2296.67 1788.95 2301.13 1782.58 Q2305.63 1776.22 2305.63 1757.12 Q2305.63 1737.92 2301.13 1731.61 Q2296.67 1725.3 2289.99 1725.3 Q2283.41 1725.3 2279.48 1730.87 Q2274.55 1737.97 2274.55 1757.12 Z" fill="#000000" fill-rule="nonzero" fill-opacity="1" /><path clip-path="url(#clip880)" d="M2325.15 1757.12 Q2325.15 1743.33 2327.97 1734.95 Q2330.83 1726.52 2336.4 1721.95 Q2342.02 1717.39 2350.51 1717.39 Q2356.77 1717.39 2361.49 1719.94 Q2366.21 1722.43 2369.29 1727.21 Q2372.36 1731.93 2374.11 1738.77 Q2375.86 1745.56 2375.86 1757.12 Q2375.86 1770.81 2373.05 1779.24 Q2370.24 1787.62 2364.62 1792.24 Q2359.05 1796.8 2350.51 1796.8 Q2339.26 1796.8 2332.85 1788.74 Q2325.15 1779.03 2325.15 1757.12 M2334.97 1757.12 Q2334.97 1776.27 2339.42 1782.64 Q2343.93 1788.95 2350.51 1788.95 Q2357.09 1788.95 2361.54 1782.58 Q2366.05 1776.22 2366.05 1757.12 Q2366.05 1737.92 2361.54 1731.61 Q2357.09 1725.3 2350.4 1725.3 Q2343.82 1725.3 2339.9 1730.87 Q2334.97 1737.97 2334.97 1757.12 Z" fill="#000000" fill-rule="nonzero" fill-opacity="1" /><path clip-path="url(#clip880)" d="M2385.57 1757.12 Q2385.57 1743.33 2388.38 1734.95 Q2391.24 1726.52 2396.81 1721.95 Q2402.44 1717.39 2410.92 1717.39 Q2417.18 1717.39 2421.9 1719.94 Q2426.62 1722.43 2429.7 1727.21 Q2432.78 1731.93 2434.53 1738.77 Q2436.28 1745.56 2436.28 1757.12 Q2436.28 1770.81 2433.47 1779.24 Q2430.66 1787.62 2425.03 1792.24 Q2419.46 1796.8 2410.92 1796.8 Q2399.68 1796.8 2393.26 1788.74 Q2385.57 1779.03 2385.57 1757.12 M2395.38 1757.12 Q2395.38 1776.27 2399.84 1782.64 Q2404.35 1788.95 2410.92 1788.95 Q2417.5 1788.95 2421.96 1782.58 Q2426.46 1776.22 2426.46 1757.12 Q2426.46 1737.92 2421.96 1731.61 Q2417.5 1725.3 2410.82 1725.3 Q2404.24 1725.3 2400.31 1730.87 Q2395.38 1737.97 2395.38 1757.12 Z" fill="#000000" fill-rule="nonzero" fill-opacity="1" /><path clip-path="url(#clip880)" d="M3995.09 1786.3 L3995.09 1795.47 L3943.69 1795.47 Q3943.59 1792.02 3944.81 1788.84 Q3946.77 1783.59 3951.07 1778.5 Q3955.41 1773.41 3963.58 1766.72 Q3976.26 1756.33 3980.72 1750.28 Q3985.17 1744.18 3985.17 1738.77 Q3985.17 1733.09 3981.09 1729.22 Q3977.06 1725.3 3970.53 1725.3 Q3963.64 1725.3 3959.5 1729.43 Q3955.36 1733.57 3955.31 1740.89 L3945.5 1739.88 Q3946.5 1728.9 3953.08 1723.17 Q3959.66 1717.39 3970.74 1717.39 Q3981.94 1717.39 3988.46 1723.6 Q3994.98 1729.81 3994.98 1738.98 Q3994.98 1743.65 3993.07 1748.16 Q3991.17 1752.67 3986.71 1757.65 Q3982.31 1762.64 3972.02 1771.34 Q3963.42 1778.55 3960.98 1781.15 Q3958.54 1783.7 3956.95 1786.3 L3995.09 1786.3 Z" fill="#000000" fill-rule="nonzero" fill-opacity="1" /><path clip-path="url(#clip880)" d="M4005.33 1757.12 Q4005.33 1743.33 4008.14 1734.95 Q4011 1726.52 4016.57 1721.95 Q4022.19 1717.39 4030.68 1717.39 Q4036.94 1717.39 4041.66 1719.94 Q4046.38 1722.43 4049.46 1727.21 Q4052.54 1731.93 4054.29 1738.77 Q4056.04 1745.56 4056.04 1757.12 Q4056.04 1770.81 4053.22 1779.24 Q4050.41 1787.62 4044.79 1792.24 Q4039.22 1796.8 4030.68 1796.8 Q4019.44 1796.8 4013.02 1788.74 Q4005.33 1779.03 4005.33 1757.12 M4015.14 1757.12 Q4015.14 1776.27 4019.6 1782.64 Q4024.1 1788.95 4030.68 1788.95 Q4037.26 1788.95 4041.71 1782.58 Q4046.22 1776.22 4046.22 1757.12 Q4046.22 1737.92 4041.71 1731.61 Q4037.26 1725.3 4030.58 1725.3 Q4024 1725.3 4020.07 1730.87 Q4015.14 1737.97 4015.14 1757.12 Z" fill="#000000" fill-rule="nonzero" fill-opacity="1" /><path clip-path="url(#clip880)" d="M4065.74 1757.12 Q4065.74 1743.33 4068.55 1734.95 Q4071.42 1726.52 4076.99 1721.95 Q4082.61 1717.39 4091.1 1717.39 Q4097.36 1717.39 4102.08 1719.94 Q4106.8 1722.43 4109.87 1727.21 Q4112.95 1731.93 4114.7 1738.77 Q4116.45 1745.56 4116.45 1757.12 Q4116.45 1770.81 4113.64 1779.24 Q4110.83 1787.62 4105.21 1792.24 Q4099.64 1796.8 4091.1 1796.8 Q4079.85 1796.8 4073.43 1788.74 Q4065.74 1779.03 4065.74 1757.12 M4075.56 1757.12 Q4075.56 1776.27 4080.01 1782.64 Q4084.52 1788.95 4091.1 1788.95 Q4097.67 1788.95 4102.13 1782.58 Q4106.64 1776.22 4106.64 1757.12 Q4106.64 1737.92 4102.13 1731.61 Q4097.67 1725.3 4090.99 1725.3 Q4084.41 1725.3 4080.49 1730.87 Q4075.56 1737.97 4075.56 1757.12 Z" fill="#000000" fill-rule="nonzero" fill-opacity="1" /><path clip-path="url(#clip880)" d="M4126.16 1757.12 Q4126.16 1743.33 4128.97 1734.95 Q4131.83 1726.52 4137.4 1721.95 Q4143.03 1717.39 4151.51 1717.39 Q4157.77 1717.39 4162.49 1719.94 Q4167.21 1722.43 4170.29 1727.21 Q4173.37 1731.93 4175.12 1738.77 Q4176.87 1745.56 4176.87 1757.12 Q4176.87 1770.81 4174.05 1779.24 Q4171.24 1787.62 4165.62 1792.24 Q4160.05 1796.8 4151.51 1796.8 Q4140.27 1796.8 4133.85 1788.74 Q4126.16 1779.03 4126.16 1757.12 M4135.97 1757.12 Q4135.97 1776.27 4140.43 1782.64 Q4144.93 1788.95 4151.51 1788.95 Q4158.09 1788.95 4162.54 1782.58 Q4167.05 1776.22 4167.05 1757.12 Q4167.05 1737.92 4162.54 1731.61 Q4158.09 1725.3 4151.41 1725.3 Q4144.83 1725.3 4140.9 1730.87 Q4135.97 1737.97 4135.97 1757.12 Z" fill="#000000" fill-rule="nonzero" fill-opacity="1" /><path clip-path="url(#clip880)" d="M5680.54 1774.94 L5690.09 1773.67 Q5691.73 1781.79 5695.66 1785.39 Q5699.64 1788.95 5705.31 1788.95 Q5712.05 1788.95 5716.66 1784.28 Q5721.33 1779.61 5721.33 1772.72 Q5721.33 1766.14 5717.03 1761.9 Q5712.74 1757.6 5706.11 1757.6 Q5703.4 1757.6 5699.37 1758.66 L5700.43 1750.28 Q5701.39 1750.39 5701.97 1750.39 Q5708.07 1750.39 5712.95 1747.2 Q5717.83 1744.02 5717.83 1737.39 Q5717.83 1732.14 5714.28 1728.69 Q5710.72 1725.24 5705.1 1725.24 Q5699.53 1725.24 5695.82 1728.74 Q5692.1 1732.25 5691.04 1739.25 L5681.5 1737.55 Q5683.25 1727.95 5689.45 1722.7 Q5695.66 1717.39 5704.89 1717.39 Q5711.25 1717.39 5716.61 1720.15 Q5721.97 1722.86 5724.78 1727.58 Q5727.64 1732.3 5727.64 1737.6 Q5727.64 1742.64 5724.94 1746.78 Q5722.23 1750.92 5716.93 1753.36 Q5723.82 1754.95 5727.64 1759.99 Q5731.46 1764.97 5731.46 1772.5 Q5731.46 1782.69 5724.04 1789.8 Q5716.61 1796.85 5705.26 1796.85 Q5695.02 1796.85 5688.23 1790.75 Q5681.5 1784.65 5680.54 1774.94 Z" fill="#000000" fill-rule="nonzero" fill-opacity="1" /><path clip-path="url(#clip880)" d="M5740.9 1757.12 Q5740.9 1743.33 5743.71 1734.95 Q5746.58 1726.52 5752.15 1721.95 Q5757.77 1717.39 5766.26 1717.39 Q5772.52 1717.39 5777.24 1719.94 Q5781.96 1722.43 5785.03 1727.21 Q5788.11 1731.93 5789.86 1738.77 Q5791.61 1745.56 5791.61 1757.12 Q5791.61 1770.81 5788.8 1779.24 Q5785.99 1787.62 5780.37 1792.24 Q5774.8 1796.8 5766.26 1796.8 Q5755.01 1796.8 5748.59 1788.74 Q5740.9 1779.03 5740.9 1757.12 M5750.72 1757.12 Q5750.72 1776.27 5755.17 1782.64 Q5759.68 1788.95 5766.26 1788.95 Q5772.84 1788.95 5777.29 1782.58 Q5781.8 1776.22 5781.8 1757.12 Q5781.8 1737.92 5777.29 1731.61 Q5772.84 1725.3 5766.15 1725.3 Q5759.57 1725.3 5755.65 1730.87 Q5750.72 1737.97 5750.72 1757.12 Z" fill="#000000" fill-rule="nonzero" fill-opacity="1" /><path clip-path="url(#clip880)" d="M5801.32 1757.12 Q5801.32 1743.33 5804.13 1734.95 Q5806.99 1726.52 5812.56 1721.95 Q5818.19 1717.39 5826.67 1717.39 Q5832.93 1717.39 5837.65 1719.94 Q5842.37 1722.43 5845.45 1727.21 Q5848.53 1731.93 5850.28 1738.77 Q5852.03 1745.56 5852.03 1757.12 Q5852.03 1770.81 5849.22 1779.24 Q5846.4 1787.62 5840.78 1792.24 Q5835.21 1796.8 5826.67 1796.8 Q5815.43 1796.8 5809.01 1788.74 Q5801.32 1779.03 5801.32 1757.12 M5811.13 1757.12 Q5811.13 1776.27 5815.59 1782.64 Q5820.1 1788.95 5826.67 1788.95 Q5833.25 1788.95 5837.71 1782.58 Q5842.21 1776.22 5842.21 1757.12 Q5842.21 1737.92 5837.71 1731.61 Q5833.25 1725.3 5826.57 1725.3 Q5819.99 1725.3 5816.06 1730.87 Q5811.13 1737.97 5811.13 1757.12 Z" fill="#000000" fill-rule="nonzero" fill-opacity="1" /><path clip-path="url(#clip880)" d="M5861.73 1757.12 Q5861.73 1743.33 5864.55 1734.95 Q5867.41 1726.52 5872.98 1721.95 Q5878.6 1717.39 5887.09 1717.39 Q5893.35 1717.39 5898.07 1719.94 Q5902.79 1722.43 5905.87 1727.21 Q5908.94 1731.93 5910.69 1738.77 Q5912.44 1745.56 5912.44 1757.12 Q5912.44 1770.81 5909.63 1779.24 Q5906.82 1787.62 5901.2 1792.24 Q5895.63 1796.8 5887.09 1796.8 Q5875.84 1796.8 5869.43 1788.74 Q5861.73 1779.03 5861.73 1757.12 M5871.55 1757.12 Q5871.55 1776.27 5876 1782.64 Q5880.51 1788.95 5887.09 1788.95 Q5893.67 1788.95 5898.12 1782.58 Q5902.63 1776.22 5902.63 1757.12 Q5902.63 1737.92 5898.12 1731.61 Q5893.67 1725.3 5886.98 1725.3 Q5880.4 1725.3 5876.48 1730.87 Q5871.55 1737.97 5871.55 1757.12 Z" fill="#000000" fill-rule="nonzero" fill-opacity="1" /><path clip-path="url(#clip880)" d="M3091.53 1932.08 L3101.39 1933.3 Q3099.06 1941.95 3092.75 1946.72 Q3086.43 1951.5 3076.62 1951.5 Q3064.26 1951.5 3056.99 1943.91 Q3049.78 1936.27 3049.78 1922.54 Q3049.78 1908.32 3057.1 1900.47 Q3064.42 1892.62 3076.09 1892.62 Q3087.39 1892.62 3094.55 1900.31 Q3101.71 1908 3101.71 1921.95 Q3101.71 1922.8 3101.66 1924.5 L3059.65 1924.5 Q3060.18 1933.78 3064.9 1938.71 Q3069.62 1943.65 3076.67 1943.65 Q3081.92 1943.65 3085.64 1940.89 Q3089.35 1938.13 3091.53 1932.08 M3060.18 1916.65 L3091.63 1916.65 Q3090.99 1909.54 3088.02 1905.99 Q3083.46 1900.47 3076.2 1900.47 Q3069.62 1900.47 3065.11 1904.87 Q3060.65 1909.27 3060.18 1916.65 Z" fill="#000000" fill-rule="nonzero" fill-opacity="1" /><path clip-path="url(#clip880)" d="M3113.38 1971.81 L3113.38 1893.89 L3122.08 1893.89 L3122.08 1901.21 Q3125.15 1896.92 3129.03 1894.79 Q3132.9 1892.62 3138.41 1892.62 Q3145.63 1892.62 3151.14 1896.33 Q3156.66 1900.05 3159.47 1906.83 Q3162.28 1913.57 3162.28 1921.63 Q3162.28 1930.28 3159.15 1937.23 Q3156.08 1944.12 3150.14 1947.84 Q3144.25 1951.5 3137.73 1951.5 Q3132.95 1951.5 3129.13 1949.48 Q3125.37 1947.47 3122.93 1944.39 L3122.93 1971.81 L3113.38 1971.81 M3122.02 1922.38 Q3122.02 1933.25 3126.43 1938.45 Q3130.83 1943.65 3137.09 1943.65 Q3143.45 1943.65 3147.96 1938.29 Q3152.52 1932.88 3152.52 1921.58 Q3152.52 1910.81 3148.07 1905.46 Q3143.67 1900.1 3137.51 1900.1 Q3131.41 1900.1 3126.69 1905.83 Q3122.02 1911.5 3122.02 1922.38 Z" fill="#000000" fill-rule="nonzero" fill-opacity="1" /><path clip-path="url(#clip880)" d="M3170.24 1922.06 Q3170.24 1906.41 3178.94 1898.88 Q3186.21 1892.62 3196.65 1892.62 Q3208.27 1892.62 3215.64 1900.26 Q3223.02 1907.84 3223.02 1921.26 Q3223.02 1932.14 3219.73 1938.4 Q3216.49 1944.6 3210.23 1948.05 Q3204.03 1951.5 3196.65 1951.5 Q3184.83 1951.5 3177.51 1943.91 Q3170.24 1936.33 3170.24 1922.06 M3180.05 1922.06 Q3180.05 1932.88 3184.77 1938.29 Q3189.49 1943.65 3196.65 1943.65 Q3203.76 1943.65 3208.48 1938.24 Q3213.2 1932.83 3213.2 1921.74 Q3213.2 1911.29 3208.43 1905.93 Q3203.71 1900.52 3196.65 1900.52 Q3189.49 1900.52 3184.77 1905.88 Q3180.05 1911.24 3180.05 1922.06 Z" fill="#000000" fill-rule="nonzero" fill-opacity="1" /><path clip-path="url(#clip880)" d="M3270.97 1929.59 L3280.36 1930.81 Q3278.82 1940.52 3272.45 1946.03 Q3266.14 1951.5 3256.91 1951.5 Q3245.35 1951.5 3238.29 1943.96 Q3231.29 1936.38 3231.29 1922.27 Q3231.29 1913.15 3234.32 1906.3 Q3237.34 1899.46 3243.49 1896.07 Q3249.7 1892.62 3256.96 1892.62 Q3266.14 1892.62 3271.98 1897.29 Q3277.81 1901.9 3279.45 1910.44 L3270.17 1911.87 Q3268.85 1906.2 3265.45 1903.33 Q3262.11 1900.47 3257.34 1900.47 Q3250.12 1900.47 3245.61 1905.67 Q3241.1 1910.81 3241.1 1922 Q3241.1 1933.36 3245.45 1938.5 Q3249.8 1943.65 3256.8 1943.65 Q3262.43 1943.65 3266.19 1940.2 Q3269.96 1936.75 3270.97 1929.59 Z" fill="#000000" fill-rule="nonzero" fill-opacity="1" /><path clip-path="url(#clip880)" d="M3288.52 1950.22 L3288.52 1872.46 L3298.07 1872.46 L3298.07 1900.36 Q3304.76 1892.62 3314.94 1892.62 Q3321.2 1892.62 3325.81 1895.11 Q3330.43 1897.55 3332.39 1901.9 Q3334.41 1906.25 3334.41 1914.53 L3334.41 1950.22 L3324.86 1950.22 L3324.86 1914.53 Q3324.86 1907.37 3321.73 1904.13 Q3318.65 1900.84 3312.98 1900.84 Q3308.73 1900.84 3304.97 1903.07 Q3301.25 1905.24 3299.66 1909.01 Q3298.07 1912.78 3298.07 1919.41 L3298.07 1950.22 L3288.52 1950.22 Z" fill="#000000" fill-rule="nonzero" fill-opacity="1" /><polyline clip-path="url(#clip882)" style="stroke:#000000; stroke-linecap:round; stroke-linejoin:round; stroke-width:2; stroke-opacity:0.1; fill:none" points="431.431,1598.84 5952.76,1598.84 "/>
<polyline clip-path="url(#clip882)" style="stroke:#000000; stroke-linecap:round; stroke-linejoin:round; stroke-width:2; stroke-opacity:0.1; fill:none" points="431.431,1159.15 5952.76,1159.15 "/>
<polyline clip-path="url(#clip882)" style="stroke:#000000; stroke-linecap:round; stroke-linejoin:round; stroke-width:2; stroke-opacity:0.1; fill:none" points="431.431,719.449 5952.76,719.449 "/>
<polyline clip-path="url(#clip882)" style="stroke:#000000; stroke-linecap:round; stroke-linejoin:round; stroke-width:2; stroke-opacity:0.1; fill:none" points="431.431,279.754 5952.76,279.754 "/>
<polyline clip-path="url(#clip880)" style="stroke:#000000; stroke-linecap:round; stroke-linejoin:round; stroke-width:4; stroke-opacity:1; fill:none" points="431.431,1650.27 431.431,47.2441 "/>
<polyline clip-path="url(#clip880)" style="stroke:#000000; stroke-linecap:round; stroke-linejoin:round; stroke-width:4; stroke-opacity:1; fill:none" points="431.431,1598.84 450.328,1598.84 "/>
<polyline clip-path="url(#clip880)" style="stroke:#000000; stroke-linecap:round; stroke-linejoin:round; stroke-width:4; stroke-opacity:1; fill:none" points="431.431,1159.15 450.328,1159.15 "/>
<polyline clip-path="url(#clip880)" style="stroke:#000000; stroke-linecap:round; stroke-linejoin:round; stroke-width:4; stroke-opacity:1; fill:none" points="431.431,719.449 450.328,719.449 "/>
<polyline clip-path="url(#clip880)" style="stroke:#000000; stroke-linecap:round; stroke-linejoin:round; stroke-width:4; stroke-opacity:1; fill:none" points="431.431,279.754 450.328,279.754 "/>
<path clip-path="url(#clip880)" d="M280.697 1603.83 L229.352 1603.83 L229.352 1594.92 L280.697 1594.92 L280.697 1603.83 Z" fill="#000000" fill-rule="nonzero" fill-opacity="1" /><path clip-path="url(#clip880)" d="M341.431 1628.54 L341.431 1637.72 L290.033 1637.72 Q289.927 1634.27 291.147 1631.09 Q293.109 1625.84 297.406 1620.75 Q301.755 1615.65 309.924 1608.97 Q322.601 1598.58 327.056 1592.53 Q331.512 1586.43 331.512 1581.02 Q331.512 1575.34 327.428 1571.47 Q323.396 1567.55 316.872 1567.55 Q309.977 1567.55 305.839 1571.68 Q301.702 1575.82 301.649 1583.14 L291.836 1582.13 Q292.844 1571.15 299.421 1565.42 Q305.999 1559.64 317.084 1559.64 Q328.276 1559.64 334.801 1565.85 Q341.325 1572.05 341.325 1581.23 Q341.325 1585.9 339.415 1590.41 Q337.506 1594.92 333.05 1599.9 Q328.648 1604.89 318.357 1613.59 Q309.765 1620.8 307.325 1623.4 Q304.885 1625.95 303.293 1628.54 L341.431 1628.54 Z" fill="#000000" fill-rule="nonzero" fill-opacity="1" /><path clip-path="url(#clip880)" d="M294.913 1164.13 L243.568 1164.13 L243.568 1155.22 L294.913 1155.22 L294.913 1164.13 Z" fill="#000000" fill-rule="nonzero" fill-opacity="1" /><path clip-path="url(#clip880)" d="M341.431 1198.03 L331.883 1198.03 L331.883 1137.19 Q328.435 1140.47 322.813 1143.76 Q317.244 1147.05 312.788 1148.7 L312.788 1139.47 Q320.797 1135.7 326.791 1130.34 Q332.785 1124.99 335.278 1119.95 L341.431 1119.95 L341.431 1198.03 Z" fill="#000000" fill-rule="nonzero" fill-opacity="1" /><path clip-path="url(#clip880)" d="M290.722 719.98 Q290.722 706.189 293.534 697.808 Q296.398 689.374 301.967 684.813 Q307.59 680.251 316.077 680.251 Q322.336 680.251 327.056 682.797 Q331.777 685.29 334.854 690.064 Q337.93 694.785 339.68 701.627 Q341.431 708.417 341.431 719.98 Q341.431 733.665 338.62 742.099 Q335.808 750.479 330.186 755.094 Q324.616 759.656 316.077 759.656 Q304.832 759.656 298.414 751.593 Q290.722 741.886 290.722 719.98 M300.535 719.98 Q300.535 739.128 304.991 745.493 Q309.499 751.805 316.077 751.805 Q322.654 751.805 327.109 745.44 Q331.618 739.075 331.618 719.98 Q331.618 700.779 327.109 694.467 Q322.654 688.155 315.971 688.155 Q309.393 688.155 305.468 693.724 Q300.535 700.832 300.535 719.98 Z" fill="#000000" fill-rule="nonzero" fill-opacity="1" /><path clip-path="url(#clip880)" d="M341.431 318.634 L331.883 318.634 L331.883 257.794 Q328.435 261.083 322.813 264.372 Q317.244 267.66 312.788 269.305 L312.788 260.075 Q320.797 256.309 326.791 250.952 Q332.785 245.595 335.278 240.556 L341.431 240.556 L341.431 318.634 Z" fill="#000000" fill-rule="nonzero" fill-opacity="1" /><path clip-path="url(#clip880)" d="M116.024 1108.98 L38.2644 1108.98 L38.2644 1099.44 L116.024 1099.44 L116.024 1108.98 Z" fill="#000000" fill-rule="nonzero" fill-opacity="1" /><path clip-path="url(#clip880)" d="M87.859 1088.19 Q72.2115 1088.19 64.6795 1079.49 Q58.4205 1072.22 58.4205 1061.78 Q58.4205 1050.16 66.0586 1042.79 Q73.6436 1035.41 87.0633 1035.41 Q97.937 1035.41 104.196 1038.7 Q110.402 1041.94 113.85 1048.2 Q117.297 1054.4 117.297 1061.78 Q117.297 1073.6 109.712 1080.92 Q102.127 1088.19 87.859 1088.19 M87.859 1078.38 Q98.6796 1078.38 104.09 1073.66 Q109.447 1068.94 109.447 1061.78 Q109.447 1054.67 104.037 1049.95 Q98.6266 1045.23 87.5407 1045.23 Q77.0914 1045.23 71.7341 1050 Q66.3238 1054.72 66.3238 1061.78 Q66.3238 1068.94 71.6811 1073.66 Q77.0384 1078.38 87.859 1078.38 Z" fill="#000000" fill-rule="nonzero" fill-opacity="1" /><path clip-path="url(#clip880)" d="M120.692 1025.97 L122.071 1016.69 Q126.368 1016.11 128.33 1013.45 Q130.982 1009.9 130.982 1003.75 Q130.982 997.117 128.33 993.51 Q125.678 989.903 120.904 988.63 Q117.987 987.888 108.652 987.941 Q116.024 994.2 116.024 1003.54 Q116.024 1015.15 107.644 1021.52 Q99.2631 1027.88 87.5407 1027.88 Q79.4783 1027.88 72.6889 1024.96 Q65.8464 1022.05 62.1335 1016.53 Q58.4205 1010.96 58.4205 1003.48 Q58.4205 993.51 66.4829 987.039 L59.6935 987.039 L59.6935 978.234 L108.386 978.234 Q121.541 978.234 127.004 980.939 Q132.521 983.591 135.703 989.426 Q138.886 995.208 138.886 1003.69 Q138.886 1013.77 134.324 1019.98 Q129.815 1026.18 120.692 1025.97 M86.8512 1018.07 Q97.937 1018.07 103.029 1013.67 Q108.121 1009.26 108.121 1002.63 Q108.121 996.056 103.082 991.601 Q97.9901 987.145 87.1694 987.145 Q76.8262 987.145 71.575 991.76 Q66.3238 996.321 66.3238 1002.79 Q66.3238 1009.16 71.522 1013.61 Q76.6671 1018.07 86.8512 1018.07 Z" fill="#000000" fill-rule="nonzero" fill-opacity="1" /><path clip-path="url(#clip880)" d="M116.024 930.496 L116.024 940.044 L55.1849 940.044 Q58.4736 943.491 61.7622 949.114 Q65.0508 954.683 66.6951 959.139 L57.4658 959.139 Q53.6997 951.129 48.3425 945.136 Q42.9852 939.142 37.9462 936.649 L37.9462 930.496 L116.024 930.496 Z" fill="#000000" fill-rule="nonzero" fill-opacity="1" /><path clip-path="url(#clip880)" d="M77.6749 906.043 Q63.8839 906.043 55.5032 903.232 Q47.0695 900.368 42.5078 894.799 Q37.9462 889.176 37.9462 880.689 Q37.9462 874.43 40.4922 869.71 Q42.9852 864.989 47.759 861.912 Q52.4798 858.836 59.3222 857.085 Q66.1116 855.335 77.6749 855.335 Q91.3598 855.335 99.7935 858.146 Q108.174 860.958 112.789 866.58 Q117.35 872.149 117.35 880.689 Q117.35 891.934 109.288 898.352 Q99.5813 906.043 77.6749 906.043 M77.6749 896.231 Q96.8231 896.231 103.188 891.775 Q109.5 887.266 109.5 880.689 Q109.5 874.112 103.135 869.656 Q96.7701 865.148 77.6749 865.148 Q58.4736 865.148 52.1615 869.656 Q45.8495 874.112 45.8495 880.795 Q45.8495 887.373 51.4189 891.298 Q58.5266 896.231 77.6749 896.231 Z" fill="#000000" fill-rule="nonzero" fill-opacity="1" /><path clip-path="url(#clip880)" d="M138.886 824.73 Q128.914 832.633 115.547 838.096 Q102.18 843.56 87.859 843.56 Q75.2349 843.56 63.6717 839.475 Q50.252 834.702 36.9384 824.73 L36.9384 817.887 Q47.9712 824.305 52.6919 826.374 Q60.0118 829.61 67.9681 831.466 Q77.887 833.747 87.912 833.747 Q113.425 833.747 138.886 817.887 L138.886 824.73 Z" fill="#000000" fill-rule="nonzero" fill-opacity="1" /><path clip-path="url(#clip880)" d="M116.024 807.014 L38.2644 807.014 L38.2644 797.466 L116.024 797.466 L116.024 807.014 Z" fill="#000000" fill-rule="nonzero" fill-opacity="1" /><path clip-path="url(#clip880)" d="M87.859 786.221 Q72.2115 786.221 64.6795 777.522 Q58.4205 770.255 58.4205 759.806 Q58.4205 748.19 66.0586 740.817 Q73.6436 733.444 87.0633 733.444 Q97.937 733.444 104.196 736.732 Q110.402 739.968 113.85 746.227 Q117.297 752.433 117.297 759.806 Q117.297 771.634 109.712 778.954 Q102.127 786.221 87.859 786.221 M87.859 776.408 Q98.6796 776.408 104.09 771.687 Q109.447 766.967 109.447 759.806 Q109.447 752.698 104.037 747.977 Q98.6266 743.257 87.5407 743.257 Q77.0914 743.257 71.7341 748.03 Q66.3238 752.751 66.3238 759.806 Q66.3238 766.967 71.6811 771.687 Q77.0384 776.408 87.859 776.408 Z" fill="#000000" fill-rule="nonzero" fill-opacity="1" /><path clip-path="url(#clip880)" d="M99.21 726.071 L97.7249 716.629 Q103.4 715.834 106.424 712.227 Q109.447 708.567 109.447 702.043 Q109.447 695.466 106.795 692.283 Q104.09 689.1 100.483 689.1 Q97.2475 689.1 95.391 691.912 Q94.118 693.874 92.1554 701.672 Q89.5033 712.174 87.5938 716.258 Q85.6312 720.289 82.2365 722.411 Q78.7888 724.48 74.6515 724.48 Q70.8855 724.48 67.7029 722.782 Q64.4673 721.032 62.3456 718.062 Q60.7013 715.834 59.5874 712.015 Q58.4205 708.143 58.4205 703.74 Q58.4205 697.11 60.33 692.124 Q62.2396 687.085 65.5282 684.698 Q68.7638 682.311 74.2271 681.409 L75.5001 690.745 Q71.1507 691.381 68.7107 694.458 Q66.2708 697.481 66.2708 703.051 Q66.2708 709.628 68.4455 712.439 Q70.6202 715.25 73.5376 715.25 Q75.394 715.25 76.8792 714.083 Q78.4175 712.916 79.4253 710.423 Q79.9557 708.991 81.8652 701.99 Q84.5704 691.859 86.3208 687.881 Q88.0181 683.849 91.3067 681.568 Q94.5954 679.288 99.4752 679.288 Q104.249 679.288 108.492 682.099 Q112.683 684.857 115.017 690.108 Q117.297 695.359 117.297 701.99 Q117.297 712.97 112.736 718.751 Q108.174 724.48 99.21 726.071 Z" fill="#000000" fill-rule="nonzero" fill-opacity="1" /><path clip-path="url(#clip880)" d="M99.21 671.756 L97.7249 662.314 Q103.4 661.519 106.424 657.912 Q109.447 654.252 109.447 647.728 Q109.447 641.15 106.795 637.968 Q104.09 634.785 100.483 634.785 Q97.2475 634.785 95.391 637.596 Q94.118 639.559 92.1554 647.356 Q89.5033 657.859 87.5938 661.943 Q85.6312 665.974 82.2365 668.096 Q78.7888 670.164 74.6515 670.164 Q70.8855 670.164 67.7029 668.467 Q64.4673 666.717 62.3456 663.746 Q60.7013 661.519 59.5874 657.699 Q58.4205 653.827 58.4205 649.425 Q58.4205 642.795 60.33 637.809 Q62.2396 632.77 65.5282 630.383 Q68.7638 627.996 74.2271 627.094 L75.5001 636.43 Q71.1507 637.066 68.7107 640.142 Q66.2708 643.166 66.2708 648.735 Q66.2708 655.313 68.4455 658.124 Q70.6202 660.935 73.5376 660.935 Q75.394 660.935 76.8792 659.768 Q78.4175 658.601 79.4253 656.108 Q79.9557 654.676 81.8652 647.674 Q84.5704 637.543 86.3208 633.565 Q88.0181 629.534 91.3067 627.253 Q94.5954 624.972 99.4752 624.972 Q104.249 624.972 108.492 627.784 Q112.683 630.542 115.017 635.793 Q117.297 641.044 117.297 647.674 Q117.297 658.654 112.736 664.436 Q108.174 670.164 99.21 671.756 Z" fill="#000000" fill-rule="nonzero" fill-opacity="1" /><path clip-path="url(#clip880)" d="M138.886 607.362 L138.886 614.205 Q113.425 598.345 87.912 598.345 Q77.9401 598.345 68.1273 600.626 Q60.1709 602.429 52.8511 605.665 Q48.0773 607.734 36.9384 614.205 L36.9384 607.362 Q50.252 597.39 63.6717 592.617 Q75.2349 588.532 87.859 588.532 Q102.18 588.532 115.547 594.049 Q128.914 599.512 138.886 607.362 Z" fill="#000000" fill-rule="nonzero" fill-opacity="1" /><polyline clip-path="url(#clip882)" style="stroke:#009af9; stroke-linecap:round; stroke-linejoin:round; stroke-width:16; stroke-opacity:1; fill:none" points="587.695,92.6128 589.431,94.6251 591.167,96.639 592.904,98.6497 594.64,100.656 596.376,102.659 598.112,104.66 599.849,106.657 601.585,108.645 603.321,110.63 605.057,112.609 606.794,114.584 608.53,116.551 610.266,118.512 612.002,120.465 613.739,122.412 615.475,124.35 617.211,126.281 618.948,128.206 620.684,130.12 622.42,132.024 624.156,133.923 625.893,135.812 627.629,137.692 629.365,139.565 631.101,141.426 632.838,143.276 634.574,145.12 636.31,146.953 638.046,148.778 639.783,150.592 641.519,152.396 643.255,154.19 644.991,155.976 646.728,157.751 648.464,159.517 650.2,161.273 651.937,163.02 653.673,164.757 655.409,166.485 657.145,168.203 658.882,169.911 660.618,171.61 662.354,173.298 664.09,174.979 665.827,176.651 667.563,178.313 669.299,179.967 671.035,181.612 672.772,183.249 674.508,184.876 676.244,186.496 677.981,188.107 679.717,189.709 681.453,191.304 683.189,192.89 684.926,194.469 686.662,196.039 688.398,197.602 690.134,199.157 691.871,200.705 693.607,202.245 695.343,203.778 697.079,205.304 698.816,206.822 700.552,208.334 702.288,209.839 704.025,211.336 705.761,212.828 707.497,214.312 709.233,215.79 710.97,217.262 712.706,218.728 714.442,220.187 716.178,221.64 717.915,223.087 719.651,224.528 721.387,225.963 723.123,227.392 724.86,228.816 726.596,230.234 728.332,231.647 730.069,233.054 731.805,234.456 733.541,235.852 735.277,237.243 737.014,238.63 738.75,240.011 740.486,241.387 742.222,242.758 743.959,244.125 745.695,245.486 747.431,246.843 749.167,248.196 750.904,249.544 752.64,250.887 754.376,252.227 756.113,253.562 757.849,254.892 759.585,256.219 761.321,257.541 763.058,258.859 764.794,260.173 766.53,261.484 768.266,262.79 770.003,264.092 771.739,265.391 773.475,266.686 775.211,267.977 776.948,269.265 778.684,270.549 780.42,271.83 782.156,273.107 783.893,274.381 785.629,275.652 787.365,276.919 789.102,278.183 790.838,279.444 792.574,280.702 794.31,281.956 796.047,283.208 797.783,284.457 799.519,285.702 801.255,286.945 802.992,288.185 804.728,289.422 806.464,290.656 808.2,291.888 809.937,293.117 811.673,294.343 813.409,295.567 815.146,296.788 816.882,298.007 818.618,299.223 820.354,300.437 822.091,301.649 823.827,302.858 825.563,304.065 827.299,305.27 829.036,306.473 830.772,307.674 832.508,308.872 834.244,310.069 835.981,311.264 837.717,312.456 839.453,313.647 841.19,314.836 842.926,316.023 844.662,317.208 846.398,318.392 848.135,319.574 849.871,320.755 851.607,321.934 853.343,323.111 855.08,324.288 856.816,325.463 858.552,326.636 860.288,327.809 862.025,328.98 863.761,330.15 865.497,331.319 867.234,332.487 868.97,333.654 870.706,334.82 872.442,335.985 874.179,337.15 875.915,338.314 877.651,339.477 879.387,340.639 881.124,341.801 882.86,342.963 884.596,344.124 886.332,345.284 888.069,346.445 889.805,347.605 891.541,348.765 893.277,349.926 895.014,351.086 896.75,352.246 898.486,353.407 900.223,354.568 901.959,355.729 903.695,356.891 905.431,358.053 907.168,359.216 908.904,360.38 910.64,361.545 912.376,362.71 914.113,363.877 915.849,365.044 917.585,366.213 919.321,367.383 921.058,368.554 922.794,369.727 924.53,370.902 926.267,372.078 928.003,373.255 929.739,374.435 931.475,375.616 933.212,376.8 934.948,377.986 936.684,379.174 938.42,380.364 940.157,381.557 941.893,382.752 943.629,383.95 945.365,385.151 947.102,386.355 948.838,387.561 950.574,388.771 952.311,389.983 954.047,391.199 955.783,392.418 957.519,393.641 959.256,394.867 960.992,396.097 962.728,397.33 964.464,398.567 966.201,399.808 967.937,401.053 969.673,402.302 971.409,403.555 973.146,404.812 974.882,406.074 976.618,407.339 978.355,408.609 980.091,409.884 981.827,411.163 983.563,412.446 985.3,413.734 987.036,415.027 988.772,416.325 990.508,417.627 992.245,418.934 993.981,420.246 995.717,421.562 997.453,422.884 999.19,424.21 1000.93,425.541 1002.66,426.877 1004.4,428.218 1006.13,429.564 1007.87,430.914 1009.61,432.269 1011.34,433.63 1013.08,434.995 1014.82,436.366 1016.55,437.74 1018.29,439.12 1020.02,440.504 1021.76,441.892 1023.5,443.285 1025.23,444.682 1026.97,446.084 1028.71,447.49 1030.44,448.9 1032.18,450.315 1033.92,451.734 1035.65,453.154 1037.39,454.58 1039.12,456.01 1040.86,457.444 1042.6,458.881 1044.33,460.322 1046.07,461.765 1047.81,463.212 1049.54,464.662 1051.28,466.115 1053.01,467.571 1054.75,469.029 1056.49,470.49 1058.22,471.953 1059.96,473.419 1061.7,474.887 1063.43,476.357 1065.17,477.829 1066.9,479.303 1068.64,480.779 1070.38,482.256 1072.11,483.736 1073.85,485.216 1075.59,486.699 1077.32,488.183 1079.06,489.668 1080.79,491.154 1082.53,492.642 1084.27,494.132 1086,495.622 1087.74,497.114 1089.48,498.607 1091.21,500.101 1092.95,501.597 1094.68,503.094 1096.42,504.592 1098.16,506.091 1099.89,507.592 1101.63,509.094 1103.37,510.598 1105.1,512.103 1106.84,513.61 1108.57,515.118 1110.31,516.628 1112.05,518.139 1113.78,519.653 1115.52,521.169 1117.26,522.685 1118.99,524.204 1120.73,525.725 1122.46,527.248 1124.2,528.773 1125.94,530.3 1127.67,531.829 1129.41,533.361 1131.15,534.895 1132.88,536.432 1134.62,537.971 1136.35,539.512 1138.09,541.056 1139.83,542.602 1141.56,544.151 1143.3,545.703 1145.04,547.258 1146.77,548.816 1148.51,550.375 1150.24,551.938 1151.98,553.504 1153.72,555.073 1155.45,556.644 1157.19,558.218 1158.93,559.796 1160.66,561.376 1162.4,562.959 1164.13,564.545 1165.87,566.134 1167.61,567.725 1169.34,569.32 1171.08,570.918 1172.82,572.519 1174.55,574.124 1176.29,575.731 1178.03,577.341 1179.76,578.954 1181.5,580.57 1183.23,582.189 1184.97,583.812 1186.71,585.437 1188.44,587.065 1190.18,588.696 1191.92,590.33 1193.65,591.968 1195.39,593.608 1197.12,595.251 1198.86,596.897 1200.6,598.546 1202.33,600.198 1204.07,601.853 1205.81,603.511 1207.54,605.172 1209.28,606.835 1211.01,608.502 1212.75,610.171 1214.49,611.843 1216.22,613.517 1217.96,615.195 1219.7,616.875 1221.43,618.558 1223.17,620.244 1224.9,621.932 1226.64,623.624 1228.38,625.318 1230.11,627.013 1231.85,628.712 1233.59,630.414 1235.32,632.118 1237.06,633.825 1238.79,635.534 1240.53,637.245 1242.27,638.959 1244,640.676 1245.74,642.395 1247.48,644.117 1249.21,645.84 1250.95,647.567 1252.68,649.295 1254.42,651.026 1256.16,652.758 1257.89,654.493 1259.63,656.231 1261.37,657.97 1263.1,659.712 1264.84,661.455 1266.57,663.201 1268.31,664.949 1270.05,666.699 1271.78,668.451 1273.52,670.204 1275.26,671.96 1276.99,673.717 1278.73,675.477 1280.46,677.238 1282.2,679.001 1283.94,680.766 1285.67,682.532 1287.41,684.3 1289.15,686.07 1290.88,687.841 1292.62,689.614 1294.35,691.389 1296.09,693.165 1297.83,694.942 1299.56,696.721 1301.3,698.501 1303.04,700.283 1304.77,702.066 1306.51,703.85 1308.25,705.635 1309.98,707.421 1311.72,709.209 1313.45,710.997 1315.19,712.787 1316.93,714.578 1318.66,716.37 1320.4,718.163 1322.14,719.957 1323.87,721.752 1325.61,723.548 1327.34,725.344 1329.08,727.141 1330.82,728.939 1332.55,730.738 1334.29,732.537 1336.03,734.336 1337.76,736.137 1339.5,737.938 1341.23,739.739 1342.97,741.541 1344.71,743.344 1346.44,745.146 1348.18,746.95 1349.92,748.753 1351.65,750.557 1353.39,752.361 1355.12,754.165 1356.86,755.969 1358.6,757.773 1360.33,759.578 1362.07,761.382 1363.81,763.186 1365.54,764.99 1367.28,766.794 1369.01,768.598 1370.75,770.402 1372.49,772.206 1374.22,774.009 1375.96,775.812 1377.7,777.614 1379.43,779.416 1381.17,781.218 1382.9,783.019 1384.64,784.82 1386.38,786.62 1388.11,788.42 1389.85,790.218 1391.59,792.017 1393.32,793.814 1395.06,795.611 1396.79,797.407 1398.53,799.202 1400.27,800.997 1402,802.79 1403.74,804.582 1405.48,806.374 1407.21,808.165 1408.95,809.954 1410.68,811.742 1412.42,813.529 1414.16,815.315 1415.89,817.1 1417.63,818.883 1419.37,820.666 1421.1,822.446 1422.84,824.226 1424.57,826.004 1426.31,827.78 1428.05,829.555 1429.78,831.329 1431.52,833.101 1433.26,834.871 1434.99,836.64 1436.73,838.407 1438.46,840.173 1440.2,841.936 1441.94,843.698 1443.67,845.458 1445.41,847.217 1447.15,848.973 1448.88,850.728 1450.62,852.48 1452.36,854.231 1454.09,855.979 1455.83,857.726 1457.56,859.471 1459.3,861.213 1461.04,862.953 1462.77,864.691 1464.51,866.427 1466.25,868.161 1467.98,869.892 1469.72,871.621 1471.45,873.348 1473.19,875.072 1474.93,876.795 1476.66,878.514 1478.4,880.232 1480.14,881.946 1481.87,883.659 1483.61,885.368 1485.34,887.075 1487.08,888.78 1488.82,890.482 1490.55,892.182 1492.29,893.878 1494.03,895.573 1495.76,897.264 1497.5,898.953 1499.23,900.638 1500.97,902.322 1502.71,904.002 1504.44,905.679 1506.18,907.354 1507.92,909.025 1509.65,910.694 1511.39,912.36 1513.12,914.023 1514.86,915.683 1516.6,917.34 1518.33,918.994 1520.07,920.644 1521.81,922.292 1523.54,923.937 1525.28,925.578 1527.01,927.217 1528.75,928.852 1530.49,930.484 1532.22,932.113 1533.96,933.738 1535.7,935.361 1537.43,936.979 1539.17,938.595 1540.9,940.207 1542.64,941.816 1544.38,943.422 1546.11,945.025 1547.85,946.623 1549.59,948.219 1551.32,949.811 1553.06,951.399 1554.79,952.984 1556.53,954.566 1558.27,956.144 1560,957.718 1561.74,959.289 1563.48,960.856 1565.21,962.42 1566.95,963.98 1568.68,965.537 1570.42,967.09 1572.16,968.639 1573.89,970.185 1575.63,971.727 1577.37,973.265 1579.1,974.799 1580.84,976.33 1582.57,977.857 1584.31,979.38 1586.05,980.9 1587.78,982.416 1589.52,983.928 1591.26,985.436 1592.99,986.939 1594.73,988.44 1596.47,989.936 1598.2,991.428 1599.94,992.917 1601.67,994.401 1603.41,995.882 1605.15,997.358 1606.88,998.831 1608.62,1000.3 1610.36,1001.76 1612.09,1003.22 1613.83,1004.68 1615.56,1006.13 1617.3,1007.58 1619.04,1009.03 1620.77,1010.47 1622.51,1011.9 1624.25,1013.33 1625.98,1014.76 1627.72,1016.19 1629.45,1017.61 1631.19,1019.02 1632.93,1020.43 1634.66,1021.84 1636.4,1023.24 1638.14,1024.64 1639.87,1026.04 1641.61,1027.43 1643.34,1028.81 1645.08,1030.19 1646.82,1031.57 1648.55,1032.94 1650.29,1034.31 1652.03,1035.68 1653.76,1037.04 1655.5,1038.39 1657.23,1039.74 1658.97,1041.09 1660.71,1042.43 1662.44,1043.77 1664.18,1045.11 1665.92,1046.44 1667.65,1047.76 1669.39,1049.08 1671.12,1050.4 1672.86,1051.71 1674.6,1053.02 1676.33,1054.32 1678.07,1055.62 1679.81,1056.92 1681.54,1058.21 1683.28,1059.49 1685.01,1060.77 1686.75,1062.05 1688.49,1063.32 1690.22,1064.59 1691.96,1065.85 1693.7,1067.11 1695.43,1068.37 1697.17,1069.62 1698.9,1070.86 1700.64,1072.1 1702.38,1073.34 1704.11,1074.57 1705.85,1075.8 1707.59,1077.02 1709.32,1078.24 1711.06,1079.45 1712.79,1080.66 1714.53,1081.86 1716.27,1083.06 1718,1084.26 1719.74,1085.45 1721.48,1086.64 1723.21,1087.82 1724.95,1089 1726.69,1090.17 1728.42,1091.34 1730.16,1092.5 1731.89,1093.66 1733.63,1094.81 1735.37,1095.96 1737.1,1097.11 1738.84,1098.25 1740.58,1099.38 1742.31,1100.51 1744.05,1101.64 1745.78,1102.76 1747.52,1103.88 1749.26,1104.99 1750.99,1106.1 1752.73,1107.2 1754.47,1108.3 1756.2,1109.4 1757.94,1110.49 1759.67,1111.57 1761.41,1112.65 1763.15,1113.73 1764.88,1114.8 1766.62,1115.87 1768.36,1116.93 1770.09,1117.99 1771.83,1119.04 1773.56,1120.09 1775.3,1121.14 1777.04,1122.18 1778.77,1123.21 1780.51,1124.24 1782.25,1125.27 1783.98,1126.29 1785.72,1127.31 1787.45,1128.32 1789.19,1129.33 1790.93,1130.33 1792.66,1131.33 1794.4,1132.32 1796.14,1133.31 1797.87,1134.3 1799.61,1135.28 1801.34,1136.26 1803.08,1137.23 1804.82,1138.2 1806.55,1139.16 1808.29,1140.12 1810.03,1141.07 1811.76,1142.02 1813.5,1142.97 1815.23,1143.91 1816.97,1144.84 1818.71,1145.77 1820.44,1146.7 1822.18,1147.62 1823.92,1148.54 1825.65,1149.46 1827.39,1150.37 1829.12,1151.27 1830.86,1152.17 1832.6,1153.07 1834.33,1153.96 1836.07,1154.85 1837.81,1155.73 1839.54,1156.61 1841.28,1157.48 1843.01,1158.35 1844.75,1159.22 1846.49,1160.08 1848.22,1160.94 1849.96,1161.79 1851.7,1162.64 1853.43,1163.49 1855.17,1164.33 1856.9,1165.16 1858.64,1165.99 1860.38,1166.82 1862.11,1167.65 1863.85,1168.46 1865.59,1169.28 1867.32,1170.09 1869.06,1170.9 1870.8,1171.7 1872.53,1172.5 1874.27,1173.29 1876,1174.08 1877.74,1174.87 1879.48,1175.65 1881.21,1176.43 1882.95,1177.2 1884.69,1177.97 1886.42,1178.74 1888.16,1179.5 1889.89,1180.25 1891.63,1181.01 1893.37,1181.76 1895.1,1182.5 1896.84,1183.24 1898.58,1183.98 1900.31,1184.71 1902.05,1185.44 1903.78,1186.17 1905.52,1186.89 1907.26,1187.61 1908.99,1188.32 1910.73,1189.03 1912.47,1189.74 1914.2,1190.44 1915.94,1191.14 1917.67,1191.83 1919.41,1192.52 1921.15,1193.21 1922.88,1193.89 1924.62,1194.57 1926.36,1195.25 1928.09,1195.92 1929.83,1196.59 1931.56,1197.25 1933.3,1197.92 1935.04,1198.57 1936.77,1199.23 1938.51,1199.88 1940.25,1200.52 1941.98,1201.16 1943.72,1201.8 1945.45,1202.44 1947.19,1203.07 1948.93,1203.7 1950.66,1204.32 1952.4,1204.94 1954.14,1205.56 1955.87,1206.17 1957.61,1206.78 1959.34,1207.39 1961.08,1207.99 1962.82,1208.59 1964.55,1209.19 1966.29,1209.78 1968.03,1210.37 1969.76,1210.96 1971.5,1211.54 1973.23,1212.12 1974.97,1212.7 1976.71,1213.27 1978.44,1213.84 1980.18,1214.41 1981.92,1214.97 1983.65,1215.53 1985.39,1216.08 1987.12,1216.64 1988.86,1217.19 1990.6,1217.73 1992.33,1218.28 1994.07,1218.82 1995.81,1219.35 1997.54,1219.89 1999.28,1220.42 2001.02,1220.95 2002.75,1221.47 2004.49,1221.99 2006.22,1222.51 2007.96,1223.03 2009.7,1223.54 2011.43,1224.05 2013.17,1224.55 2014.91,1225.06 2016.64,1225.56 2018.38,1226.06 2020.11,1226.55 2021.85,1227.04 2023.59,1227.53 2025.32,1228.01 2027.06,1228.5 2028.8,1228.98 2030.53,1229.45 2032.27,1229.93 2034,1230.4 2035.74,1230.87 2037.48,1231.33 2039.21,1231.8 2040.95,1232.26 2042.69,1232.71 2044.42,1233.17 2046.16,1233.62 2047.89,1234.07 2049.63,1234.51 2051.37,1234.96 2053.1,1235.4 2054.84,1235.84 2056.58,1236.27 2058.31,1236.71 2060.05,1237.14 2061.78,1237.57 2063.52,1237.99 2065.26,1238.41 2066.99,1238.83 2068.73,1239.25 2070.47,1239.67 2072.2,1240.08 2073.94,1240.49 2075.67,1240.9 2077.41,1241.3 2079.15,1241.71 2080.88,1242.11 2082.62,1242.5 2084.36,1242.9 2086.09,1243.29 2087.83,1243.68 2089.56,1244.07 2091.3,1244.46 2093.04,1244.84 2094.77,1245.22 2096.51,1245.6 2098.25,1245.98 2099.98,1246.35 2101.72,1246.73 2103.45,1247.1 2105.19,1247.47 2106.93,1247.83 2108.66,1248.19 2110.4,1248.56 2112.14,1248.92 2113.87,1249.27 2115.61,1249.63 2117.34,1249.98 2119.08,1250.33 2120.82,1250.68 2122.55,1251.03 2124.29,1251.37 2126.03,1251.71 2127.76,1252.05 2129.5,1252.39 2131.23,1252.73 2132.97,1253.06 2134.71,1253.39 2136.44,1253.72 2138.18,1254.05 2139.92,1254.38 2141.65,1254.7 2143.39,1255.03 2145.13,1255.35 2146.86,1255.66 2148.6,1255.98 2150.33,1256.3 2152.07,1256.61 2153.81,1256.92 2155.54,1257.23 2157.28,1257.54 2159.02,1257.84 2160.75,1258.15 2162.49,1258.45 2164.22,1258.75 2165.96,1259.05 2167.7,1259.35 2169.43,1259.64 2171.17,1259.93 2172.91,1260.23 2174.64,1260.52 2176.38,1260.8 2178.11,1261.09 2179.85,1261.38 2181.59,1261.66 2183.32,1261.94 2185.06,1262.22 2186.8,1262.5 2188.53,1262.78 2190.27,1263.05 2192,1263.33 2193.74,1263.6 2195.48,1263.87 2197.21,1264.14 2198.95,1264.4 2200.69,1264.67 2202.42,1264.93 2204.16,1265.2 2205.89,1265.46 2207.63,1265.72 2209.37,1265.98 2211.1,1266.23 2212.84,1266.49 2214.58,1266.74 2216.31,1267 2218.05,1267.25 2219.78,1267.5 2221.52,1267.75 2223.26,1267.99 2224.99,1268.24 2226.73,1268.48 2228.47,1268.73 2230.2,1268.97 2231.94,1269.21 2233.67,1269.45 2235.41,1269.69 2237.15,1269.92 2238.88,1270.16 2240.62,1270.39 2242.36,1270.62 2244.09,1270.86 2245.83,1271.09 2247.56,1271.31 2249.3,1271.54 2251.04,1271.77 2252.77,1271.99 2254.51,1272.22 2256.25,1272.44 2257.98,1272.66 2259.72,1272.88 2261.45,1273.1 2263.19,1273.32 2264.93,1273.54 2266.66,1273.75 2268.4,1273.97 2270.14,1274.18 2271.87,1274.39 2273.61,1274.6 2275.35,1274.81 2277.08,1275.02 2278.82,1275.23 2280.55,1275.44 2282.29,1275.65 2284.03,1275.85 2285.76,1276.05 2287.5,1276.26 2289.24,1276.46 2290.97,1276.66 2292.71,1276.86 2294.44,1277.06 2296.18,1277.26 2297.92,1277.45 2299.65,1277.65 2301.39,1277.84 2303.13,1278.04 2304.86,1278.23 2306.6,1278.42 2308.33,1278.61 2310.07,1278.8 2311.81,1278.99 2313.54,1279.18 2315.28,1279.37 2317.02,1279.56 2318.75,1279.74 2320.49,1279.93 2322.22,1280.11 2323.96,1280.29 2325.7,1280.47 2327.43,1280.66 2329.17,1280.84 2330.91,1281.02 2332.64,1281.19 2334.38,1281.37 2336.11,1281.55 2337.85,1281.73 2339.59,1281.9 2341.32,1282.08 2343.06,1282.25 2344.8,1282.42 2346.53,1282.6 2348.27,1282.77 2350,1282.94 2351.74,1283.11 2353.48,1283.28 2355.21,1283.45 2356.95,1283.62 2358.69,1283.78 2360.42,1283.95 2362.16,1284.11 2363.89,1284.28 2365.63,1284.44 2367.37,1284.61 2369.1,1284.77 2370.84,1284.93 2372.58,1285.09 2374.31,1285.26 2376.05,1285.42 2377.78,1285.58 2379.52,1285.73 2381.26,1285.89 2382.99,1286.05 2384.73,1286.21 2386.47,1286.36 2388.2,1286.52 2389.94,1286.68 2391.67,1286.83 2393.41,1286.99 2395.15,1287.14 2396.88,1287.29 2398.62,1287.45 2400.36,1287.6 2402.09,1287.75 2403.83,1287.9 2405.56,1288.05 2407.3,1288.2 2409.04,1288.35 2410.77,1288.49 2412.51,1288.64 2414.25,1288.79 2415.98,1288.94 2417.72,1289.08 2419.46,1289.23 2421.19,1289.37 2422.93,1289.52 2424.66,1289.66 2426.4,1289.81 2428.14,1289.95 2429.87,1290.09 2431.61,1290.23 2433.35,1290.37 2435.08,1290.52 2436.82,1290.66 2438.55,1290.8 2440.29,1290.94 2442.03,1291.07 2443.76,1291.21 2445.5,1291.35 2447.24,1291.49 2448.97,1291.63 2450.71,1291.76 2452.44,1291.9 2454.18,1292.04 2455.92,1292.17 2457.65,1292.31 2459.39,1292.44 2461.13,1292.58 2462.86,1292.71 2464.6,1292.84 2466.33,1292.98 2468.07,1293.11 2469.81,1293.24 2471.54,1293.37 2473.28,1293.51 2475.02,1293.64 2476.75,1293.77 2478.49,1293.9 2480.22,1294.03 2481.96,1294.16 2483.7,1294.29 2485.43,1294.42 2487.17,1294.54 2488.91,1294.67 2490.64,1294.8 2492.38,1294.93 2494.11,1295.06 2495.85,1295.18 2497.59,1295.31 2499.32,1295.44 2501.06,1295.56 2502.8,1295.69 2504.53,1295.81 2506.27,1295.94 2508,1296.06 2509.74,1296.19 2511.48,1296.31 2513.21,1296.43 2514.95,1296.56 2516.69,1296.68 2518.42,1296.8 2520.16,1296.93 2521.89,1297.05 2523.63,1297.17 2525.37,1297.29 2527.1,1297.41 2528.84,1297.53 2530.58,1297.65 2532.31,1297.78 2534.05,1297.9 2535.78,1298.02 2537.52,1298.14 2539.26,1298.25 2540.99,1298.37 2542.73,1298.49 2544.47,1298.61 2546.2,1298.73 2547.94,1298.85 2549.68,1298.97 2551.41,1299.08 2553.15,1299.2 2554.88,1299.32 2556.62,1299.44 2558.36,1299.55 2560.09,1299.67 2561.83,1299.79 2563.57,1299.9 2565.3,1300.02 2567.04,1300.13 2568.77,1300.25 2570.51,1300.37 2572.25,1300.48 2573.98,1300.6 2575.72,1300.71 2577.46,1300.83 2579.19,1300.94 2580.93,1301.05 2582.66,1301.17 2584.4,1301.28 2586.14,1301.39 2587.87,1301.5 2589.61,1301.62 2591.35,1301.73 2593.08,1301.84 2594.82,1301.96 2596.55,1302.07 2598.29,1302.18 2600.03,1302.29 2601.76,1302.41 2603.5,1302.52 2605.24,1302.63 2606.97,1302.74 2608.71,1302.85 2610.44,1302.96 2612.18,1303.07 2613.92,1303.19 2615.65,1303.3 2617.39,1303.41 2619.13,1303.52 2620.86,1303.63 2622.6,1303.74 2624.33,1303.85 2626.07,1303.96 2627.81,1304.07 2629.54,1304.18 2631.28,1304.29 2633.02,1304.4 2634.75,1304.51 2636.49,1304.61 2638.22,1304.72 2639.96,1304.83 2641.7,1304.94 2643.43,1305.05 2645.17,1305.16 2646.91,1305.27 2648.64,1305.38 2650.38,1305.48 2652.11,1305.59 2653.85,1305.7 2655.59,1305.81 2657.32,1305.92 2659.06,1306.02 2660.8,1306.13 2662.53,1306.24 2664.27,1306.35 2666,1306.45 2667.74,1306.56 2669.48,1306.67 2671.21,1306.77 2672.95,1306.88 2674.69,1306.99 2676.42,1307.09 2678.16,1307.2 2679.89,1307.31 2681.63,1307.41 2683.37,1307.52 2685.1,1307.63 2686.84,1307.73 2688.58,1307.84 2690.31,1307.94 2692.05,1308.05 2693.79,1308.16 2695.52,1308.26 2697.26,1308.37 2698.99,1308.47 2700.73,1308.58 2702.47,1308.69 2704.2,1308.79 2705.94,1308.9 2707.68,1309 2709.41,1309.11 2711.15,1309.21 2712.88,1309.32 2714.62,1309.42 2716.36,1309.53 2718.09,1309.63 2719.83,1309.74 2721.57,1309.84 2723.3,1309.95 2725.04,1310.05 2726.77,1310.16 2728.51,1310.26 2730.25,1310.37 2731.98,1310.47 2733.72,1310.58 2735.46,1310.68 2737.19,1310.78 2738.93,1310.89 2740.66,1310.99 2742.4,1311.1 2744.14,1311.2 2745.87,1311.31 2747.61,1311.41 2749.35,1311.51 2751.08,1311.62 2752.82,1311.72 2754.55,1311.83 2756.29,1311.93 2758.03,1312.04 2759.76,1312.14 2761.5,1312.24 2763.24,1312.35 2764.97,1312.45 2766.71,1312.55 2768.44,1312.66 2770.18,1312.76 2771.92,1312.87 2773.65,1312.97 2775.39,1313.07 2777.13,1313.18 2778.86,1313.28 2780.6,1313.39 2782.33,1313.49 2784.07,1313.59 2785.81,1313.7 2787.54,1313.8 2789.28,1313.9 2791.02,1314.01 2792.75,1314.11 2794.49,1314.21 2796.22,1314.32 2797.96,1314.42 2799.7,1314.53 2801.43,1314.63 2803.17,1314.73 2804.91,1314.84 2806.64,1314.94 2808.38,1315.04 2810.11,1315.15 2811.85,1315.25 2813.59,1315.35 2815.32,1315.46 2817.06,1315.56 2818.8,1315.66 2820.53,1315.77 2822.27,1315.87 2824.01,1315.97 2825.74,1316.08 2827.48,1316.18 2829.21,1316.29 2830.95,1316.39 2832.69,1316.49 2834.42,1316.6 2836.16,1316.7 2837.9,1316.8 2839.63,1316.91 2841.37,1317.01 2843.1,1317.11 2844.84,1317.22 2846.58,1317.32 2848.31,1317.42 2850.05,1317.53 2851.79,1317.63 2853.52,1317.74 2855.26,1317.84 2856.99,1317.94 2858.73,1318.05 2860.47,1318.15 2862.2,1318.25 2863.94,1318.36 2865.68,1318.46 2867.41,1318.56 2869.15,1318.67 2870.88,1318.77 2872.62,1318.88 2874.36,1318.98 2876.09,1319.08 2877.83,1319.19 2879.57,1319.29 2881.3,1319.4 2883.04,1319.5 2884.77,1319.6 2886.51,1319.71 2888.25,1319.81 2889.98,1319.91 2891.72,1320.02 2893.46,1320.12 2895.19,1320.23 2896.93,1320.33 2898.66,1320.43 2900.4,1320.54 2902.14,1320.64 2903.87,1320.75 2905.61,1320.85 2907.35,1320.96 2909.08,1321.06 2910.82,1321.16 2912.55,1321.27 2914.29,1321.37 2916.03,1321.48 2917.76,1321.58 2919.5,1321.69 2921.24,1321.79 2922.97,1321.89 2924.71,1322 2926.44,1322.1 2928.18,1322.21 2929.92,1322.31 2931.65,1322.42 2933.39,1322.52 2935.13,1322.63 2936.86,1322.73 2938.6,1322.84 2940.33,1322.94 2942.07,1323.05 2943.81,1323.15 2945.54,1323.26 2947.28,1323.36 2949.02,1323.47 2950.75,1323.57 2952.49,1323.68 2954.22,1323.78 2955.96,1323.89 2957.7,1323.99 2959.43,1324.1 2961.17,1324.2 2962.91,1324.31 2964.64,1324.41 2966.38,1324.52 2968.12,1324.62 2969.85,1324.73 2971.59,1324.83 2973.32,1324.94 2975.06,1325.05 2976.8,1325.15 2978.53,1325.26 2980.27,1325.36 2982.01,1325.47 2983.74,1325.57 2985.48,1325.68 2987.21,1325.79 2988.95,1325.89 2990.69,1326 2992.42,1326.1 2994.16,1326.21 2995.9,1326.32 2997.63,1326.42 2999.37,1326.53 3001.1,1326.63 3002.84,1326.74 3004.58,1326.85 3006.31,1326.95 3008.05,1327.06 3009.79,1327.17 3011.52,1327.27 3013.26,1327.38 3014.99,1327.49 3016.73,1327.59 3018.47,1327.7 3020.2,1327.81 3021.94,1327.91 3023.68,1328.02 3025.41,1328.13 3027.15,1328.23 3028.88,1328.34 3030.62,1328.45 3032.36,1328.55 3034.09,1328.66 3035.83,1328.77 3037.57,1328.88 3039.3,1328.98 3041.04,1329.09 3042.77,1329.2 3044.51,1329.31 3046.25,1329.41 3047.98,1329.52 3049.72,1329.63 3051.46,1329.74 3053.19,1329.84 3054.93,1329.95 3056.66,1330.06 3058.4,1330.17 3060.14,1330.28 3061.87,1330.38 3063.61,1330.49 3065.35,1330.6 3067.08,1330.71 3068.82,1330.82 3070.55,1330.92 3072.29,1331.03 3074.03,1331.14 3075.76,1331.25 3077.5,1331.36 3079.24,1331.47 3080.97,1331.57 3082.71,1331.68 3084.44,1331.79 3086.18,1331.9 3087.92,1332.01 3089.65,1332.12 3091.39,1332.23 3093.13,1332.34 3094.86,1332.45 3096.6,1332.55 3098.34,1332.66 3100.07,1332.77 3101.81,1332.88 3103.54,1332.99 3105.28,1333.1 3107.02,1333.21 3108.75,1333.32 3110.49,1333.43 3112.23,1333.54 3113.96,1333.65 3115.7,1333.76 3117.43,1333.87 3119.17,1333.98 3120.91,1334.09 3122.64,1334.2 3124.38,1334.31 3126.12,1334.42 3127.85,1334.53 3129.59,1334.64 3131.32,1334.75 3133.06,1334.86 3134.8,1334.97 3136.53,1335.08 3138.27,1335.19 3140.01,1335.3 3141.74,1335.41 3143.48,1335.52 3145.21,1335.63 3146.95,1335.74 3148.69,1335.85 3150.42,1335.96 3152.16,1336.08 3153.9,1336.19 3155.63,1336.3 3157.37,1336.41 3159.1,1336.52 3160.84,1336.63 3162.58,1336.74 3164.31,1336.85 3166.05,1336.97 3167.79,1337.08 3169.52,1337.19 3171.26,1337.3 3172.99,1337.41 3174.73,1337.52 3176.47,1337.64 3178.2,1337.75 3179.94,1337.86 3181.68,1337.97 3183.41,1338.08 3185.15,1338.2 3186.88,1338.31 3188.62,1338.42 3190.36,1338.53 3192.09,1338.64 3193.83,1338.76 3195.57,1338.87 3197.3,1338.98 3199.04,1339.09 3200.77,1339.21 3202.51,1339.32 3204.25,1339.43 3205.98,1339.55 3207.72,1339.66 3209.46,1339.77 3211.19,1339.88 3212.93,1340 3214.66,1340.11 3216.4,1340.22 3218.14,1340.34 3219.87,1340.45 3221.61,1340.56 3223.35,1340.68 3225.08,1340.79 3226.82,1340.91 3228.55,1341.02 3230.29,1341.13 3232.03,1341.25 3233.76,1341.36 3235.5,1341.48 3237.24,1341.59 3238.97,1341.7 3240.71,1341.82 3242.45,1341.93 3244.18,1342.05 3245.92,1342.16 3247.65,1342.28 3249.39,1342.39 3251.13,1342.5 3252.86,1342.62 3254.6,1342.73 3256.34,1342.85 3258.07,1342.96 3259.81,1343.08 3261.54,1343.19 3263.28,1343.31 3265.02,1343.42 3266.75,1343.54 3268.49,1343.65 3270.23,1343.77 3271.96,1343.89 3273.7,1344 3275.43,1344.12 3277.17,1344.23 3278.91,1344.35 3280.64,1344.46 3282.38,1344.58 3284.12,1344.69 3285.85,1344.81 3287.59,1344.93 3289.32,1345.04 3291.06,1345.16 3292.8,1345.28 3294.53,1345.39 3296.27,1345.51 3298.01,1345.62 3299.74,1345.74 3301.48,1345.86 3303.21,1345.97 3304.95,1346.09 3306.69,1346.21 3308.42,1346.32 3310.16,1346.44 3311.9,1346.56 3313.63,1346.68 3315.37,1346.79 3317.1,1346.91 3318.84,1347.03 3320.58,1347.14 3322.31,1347.26 3324.05,1347.38 3325.79,1347.5 3327.52,1347.61 3329.26,1347.73 3330.99,1347.85 3332.73,1347.97 3334.47,1348.09 3336.2,1348.2 3337.94,1348.32 3339.68,1348.44 3341.41,1348.56 3343.15,1348.68 3344.88,1348.79 3346.62,1348.91 3348.36,1349.03 3350.09,1349.15 3351.83,1349.27 3353.57,1349.39 3355.3,1349.51 3357.04,1349.63 3358.77,1349.74 3360.51,1349.86 3362.25,1349.98 3363.98,1350.1 3365.72,1350.22 3367.46,1350.34 3369.19,1350.46 3370.93,1350.58 3372.66,1350.7 3374.4,1350.82 3376.14,1350.94 3377.87,1351.06 3379.61,1351.18 3381.35,1351.3 3383.08,1351.42 3384.82,1351.54 3386.56,1351.66 3388.29,1351.78 3390.03,1351.9 3391.76,1352.02 3393.5,1352.14 3395.24,1352.26 3396.97,1352.38 3398.71,1352.5 3400.45,1352.62 3402.18,1352.74 3403.92,1352.86 3405.65,1352.98 3407.39,1353.1 3409.13,1353.22 3410.86,1353.34 3412.6,1353.46 3414.34,1353.59 3416.07,1353.71 3417.81,1353.83 3419.54,1353.95 3421.28,1354.07 3423.02,1354.19 3424.75,1354.31 3426.49,1354.44 3428.23,1354.56 3429.96,1354.68 3431.7,1354.8 3433.43,1354.92 3435.17,1355.05 3436.91,1355.17 3438.64,1355.29 3440.38,1355.41 3442.12,1355.53 3443.85,1355.66 3445.59,1355.78 3447.32,1355.9 3449.06,1356.02 3450.8,1356.15 3452.53,1356.27 3454.27,1356.39 3456.01,1356.52 3457.74,1356.64 3459.48,1356.76 3461.21,1356.89 3462.95,1357.01 3464.69,1357.13 3466.42,1357.26 3468.16,1357.38 3469.9,1357.5 3471.63,1357.63 3473.37,1357.75 3475.1,1357.87 3476.84,1358 3478.58,1358.12 3480.31,1358.24 3482.05,1358.37 3483.79,1358.49 3485.52,1358.62 3487.26,1358.74 3488.99,1358.87 3490.73,1358.99 3492.47,1359.11 3494.2,1359.24 3495.94,1359.36 3497.68,1359.49 3499.41,1359.61 3501.15,1359.74 3502.88,1359.86 3504.62,1359.99 3506.36,1360.11 3508.09,1360.24 3509.83,1360.36 3511.57,1360.49 3513.3,1360.61 3515.04,1360.74 3516.78,1360.87 3518.51,1360.99 3520.25,1361.12 3521.98,1361.24 3523.72,1361.37 3525.46,1361.49 3527.19,1361.62 3528.93,1361.75 3530.67,1361.87 3532.4,1362 3534.14,1362.12 3535.87,1362.25 3537.61,1362.38 3539.35,1362.5 3541.08,1362.63 3542.82,1362.76 3544.56,1362.88 3546.29,1363.01 3548.03,1363.14 3549.76,1363.26 3551.5,1363.39 3553.24,1363.52 3554.97,1363.65 3556.71,1363.77 3558.45,1363.9 3560.18,1364.03 3561.92,1364.15 3563.65,1364.28 3565.39,1364.41 3567.13,1364.54 3568.86,1364.67 3570.6,1364.79 3572.34,1364.92 3574.07,1365.05 3575.81,1365.18 3577.54,1365.31 3579.28,1365.43 3581.02,1365.56 3582.75,1365.69 3584.49,1365.82 3586.23,1365.95 3587.96,1366.08 3589.7,1366.21 3591.43,1366.33 3593.17,1366.46 3594.91,1366.59 3596.64,1366.72 3598.38,1366.85 3600.12,1366.98 3601.85,1367.11 3603.59,1367.24 3605.32,1367.37 3607.06,1367.5 3608.8,1367.63 3610.53,1367.76 3612.27,1367.89 3614.01,1368.02 3615.74,1368.15 3617.48,1368.28 3619.21,1368.41 3620.95,1368.54 3622.69,1368.67 3624.42,1368.8 3626.16,1368.93 3627.9,1369.06 3629.63,1369.19 3631.37,1369.32 3633.1,1369.45 3634.84,1369.58 3636.58,1369.71 3638.31,1369.84 3640.05,1369.97 3641.79,1370.1 3643.52,1370.23 3645.26,1370.37 3646.99,1370.5 3648.73,1370.63 3650.47,1370.76 3652.2,1370.89 3653.94,1371.02 3655.68,1371.15 3657.41,1371.29 3659.15,1371.42 3660.89,1371.55 3662.62,1371.68 3664.36,1371.81 3666.09,1371.95 3667.83,1372.08 3669.57,1372.21 3671.3,1372.34 3673.04,1372.48 3674.78,1372.61 3676.51,1372.74 3678.25,1372.87 3679.98,1373.01 3681.72,1373.14 3683.46,1373.27 3685.19,1373.4 3686.93,1373.54 3688.67,1373.67 3690.4,1373.8 3692.14,1373.94 3693.87,1374.07 3695.61,1374.2 3697.35,1374.34 3699.08,1374.47 3700.82,1374.61 3702.56,1374.74 3704.29,1374.87 3706.03,1375.01 3707.76,1375.14 3709.5,1375.27 3711.24,1375.41 3712.97,1375.54 3714.71,1375.68 3716.45,1375.81 3718.18,1375.95 3719.92,1376.08 3721.65,1376.22 3723.39,1376.35 3725.13,1376.49 3726.86,1376.62 3728.6,1376.76 3730.34,1376.89 3732.07,1377.03 3733.81,1377.16 3735.54,1377.3 3737.28,1377.43 3739.02,1377.57 3740.75,1377.7 3742.49,1377.84 3744.23,1377.97 3745.96,1378.11 3747.7,1378.25 3749.43,1378.38 3751.17,1378.52 3752.91,1378.65 3754.64,1378.79 3756.38,1378.93 3758.12,1379.06 3759.85,1379.2 3761.59,1379.33 3763.32,1379.47 3765.06,1379.61 3766.8,1379.74 3768.53,1379.88 3770.27,1380.02 3772.01,1380.16 3773.74,1380.29 3775.48,1380.43 3777.21,1380.57 3778.95,1380.71 3780.69,1380.85 3782.42,1380.99 3784.16,1381.12 3785.9,1381.26 3787.63,1381.4 3789.37,1381.54 3791.11,1381.67 3792.84,1381.81 3794.58,1381.95 3796.31,1382.09 3798.05,1382.23 3799.79,1382.36 3801.52,1382.5 3803.26,1382.64 3805,1382.78 3806.73,1382.92 3808.47,1383.06 3810.2,1383.2 3811.94,1383.33 3813.68,1383.47 3815.41,1383.61 3817.15,1383.75 3818.89,1383.89 3820.62,1384.03 3822.36,1384.17 3824.09,1384.31 3825.83,1384.45 3827.57,1384.59 3829.3,1384.73 3831.04,1384.87 3832.78,1385.01 3834.51,1385.15 3836.25,1385.29 3837.98,1385.43 3839.72,1385.57 3841.46,1385.71 3843.19,1385.85 3844.93,1385.99 3846.67,1386.13 3848.4,1386.27 3850.14,1386.41 3851.87,1386.55 3853.61,1386.69 3855.35,1386.83 3857.08,1386.97 3858.82,1387.11 3860.56,1387.25 3862.29,1387.4 3864.03,1387.54 3865.76,1387.68 3867.5,1387.82 3869.24,1387.96 3870.97,1388.1 3872.71,1388.24 3874.45,1388.39 3876.18,1388.53 3877.92,1388.67 3879.65,1388.81 3881.39,1388.95 3883.13,1389.1 3884.86,1389.24 3886.6,1389.38 3888.34,1389.52 3890.07,1389.67 3891.81,1389.81 3893.54,1389.95 3895.28,1390.09 3897.02,1390.24 3898.75,1390.38 3900.49,1390.52 3902.23,1390.67 3903.96,1390.81 3905.7,1390.95 3907.43,1391.1 3909.17,1391.24 3910.91,1391.38 3912.64,1391.53 3914.38,1391.67 3916.12,1391.81 3917.85,1391.96 3919.59,1392.1 3921.32,1392.25 3923.06,1392.39 3924.8,1392.53 3926.53,1392.68 3928.27,1392.82 3930.01,1392.97 3931.74,1393.11 3933.48,1393.26 3935.22,1393.4 3936.95,1393.55 3938.69,1393.69 3940.42,1393.84 3942.16,1393.98 3943.9,1394.13 3945.63,1394.27 3947.37,1394.42 3949.11,1394.56 3950.84,1394.71 3952.58,1394.85 3954.31,1395 3956.05,1395.14 3957.79,1395.29 3959.52,1395.44 3961.26,1395.58 3963,1395.73 3964.73,1395.87 3966.47,1396.02 3968.2,1396.17 3969.94,1396.31 3971.68,1396.46 3973.41,1396.61 3975.15,1396.75 3976.89,1396.9 3978.62,1397.05 3980.36,1397.19 3982.09,1397.34 3983.83,1397.49 3985.57,1397.63 3987.3,1397.78 3989.04,1397.93 3990.78,1398.08 3992.51,1398.22 3994.25,1398.37 3995.98,1398.52 3997.72,1398.67 3999.46,1398.81 4001.19,1398.96 4002.93,1399.11 4004.67,1399.26 4006.4,1399.41 4008.14,1399.55 4009.87,1399.7 4011.61,1399.85 4013.35,1400 4015.08,1400.15 4016.82,1400.3 4018.56,1400.45 4020.29,1400.59 4022.03,1400.74 4023.76,1400.89 4025.5,1401.04 4027.24,1401.19 4028.97,1401.34 4030.71,1401.49 4032.45,1401.64 4034.18,1401.79 4035.92,1401.94 4037.65,1402.09 4039.39,1402.24 4041.13,1402.39 4042.86,1402.54 4044.6,1402.69 4046.34,1402.84 4048.07,1402.99 4049.81,1403.14 4051.54,1403.29 4053.28,1403.44 4055.02,1403.59 4056.75,1403.74 4058.49,1403.89 4060.23,1404.04 4061.96,1404.19 4063.7,1404.34 4065.44,1404.49 4067.17,1404.65 4068.91,1404.8 4070.64,1404.95 4072.38,1405.1 4074.12,1405.25 4075.85,1405.4 4077.59,1405.55 4079.33,1405.71 4081.06,1405.86 4082.8,1406.01 4084.53,1406.16 4086.27,1406.31 4088.01,1406.47 4089.74,1406.62 4091.48,1406.77 4093.22,1406.92 4094.95,1407.08 4096.69,1407.23 4098.42,1407.38 4100.16,1407.53 4101.9,1407.69 4103.63,1407.84 4105.37,1407.99 4107.11,1408.15 4108.84,1408.3 4110.58,1408.45 4112.31,1408.61 4114.05,1408.76 4115.79,1408.91 4117.52,1409.07 4119.26,1409.22 4121,1409.37 4122.73,1409.53 4124.47,1409.68 4126.2,1409.84 4127.94,1409.99 4129.68,1410.14 4131.41,1410.3 4133.15,1410.45 4134.89,1410.61 4136.62,1410.76 4138.36,1410.92 4140.09,1411.07 4141.83,1411.23 4143.57,1411.38 4145.3,1411.54 4147.04,1411.69 4148.78,1411.85 4150.51,1412 4152.25,1412.16 4153.98,1412.31 4155.72,1412.47 4157.46,1412.63 4159.19,1412.78 4160.93,1412.94 4162.67,1413.09 4164.4,1413.25 4166.14,1413.41 4167.87,1413.56 4169.61,1413.72 4171.35,1413.87 4173.08,1414.03 4174.82,1414.19 4176.56,1414.34 4178.29,1414.5 4180.03,1414.66 4181.76,1414.81 4183.5,1414.97 4185.24,1415.13 4186.97,1415.29 4188.71,1415.44 4190.45,1415.6 4192.18,1415.76 4193.92,1415.91 4195.65,1416.07 4197.39,1416.23 4199.13,1416.39 4200.86,1416.55 4202.6,1416.7 4204.34,1416.86 4206.07,1417.02 4207.81,1417.18 4209.55,1417.34 4211.28,1417.49 4213.02,1417.65 4214.75,1417.81 4216.49,1417.97 4218.23,1418.13 4219.96,1418.29 4221.7,1418.45 4223.44,1418.61 4225.17,1418.77 4226.91,1418.92 4228.64,1419.08 4230.38,1419.24 4232.12,1419.4 4233.85,1419.56 4235.59,1419.72 4237.33,1419.88 4239.06,1420.04 4240.8,1420.2 4242.53,1420.36 4244.27,1420.52 4246.01,1420.68 4247.74,1420.84 4249.48,1421 4251.22,1421.16 4252.95,1421.32 4254.69,1421.48 4256.42,1421.64 4258.16,1421.81 4259.9,1421.97 4261.63,1422.13 4263.37,1422.29 4265.11,1422.45 4266.84,1422.61 4268.58,1422.77 4270.31,1422.93 4272.05,1423.1 4273.79,1423.26 4275.52,1423.42 4277.26,1423.58 4279,1423.74 4280.73,1423.9 4282.47,1424.07 4284.2,1424.23 4285.94,1424.39 4287.68,1424.55 4289.41,1424.72 4291.15,1424.88 4292.89,1425.04 4294.62,1425.2 4296.36,1425.37 4298.09,1425.53 4299.83,1425.69 4301.57,1425.85 4303.3,1426.02 4305.04,1426.18 4306.78,1426.34 4308.51,1426.51 4310.25,1426.67 4311.98,1426.84 4313.72,1427 4315.46,1427.16 4317.19,1427.33 4318.93,1427.49 4320.67,1427.65 4322.4,1427.82 4324.14,1427.98 4325.87,1428.15 4327.61,1428.31 4329.35,1428.48 4331.08,1428.64 4332.82,1428.81 4334.56,1428.97 4336.29,1429.13 4338.03,1429.3 4339.77,1429.46 4341.5,1429.63 4343.24,1429.8 4344.97,1429.96 4346.71,1430.13 4348.45,1430.29 4350.18,1430.46 4351.92,1430.62 4353.66,1430.79 4355.39,1430.95 4357.13,1431.12 4358.86,1431.29 4360.6,1431.45 4362.34,1431.62 4364.07,1431.78 4365.81,1431.95 4367.55,1432.12 4369.28,1432.28 4371.02,1432.45 4372.75,1432.62 4374.49,1432.78 4376.23,1432.95 4377.96,1433.12 4379.7,1433.29 4381.44,1433.45 4383.17,1433.62 4384.91,1433.79 4386.64,1433.96 4388.38,1434.12 4390.12,1434.29 4391.85,1434.46 4393.59,1434.63 4395.33,1434.79 4397.06,1434.96 4398.8,1435.13 4400.53,1435.3 4402.27,1435.47 4404.01,1435.64 4405.74,1435.8 4407.48,1435.97 4409.22,1436.14 4410.95,1436.31 4412.69,1436.48 4414.42,1436.65 4416.16,1436.82 4417.9,1436.99 4419.63,1437.16 4421.37,1437.32 4423.11,1437.49 4424.84,1437.66 4426.58,1437.83 4428.31,1438 4430.05,1438.17 4431.79,1438.34 4433.52,1438.51 4435.26,1438.68 4437,1438.85 4438.73,1439.02 4440.47,1439.19 4442.2,1439.36 4443.94,1439.53 4445.68,1439.71 4447.41,1439.88 4449.15,1440.05 4450.89,1440.22 4452.62,1440.39 4454.36,1440.56 4456.09,1440.73 4457.83,1440.9 4459.57,1441.07 4461.3,1441.25 4463.04,1441.42 4464.78,1441.59 4466.51,1441.76 4468.25,1441.93 4469.98,1442.1 4471.72,1442.28 4473.46,1442.45 4475.19,1442.62 4476.93,1442.79 4478.67,1442.97 4480.4,1443.14 4482.14,1443.31 4483.88,1443.48 4485.61,1443.66 4487.35,1443.83 4489.08,1444 4490.82,1444.17 4492.56,1444.35 4494.29,1444.52 4496.03,1444.69 4497.77,1444.87 4499.5,1445.04 4501.24,1445.21 4502.97,1445.39 4504.71,1445.56 4506.45,1445.74 4508.18,1445.91 4509.92,1446.08 4511.66,1446.26 4513.39,1446.43 4515.13,1446.61 4516.86,1446.78 4518.6,1446.96 4520.34,1447.13 4522.07,1447.31 4523.81,1447.48 4525.55,1447.66 4527.28,1447.83 4529.02,1448.01 4530.75,1448.18 4532.49,1448.36 4534.23,1448.53 4535.96,1448.71 4537.7,1448.88 4539.44,1449.06 4541.17,1449.23 4542.91,1449.41 4544.64,1449.59 4546.38,1449.76 4548.12,1449.94 4549.85,1450.11 4551.59,1450.29 4553.33,1450.47 4555.06,1450.64 4556.8,1450.82 4558.53,1451 4560.27,1451.17 4562.01,1451.35 4563.74,1451.53 4565.48,1451.71 4567.22,1451.88 4568.95,1452.06 4570.69,1452.24 4572.42,1452.41 4574.16,1452.59 4575.9,1452.77 4577.63,1452.95 4579.37,1453.13 4581.11,1453.3 4582.84,1453.48 4584.58,1453.66 4586.31,1453.84 4588.05,1454.02 4589.79,1454.19 4591.52,1454.37 4593.26,1454.55 4595,1454.73 4596.73,1454.91 4598.47,1455.09 4600.2,1455.27 4601.94,1455.45 4603.68,1455.63 4605.41,1455.81 4607.15,1455.98 4608.89,1456.16 4610.62,1456.34 4612.36,1456.52 4614.1,1456.7 4615.83,1456.88 4617.57,1457.06 4619.3,1457.24 4621.04,1457.42 4622.78,1457.6 4624.51,1457.78 4626.25,1457.96 4627.99,1458.14 4629.72,1458.33 4631.46,1458.51 4633.19,1458.69 4634.93,1458.87 4636.67,1459.05 4638.4,1459.23 4640.14,1459.41 4641.88,1459.59 4643.61,1459.77 4645.35,1459.96 4647.08,1460.14 4648.82,1460.32 4650.56,1460.5 4652.29,1460.68 4654.03,1460.86 4655.77,1461.05 4657.5,1461.23 4659.24,1461.41 4660.97,1461.59 4662.71,1461.78 4664.45,1461.96 4666.18,1462.14 4667.92,1462.32 4669.66,1462.51 4671.39,1462.69 4673.13,1462.87 4674.86,1463.06 4676.6,1463.24 4678.34,1463.42 4680.07,1463.61 4681.81,1463.79 4683.55,1463.97 4685.28,1464.16 4687.02,1464.34 4688.75,1464.53 4690.49,1464.71 4692.23,1464.89 4693.96,1465.08 4695.7,1465.26 4697.44,1465.45 4699.17,1465.63 4700.91,1465.82 4702.64,1466 4704.38,1466.19 4706.12,1466.37 4707.85,1466.56 4709.59,1466.74 4711.33,1466.93 4713.06,1467.11 4714.8,1467.3 4716.53,1467.48 4718.27,1467.67 4720.01,1467.85 4721.74,1468.04 4723.48,1468.23 4725.22,1468.41 4726.95,1468.6 4728.69,1468.78 4730.42,1468.97 4732.16,1469.16 4733.9,1469.34 4735.63,1469.53 4737.37,1469.72 4739.11,1469.9 4740.84,1470.09 4742.58,1470.27 4744.31,1470.46 4746.05,1470.65 4747.79,1470.84 4749.52,1471.02 4751.26,1471.21 4753,1471.4 4754.73,1471.59 4756.47,1471.77 4758.21,1471.96 4759.94,1472.15 4761.68,1472.34 4763.41,1472.53 4765.15,1472.71 4766.89,1472.9 4768.62,1473.09 4770.36,1473.28 4772.1,1473.47 4773.83,1473.66 4775.57,1473.85 4777.3,1474.04 4779.04,1474.22 4780.78,1474.41 4782.51,1474.6 4784.25,1474.79 4785.99,1474.98 4787.72,1475.17 4789.46,1475.36 4791.19,1475.55 4792.93,1475.74 4794.67,1475.93 4796.4,1476.12 4798.14,1476.31 4799.88,1476.5 4801.61,1476.69 4803.35,1476.88 4805.08,1477.07 4806.82,1477.26 4808.56,1477.45 4810.29,1477.65 4812.03,1477.84 4813.77,1478.03 4815.5,1478.22 4817.24,1478.41 4818.97,1478.6 4820.71,1478.79 4822.45,1478.98 4824.18,1479.18 4825.92,1479.37 4827.66,1479.56 4829.39,1479.75 4831.13,1479.94 4832.86,1480.14 4834.6,1480.33 4836.34,1480.52 4838.07,1480.71 4839.81,1480.91 4841.55,1481.1 4843.28,1481.29 4845.02,1481.49 4846.75,1481.68 4848.49,1481.87 4850.23,1482.06 4851.96,1482.26 4853.7,1482.45 4855.44,1482.64 4857.17,1482.84 4858.91,1483.03 4860.64,1483.23 4862.38,1483.42 4864.12,1483.61 4865.85,1483.81 4867.59,1484 4869.33,1484.2 4871.06,1484.39 4872.8,1484.59 4874.53,1484.78 4876.27,1484.98 4878.01,1485.17 4879.74,1485.37 4881.48,1485.56 4883.22,1485.76 4884.95,1485.95 4886.69,1486.15 4888.42,1486.34 4890.16,1486.54 4891.9,1486.73 4893.63,1486.93 4895.37,1487.13 4897.11,1487.32 4898.84,1487.52 4900.58,1487.71 4902.32,1487.91 4904.05,1488.11 4905.79,1488.3 4907.52,1488.5 4909.26,1488.7 4911,1488.89 4912.73,1489.09 4914.47,1489.29 4916.21,1489.48 4917.94,1489.68 4919.68,1489.88 4921.41,1490.07 4923.15,1490.27 4924.89,1490.47 4926.62,1490.67 4928.36,1490.87 4930.1,1491.06 4931.83,1491.26 4933.57,1491.46 4935.3,1491.66 4937.04,1491.86 4938.78,1492.05 4940.51,1492.25 4942.25,1492.45 4943.99,1492.65 4945.72,1492.85 4947.46,1493.05 4949.19,1493.25 4950.93,1493.45 4952.67,1493.65 4954.4,1493.85 4956.14,1494.05 4957.88,1494.25 4959.61,1494.45 4961.35,1494.65 4963.08,1494.85 4964.82,1495.05 4966.56,1495.25 4968.29,1495.45 4970.03,1495.65 4971.77,1495.85 4973.5,1496.05 4975.24,1496.25 4976.97,1496.45 4978.71,1496.65 4980.45,1496.85 4982.18,1497.05 4983.92,1497.25 4985.66,1497.46 4987.39,1497.66 4989.13,1497.86 4990.86,1498.06 4992.6,1498.26 4994.34,1498.46 4996.07,1498.67 4997.81,1498.87 4999.55,1499.07 5001.28,1499.27 5003.02,1499.47 5004.75,1499.68 5006.49,1499.88 5008.23,1500.08 5009.96,1500.29 5011.7,1500.49 5013.44,1500.69 5015.17,1500.89 5016.91,1501.1 5018.64,1501.3 5020.38,1501.51 5022.12,1501.71 5023.85,1501.91 5025.59,1502.12 5027.33,1502.32 5029.06,1502.52 5030.8,1502.73 5032.54,1502.93 5034.27,1503.14 5036.01,1503.34 5037.74,1503.55 5039.48,1503.75 5041.22,1503.96 5042.95,1504.16 5044.69,1504.37 5046.43,1504.57 5048.16,1504.78 5049.9,1504.98 5051.63,1505.19 5053.37,1505.39 5055.11,1505.6 5056.84,1505.8 5058.58,1506.01 5060.32,1506.22 5062.05,1506.42 5063.79,1506.63 5065.52,1506.83 5067.26,1507.04 5069,1507.25 5070.73,1507.45 5072.47,1507.66 5074.21,1507.87 5075.94,1508.08 5077.68,1508.28 5079.41,1508.49 5081.15,1508.7 5082.89,1508.9 5084.62,1509.11 5086.36,1509.32 5088.1,1509.53 5089.83,1509.74 5091.57,1509.94 5093.3,1510.15 5095.04,1510.36 5096.78,1510.57 5098.51,1510.78 5100.25,1510.99 5101.99,1511.19 5103.72,1511.4 5105.46,1511.61 5107.19,1511.82 5108.93,1512.03 5110.67,1512.24 5112.4,1512.45 5114.14,1512.66 5115.88,1512.87 5117.61,1513.08 5119.35,1513.29 5121.08,1513.5 5122.82,1513.71 5124.56,1513.92 5126.29,1514.13 5128.03,1514.34 5129.77,1514.55 5131.5,1514.76 5133.24,1514.97 5134.97,1515.18 5136.71,1515.39 5138.45,1515.6 5140.18,1515.81 5141.92,1516.03 5143.66,1516.24 5145.39,1516.45 5147.13,1516.66 5148.86,1516.87 5150.6,1517.08 5152.34,1517.3 5154.07,1517.51 5155.81,1517.72 5157.55,1517.93 5159.28,1518.15 5161.02,1518.36 5162.75,1518.57 5164.49,1518.78 5166.23,1519 5167.96,1519.21 5169.7,1519.42 5171.44,1519.64 5173.17,1519.85 5174.91,1520.06 5176.65,1520.28 5178.38,1520.49 5180.12,1520.7 5181.85,1520.92 5183.59,1521.13 5185.33,1521.35 5187.06,1521.56 5188.8,1521.78 5190.54,1521.99 5192.27,1522.2 5194.01,1522.42 5195.74,1522.63 5197.48,1522.85 5199.22,1523.06 5200.95,1523.28 5202.69,1523.5 5204.43,1523.71 5206.16,1523.93 5207.9,1524.14 5209.63,1524.36 5211.37,1524.57 5213.11,1524.79 5214.84,1525.01 5216.58,1525.22 5218.32,1525.44 5220.05,1525.66 5221.79,1525.87 5223.52,1526.09 5225.26,1526.31 5227,1526.52 5228.73,1526.74 5230.47,1526.96 5232.21,1527.18 5233.94,1527.39 5235.68,1527.61 5237.41,1527.83 5239.15,1528.05 5240.89,1528.26 5242.62,1528.48 5244.36,1528.7 5246.1,1528.92 5247.83,1529.14 5249.57,1529.36 5251.3,1529.57 5253.04,1529.79 5254.78,1530.01 5256.51,1530.23 5258.25,1530.45 5259.99,1530.67 5261.72,1530.89 5263.46,1531.11 5265.19,1531.33 5266.93,1531.55 5268.67,1531.77 5270.4,1531.99 5272.14,1532.21 5273.88,1532.43 5275.61,1532.65 5277.35,1532.87 5279.08,1533.09 5280.82,1533.31 5282.56,1533.53 5284.29,1533.75 5286.03,1533.98 5287.77,1534.2 5289.5,1534.42 5291.24,1534.64 5292.97,1534.86 5294.71,1535.08 5296.45,1535.31 5298.18,1535.53 5299.92,1535.75 5301.66,1535.97 5303.39,1536.2 5305.13,1536.42 5306.87,1536.64 5308.6,1536.86 5310.34,1537.09 5312.07,1537.31 5313.81,1537.53 5315.55,1537.76 5317.28,1537.98 5319.02,1538.2 5320.76,1538.43 5322.49,1538.65 5324.23,1538.87 5325.96,1539.1 5327.7,1539.32 5329.44,1539.55 5331.17,1539.77 5332.91,1540 5334.65,1540.22 5336.38,1540.45 5338.12,1540.67 5339.85,1540.9 5341.59,1541.12 5343.33,1541.35 5345.06,1541.57 5346.8,1541.8 5348.54,1542.02 5350.27,1542.25 5352.01,1542.48 5353.74,1542.7 5355.48,1542.93 5357.22,1543.16 5358.95,1543.38 5360.69,1543.61 5362.43,1543.84 5364.16,1544.06 5365.9,1544.29 5367.63,1544.52 5369.37,1544.74 5371.11,1544.97 5372.84,1545.2 5374.58,1545.43 5376.32,1545.66 5378.05,1545.88 5379.79,1546.11 5381.52,1546.34 5383.26,1546.57 5385,1546.8 5386.73,1547.03 5388.47,1547.25 5390.21,1547.48 5391.94,1547.71 5393.68,1547.94 5395.41,1548.17 5397.15,1548.4 5398.89,1548.63 5400.62,1548.86 5402.36,1549.09 5404.1,1549.32 5405.83,1549.55 5407.57,1549.78 5409.3,1550.01 5411.04,1550.24 5412.78,1550.47 5414.51,1550.7 5416.25,1550.93 5417.99,1551.16 5419.72,1551.4 5421.46,1551.63 5423.19,1551.86 5424.93,1552.09 5426.67,1552.32 5428.4,1552.55 5430.14,1552.79 5431.88,1553.02 5433.61,1553.25 5435.35,1553.48 5437.08,1553.72 5438.82,1553.95 5440.56,1554.18 5442.29,1554.41 5444.03,1554.65 5445.77,1554.88 5447.5,1555.11 5449.24,1555.35 5450.98,1555.58 5452.71,1555.82 5454.45,1556.05 5456.18,1556.28 5457.92,1556.52 5459.66,1556.75 5461.39,1556.99 5463.13,1557.22 5464.87,1557.46 5466.6,1557.69 5468.34,1557.93 5470.07,1558.16 5471.81,1558.4 5473.55,1558.63 5475.28,1558.87 5477.02,1559.11 5478.76,1559.34 5480.49,1559.58 5482.23,1559.81 5483.96,1560.05 5485.7,1560.29 5487.44,1560.52 5489.17,1560.76 5490.91,1561 5492.65,1561.24 5494.38,1561.47 5496.12,1561.71 5497.85,1561.95 5499.59,1562.19 5501.33,1562.42 5503.06,1562.66 5504.8,1562.9 5506.54,1563.14 5508.27,1563.37 5510.01,1563.61 5511.74,1563.85 5513.48,1564.09 5515.22,1564.33 5516.95,1564.57 5518.69,1564.81 5520.43,1565.05 5522.16,1565.29 5523.9,1565.53 5525.63,1565.77 5527.37,1566.01 5529.11,1566.25 5530.84,1566.49 5532.58,1566.73 5534.32,1566.97 5536.05,1567.21 5537.79,1567.45 5539.52,1567.69 5541.26,1567.94 5543,1568.18 5544.73,1568.42 5546.47,1568.66 5548.21,1568.9 5549.94,1569.14 5551.68,1569.39 5553.41,1569.63 5555.15,1569.87 5556.89,1570.11 5558.62,1570.36 5560.36,1570.6 5562.1,1570.84 5563.83,1571.09 5565.57,1571.33 5567.3,1571.57 5569.04,1571.82 5570.78,1572.06 5572.51,1572.31 5574.25,1572.55 5575.99,1572.79 5577.72,1573.04 5579.46,1573.28 5581.2,1573.53 5582.93,1573.77 5584.67,1574.02 5586.4,1574.26 5588.14,1574.51 5589.88,1574.75 5591.61,1575 5593.35,1575.24 5595.09,1575.49 5596.82,1575.74 5598.56,1575.98 5600.29,1576.23 5602.03,1576.48 5603.77,1576.72 5605.5,1576.97 5607.24,1577.22 5608.98,1577.47 5610.71,1577.71 5612.45,1577.96 5614.18,1578.21 5615.92,1578.46 5617.66,1578.71 5619.39,1578.95 5621.13,1579.2 5622.87,1579.45 5624.6,1579.7 5626.34,1579.95 5628.07,1580.2 5629.81,1580.45 5631.55,1580.7 5633.28,1580.95 5635.02,1581.2 5636.76,1581.45 5638.49,1581.7 5640.23,1581.95 5641.96,1582.2 5643.7,1582.45 5645.44,1582.7 5647.17,1582.95 5648.91,1583.2 5650.65,1583.45 5652.38,1583.7 5654.12,1583.95 5655.85,1584.21 5657.59,1584.46 5659.33,1584.71 5661.06,1584.96 5662.8,1585.21 5664.54,1585.47 5666.27,1585.72 5668.01,1585.97 5669.74,1586.22 5671.48,1586.48 5673.22,1586.73 5674.95,1586.99 5676.69,1587.24 5678.43,1587.49 5680.16,1587.75 5681.9,1588 5683.63,1588.26 5685.37,1588.51 5687.11,1588.76 5688.84,1589.02 5690.58,1589.27 5692.32,1589.53 5694.05,1589.78 5695.79,1590.04 5697.52,1590.3 5699.26,1590.55 5701,1590.81 5702.73,1591.07 5704.47,1591.32 5706.21,1591.58 5707.94,1591.83 5709.68,1592.09 5711.41,1592.35 5713.15,1592.61 5714.89,1592.86 5716.62,1593.12 5718.36,1593.38 5720.1,1593.64 5721.83,1593.9 5723.57,1594.15 5725.31,1594.41 5727.04,1594.67 5728.78,1594.93 5730.51,1595.19 5732.25,1595.45 5733.99,1595.71 5735.72,1595.97 5737.46,1596.23 5739.2,1596.49 5740.93,1596.75 5742.67,1597.01 5744.4,1597.27 5746.14,1597.53 5747.88,1597.79 5749.61,1598.05 5751.35,1598.31 5753.09,1598.57 5754.82,1598.84 5756.56,1599.1 5758.29,1599.36 5760.03,1599.62 5761.77,1599.88 5763.5,1600.15 5765.24,1600.41 5766.98,1600.67 5768.71,1600.93 5770.45,1601.2 5772.18,1601.46 5773.92,1601.73 5775.66,1601.99 5777.39,1602.25 5779.13,1602.52 5780.87,1602.78 5782.6,1603.05 5784.34,1603.31 5786.07,1603.58 5787.81,1603.84 5789.55,1604.11 5791.28,1604.37 5793.02,1604.64 5794.76,1604.9 5796.49,1604.9 "/>
<polyline clip-path="url(#clip882)" style="stroke:#e26f46; stroke-linecap:round; stroke-linejoin:round; stroke-width:8; stroke-opacity:1; fill:none" stroke-dasharray="32, 20" points="934.948,3253.3 934.948,-1555.78 "/>
<polyline clip-path="url(#clip882)" style="stroke:#e26f46; stroke-linecap:round; stroke-linejoin:round; stroke-width:8; stroke-opacity:1; fill:none" stroke-dasharray="32, 20" points="1803.08,3253.3 1803.08,-1555.78 "/>
<polyline clip-path="url(#clip882)" style="stroke:#e26f46; stroke-linecap:round; stroke-linejoin:round; stroke-width:8; stroke-opacity:1; fill:none" stroke-dasharray="32, 20" points="5796.49,3253.3 5796.49,-1555.78 "/>
</svg>
