<?xml version="1.0" encoding="utf-8"?>
<svg xmlns="http://www.w3.org/2000/svg" xmlns:xlink="http://www.w3.org/1999/xlink" width="1500" height="500" viewBox="0 0 6000 2000">
<defs>
  <clipPath id="clip800">
    <rect x="0" y="0" width="6000" height="2000"/>
  </clipPath>
</defs>
<path clip-path="url(#clip800)" d="M0 2000 L6000 2000 L6000 0 L0 0  Z" fill="#ffffff" fill-rule="evenodd" fill-opacity="1"/>
<defs>
  <clipPath id="clip801">
    <rect x="1200" y="0" width="4201" height="2000"/>
  </clipPath>
</defs>
<path clip-path="url(#clip800)" d="M431.431 1650.27 L5952.76 1650.27 L5952.76 47.2441 L431.431 47.2441  Z" fill="#ffffff" fill-rule="evenodd" fill-opacity="1"/>
<defs>
  <clipPath id="clip802">
    <rect x="431" y="47" width="5522" height="1604"/>
  </clipPath>
</defs>
<polyline clip-path="url(#clip802)" style="stroke:#000000; stroke-linecap:round; stroke-linejoin:round; stroke-width:2; stroke-opacity:0.1; fill:none" points="587.695,1650.27 587.695,47.2441 "/>
<polyline clip-path="url(#clip802)" style="stroke:#000000; stroke-linecap:round; stroke-linejoin:round; stroke-width:2; stroke-opacity:0.1; fill:none" points="2323.96,1650.27 2323.96,47.2441 "/>
<polyline clip-path="url(#clip802)" style="stroke:#000000; stroke-linecap:round; stroke-linejoin:round; stroke-width:2; stroke-opacity:0.1; fill:none" points="4060.23,1650.27 4060.23,47.2441 "/>
<polyline clip-path="url(#clip802)" style="stroke:#000000; stroke-linecap:round; stroke-linejoin:round; stroke-width:2; stroke-opacity:0.1; fill:none" points="5796.49,1650.27 5796.49,47.2441 "/>
<polyline clip-path="url(#clip800)" style="stroke:#000000; stroke-linecap:round; stroke-linejoin:round; stroke-width:4; stroke-opacity:1; fill:none" points="431.431,1650.27 5952.76,1650.27 "/>
<polyline clip-path="url(#clip800)" style="stroke:#000000; stroke-linecap:round; stroke-linejoin:round; stroke-width:4; stroke-opacity:1; fill:none" points="587.695,1650.27 587.695,1631.37 "/>
<polyline clip-path="url(#clip800)" style="stroke:#000000; stroke-linecap:round; stroke-linejoin:round; stroke-width:4; stroke-opacity:1; fill:none" points="2323.96,1650.27 2323.96,1631.37 "/>
<polyline clip-path="url(#clip800)" style="stroke:#000000; stroke-linecap:round; stroke-linejoin:round; stroke-width:4; stroke-opacity:1; fill:none" points="4060.23,1650.27 4060.23,1631.37 "/>
<polyline clip-path="url(#clip800)" style="stroke:#000000; stroke-linecap:round; stroke-linejoin:round; stroke-width:4; stroke-opacity:1; fill:none" points="5796.49,1650.27 5796.49,1631.37 "/>
<path clip-path="url(#clip800)" d="M562.341 1757.12 Q562.341 1743.33 565.152 1734.95 Q568.016 1726.52 573.585 1721.95 Q579.208 1717.39 587.695 1717.39 Q593.954 1717.39 598.674 1719.94 Q603.395 1722.43 606.472 1727.21 Q609.548 1731.93 611.299 1738.77 Q613.049 1745.56 613.049 1757.12 Q613.049 1770.81 610.238 1779.24 Q607.426 1787.62 601.804 1792.24 Q596.235 1796.8 587.695 1796.8 Q576.45 1796.8 570.032 1788.74 Q562.341 1779.03 562.341 1757.12 M572.153 1757.12 Q572.153 1776.27 576.609 1782.64 Q581.117 1788.95 587.695 1788.95 Q594.272 1788.95 598.728 1782.58 Q603.236 1776.22 603.236 1757.12 Q603.236 1737.92 598.728 1731.61 Q594.272 1725.3 587.589 1725.3 Q581.011 1725.3 577.086 1730.87 Q572.153 1737.97 572.153 1757.12 Z" fill="#000000" fill-rule="nonzero" fill-opacity="1" /><path clip-path="url(#clip800)" d="M2240.29 1795.47 L2230.74 1795.47 L2230.74 1734.63 Q2227.29 1737.92 2221.67 1741.21 Q2216.1 1744.5 2211.64 1746.14 L2211.64 1736.91 Q2219.65 1733.15 2225.65 1727.79 Q2231.64 1722.43 2234.13 1717.39 L2240.29 1717.39 L2240.29 1795.47 Z" fill="#000000" fill-rule="nonzero" fill-opacity="1" /><path clip-path="url(#clip800)" d="M2264.74 1757.12 Q2264.74 1743.33 2267.55 1734.95 Q2270.41 1726.52 2275.98 1721.95 Q2281.61 1717.39 2290.09 1717.39 Q2296.35 1717.39 2301.07 1719.94 Q2305.79 1722.43 2308.87 1727.21 Q2311.95 1731.93 2313.7 1738.77 Q2315.45 1745.56 2315.45 1757.12 Q2315.45 1770.81 2312.64 1779.24 Q2309.82 1787.62 2304.2 1792.24 Q2298.63 1796.8 2290.09 1796.8 Q2278.85 1796.8 2272.43 1788.74 Q2264.74 1779.03 2264.74 1757.12 M2274.55 1757.12 Q2274.55 1776.27 2279.01 1782.64 Q2283.52 1788.95 2290.09 1788.95 Q2296.67 1788.95 2301.13 1782.58 Q2305.63 1776.22 2305.63 1757.12 Q2305.63 1737.92 2301.13 1731.61 Q2296.67 1725.3 2289.99 1725.3 Q2283.41 1725.3 2279.48 1730.87 Q2274.55 1737.97 2274.55 1757.12 Z" fill="#000000" fill-rule="nonzero" fill-opacity="1" /><path clip-path="url(#clip800)" d="M2325.15 1757.12 Q2325.15 1743.33 2327.97 1734.95 Q2330.83 1726.52 2336.4 1721.95 Q2342.02 1717.39 2350.51 1717.39 Q2356.77 1717.39 2361.49 1719.94 Q2366.21 1722.43 2369.29 1727.21 Q2372.36 1731.93 2374.11 1738.77 Q2375.86 1745.56 2375.86 1757.12 Q2375.86 1770.81 2373.05 1779.24 Q2370.24 1787.62 2364.62 1792.24 Q2359.05 1796.8 2350.51 1796.8 Q2339.26 1796.8 2332.85 1788.74 Q2325.15 1779.03 2325.15 1757.12 M2334.97 1757.12 Q2334.97 1776.27 2339.42 1782.64 Q2343.93 1788.95 2350.51 1788.95 Q2357.09 1788.95 2361.54 1782.58 Q2366.05 1776.22 2366.05 1757.12 Q2366.05 1737.92 2361.54 1731.61 Q2357.09 1725.3 2350.4 1725.3 Q2343.82 1725.3 2339.9 1730.87 Q2334.97 1737.97 2334.97 1757.12 Z" fill="#000000" fill-rule="nonzero" fill-opacity="1" /><path clip-path="url(#clip800)" d="M2385.57 1757.12 Q2385.57 1743.33 2388.38 1734.95 Q2391.24 1726.52 2396.81 1721.95 Q2402.44 1717.39 2410.92 1717.39 Q2417.18 1717.39 2421.9 1719.94 Q2426.62 1722.43 2429.7 1727.21 Q2432.78 1731.93 2434.53 1738.77 Q2436.28 1745.56 2436.28 1757.12 Q2436.28 1770.81 2433.47 1779.24 Q2430.66 1787.62 2425.03 1792.24 Q2419.46 1796.8 2410.92 1796.8 Q2399.68 1796.8 2393.26 1788.74 Q2385.57 1779.03 2385.57 1757.12 M2395.38 1757.12 Q2395.38 1776.27 2399.84 1782.64 Q2404.35 1788.95 2410.92 1788.95 Q2417.5 1788.95 2421.96 1782.58 Q2426.46 1776.22 2426.46 1757.12 Q2426.46 1737.92 2421.96 1731.61 Q2417.5 1725.3 2410.82 1725.3 Q2404.24 1725.3 2400.31 1730.87 Q2395.38 1737.97 2395.38 1757.12 Z" fill="#000000" fill-rule="nonzero" fill-opacity="1" /><path clip-path="url(#clip800)" d="M3995.09 1786.3 L3995.09 1795.47 L3943.69 1795.47 Q3943.59 1792.02 3944.81 1788.84 Q3946.77 1783.59 3951.07 1778.5 Q3955.41 1773.41 3963.58 1766.72 Q3976.26 1756.33 3980.72 1750.28 Q3985.17 1744.18 3985.17 1738.77 Q3985.17 1733.09 3981.09 1729.22 Q3977.06 1725.3 3970.53 1725.3 Q3963.64 1725.3 3959.5 1729.43 Q3955.36 1733.57 3955.31 1740.89 L3945.5 1739.88 Q3946.5 1728.9 3953.08 1723.17 Q3959.66 1717.39 3970.74 1717.39 Q3981.94 1717.39 3988.46 1723.6 Q3994.98 1729.81 3994.98 1738.98 Q3994.98 1743.65 3993.07 1748.16 Q3991.17 1752.67 3986.71 1757.65 Q3982.31 1762.64 3972.02 1771.34 Q3963.42 1778.55 3960.98 1781.15 Q3958.54 1783.7 3956.95 1786.3 L3995.09 1786.3 Z" fill="#000000" fill-rule="nonzero" fill-opacity="1" /><path clip-path="url(#clip800)" d="M4005.33 1757.12 Q4005.33 1743.33 4008.14 1734.95 Q4011 1726.52 4016.57 1721.95 Q4022.19 1717.39 4030.68 1717.39 Q4036.94 1717.39 4041.66 1719.94 Q4046.38 1722.43 4049.46 1727.21 Q4052.54 1731.93 4054.29 1738.77 Q4056.04 1745.56 4056.04 1757.12 Q4056.04 1770.81 4053.22 1779.24 Q4050.41 1787.62 4044.79 1792.24 Q4039.22 1796.8 4030.68 1796.8 Q4019.44 1796.8 4013.02 1788.74 Q4005.33 1779.03 4005.33 1757.12 M4015.14 1757.12 Q4015.14 1776.27 4019.6 1782.64 Q4024.1 1788.95 4030.68 1788.95 Q4037.26 1788.95 4041.71 1782.58 Q4046.22 1776.22 4046.22 1757.12 Q4046.22 1737.92 4041.71 1731.61 Q4037.26 1725.3 4030.58 1725.3 Q4024 1725.3 4020.07 1730.87 Q4015.14 1737.97 4015.14 1757.12 Z" fill="#000000" fill-rule="nonzero" fill-opacity="1" /><path clip-path="url(#clip800)" d="M4065.74 1757.12 Q4065.74 1743.33 4068.55 1734.95 Q4071.42 1726.52 4076.99 1721.95 Q4082.61 1717.39 4091.1 1717.39 Q4097.36 1717.39 4102.08 1719.94 Q4106.8 1722.43 4109.87 1727.21 Q4112.95 1731.93 4114.7 1738.77 Q4116.45 1745.56 4116.45 1757.12 Q4116.45 1770.81 4113.64 1779.24 Q4110.83 1787.62 4105.21 1792.24 Q4099.64 1796.8 4091.1 1796.8 Q4079.85 1796.8 4073.43 1788.74 Q4065.74 1779.03 4065.74 1757.12 M4075.56 1757.12 Q4075.56 1776.27 4080.01 1782.64 Q4084.52 1788.95 4091.1 1788.95 Q4097.67 1788.95 4102.13 1782.58 Q4106.64 1776.22 4106.64 1757.12 Q4106.64 1737.92 4102.13 1731.61 Q4097.67 1725.3 4090.99 1725.3 Q4084.41 1725.3 4080.49 1730.87 Q4075.56 1737.97 4075.56 1757.12 Z" fill="#000000" fill-rule="nonzero" fill-opacity="1" /><path clip-path="url(#clip800)" d="M4126.16 1757.12 Q4126.16 1743.33 4128.97 1734.95 Q4131.83 1726.52 4137.4 1721.95 Q4143.03 1717.39 4151.51 1717.39 Q4157.77 1717.39 4162.49 1719.94 Q4167.21 1722.43 4170.29 1727.21 Q4173.37 1731.93 4175.12 1738.77 Q4176.87 1745.56 4176.87 1757.12 Q4176.87 1770.81 4174.05 1779.24 Q4171.24 1787.62 4165.62 1792.24 Q4160.05 1796.8 4151.51 1796.8 Q4140.27 1796.8 4133.85 1788.74 Q4126.16 1779.03 4126.16 1757.12 M4135.97 1757.12 Q4135.97 1776.27 4140.43 1782.64 Q4144.93 1788.95 4151.51 1788.95 Q4158.09 1788.95 4162.54 1782.58 Q4167.05 1776.22 4167.05 1757.12 Q4167.05 1737.92 4162.54 1731.61 Q4158.09 1725.3 4151.41 1725.3 Q4144.83 1725.3 4140.9 1730.87 Q4135.97 1737.97 4135.97 1757.12 Z" fill="#000000" fill-rule="nonzero" fill-opacity="1" /><path clip-path="url(#clip800)" d="M5680.54 1774.94 L5690.09 1773.67 Q5691.73 1781.79 5695.66 1785.39 Q5699.64 1788.95 5705.31 1788.95 Q5712.05 1788.95 5716.66 1784.28 Q5721.33 1779.61 5721.33 1772.72 Q5721.33 1766.14 5717.03 1761.9 Q5712.74 1757.6 5706.11 1757.6 Q5703.4 1757.6 5699.37 1758.66 L5700.43 1750.28 Q5701.39 1750.39 5701.97 1750.39 Q5708.07 1750.39 5712.95 1747.2 Q5717.83 1744.02 5717.83 1737.39 Q5717.83 1732.14 5714.28 1728.69 Q5710.72 1725.24 5705.1 1725.24 Q5699.53 1725.24 5695.82 1728.74 Q5692.1 1732.25 5691.04 1739.25 L5681.5 1737.55 Q5683.25 1727.95 5689.45 1722.7 Q5695.66 1717.39 5704.89 1717.39 Q5711.25 1717.39 5716.61 1720.15 Q5721.97 1722.86 5724.78 1727.58 Q5727.64 1732.3 5727.64 1737.6 Q5727.64 1742.64 5724.94 1746.78 Q5722.23 1750.92 5716.93 1753.36 Q5723.82 1754.95 5727.64 1759.99 Q5731.46 1764.97 5731.46 1772.5 Q5731.46 1782.69 5724.04 1789.8 Q5716.61 1796.85 5705.26 1796.85 Q5695.02 1796.85 5688.23 1790.75 Q5681.5 1784.65 5680.54 1774.94 Z" fill="#000000" fill-rule="nonzero" fill-opacity="1" /><path clip-path="url(#clip800)" d="M5740.9 1757.12 Q5740.9 1743.33 5743.71 1734.95 Q5746.58 1726.52 5752.15 1721.95 Q5757.77 1717.39 5766.26 1717.39 Q5772.52 1717.39 5777.24 1719.94 Q5781.96 1722.43 5785.03 1727.21 Q5788.11 1731.93 5789.86 1738.77 Q5791.61 1745.56 5791.61 1757.12 Q5791.61 1770.81 5788.8 1779.24 Q5785.99 1787.62 5780.37 1792.24 Q5774.8 1796.8 5766.26 1796.8 Q5755.01 1796.8 5748.59 1788.74 Q5740.9 1779.03 5740.9 1757.12 M5750.72 1757.12 Q5750.72 1776.27 5755.17 1782.64 Q5759.68 1788.95 5766.26 1788.95 Q5772.84 1788.95 5777.29 1782.58 Q5781.8 1776.22 5781.8 1757.12 Q5781.8 1737.92 5777.29 1731.61 Q5772.84 1725.3 5766.15 1725.3 Q5759.57 1725.3 5755.65 1730.87 Q5750.72 1737.97 5750.72 1757.12 Z" fill="#000000" fill-rule="nonzero" fill-opacity="1" /><path clip-path="url(#clip800)" d="M5801.32 1757.12 Q5801.32 1743.33 5804.13 1734.95 Q5806.99 1726.52 5812.56 1721.95 Q5818.19 1717.39 5826.67 1717.39 Q5832.93 1717.39 5837.65 1719.94 Q5842.37 1722.43 5845.45 1727.21 Q5848.53 1731.93 5850.28 1738.77 Q5852.03 1745.56 5852.03 1757.12 Q5852.03 1770.81 5849.22 1779.24 Q5846.4 1787.62 5840.78 1792.24 Q5835.21 1796.8 5826.67 1796.8 Q5815.43 1796.8 5809.01 1788.74 Q5801.32 1779.03 5801.32 1757.12 M5811.13 1757.12 Q5811.13 1776.27 5815.59 1782.64 Q5820.1 1788.95 5826.67 1788.95 Q5833.25 1788.95 5837.71 1782.58 Q5842.21 1776.22 5842.21 1757.12 Q5842.21 1737.92 5837.71 1731.61 Q5833.25 1725.3 5826.57 1725.3 Q5819.99 1725.3 5816.06 1730.87 Q5811.13 1737.97 5811.13 1757.12 Z" fill="#000000" fill-rule="nonzero" fill-opacity="1" /><path clip-path="url(#clip800)" d="M5861.73 1757.12 Q5861.73 1743.33 5864.55 1734.95 Q5867.41 1726.52 5872.98 1721.95 Q5878.6 1717.39 5887.09 1717.39 Q5893.35 1717.39 5898.07 1719.94 Q5902.79 1722.43 5905.87 1727.21 Q5908.94 1731.93 5910.69 1738.77 Q5912.44 1745.56 5912.44 1757.12 Q5912.44 1770.81 5909.63 1779.24 Q5906.82 1787.62 5901.2 1792.24 Q5895.63 1796.8 5887.09 1796.8 Q5875.84 1796.8 5869.43 1788.74 Q5861.73 1779.03 5861.73 1757.12 M5871.55 1757.12 Q5871.55 1776.27 5876 1782.64 Q5880.51 1788.95 5887.09 1788.95 Q5893.67 1788.95 5898.12 1782.58 Q5902.63 1776.22 5902.63 1757.12 Q5902.63 1737.92 5898.12 1731.61 Q5893.67 1725.3 5886.98 1725.3 Q5880.4 1725.3 5876.48 1730.87 Q5871.55 1737.97 5871.55 1757.12 Z" fill="#000000" fill-rule="nonzero" fill-opacity="1" /><path clip-path="url(#clip800)" d="M3091.53 1932.08 L3101.39 1933.3 Q3099.06 1941.95 3092.75 1946.72 Q3086.43 1951.5 3076.62 1951.5 Q3064.26 1951.5 3056.99 1943.91 Q3049.78 1936.27 3049.78 1922.54 Q3049.78 1908.32 3057.1 1900.47 Q3064.42 1892.62 3076.09 1892.62 Q3087.39 1892.62 3094.55 1900.31 Q3101.71 1908 3101.71 1921.95 Q3101.71 1922.8 3101.66 1924.5 L3059.65 1924.5 Q3060.18 1933.78 3064.9 1938.71 Q3069.62 1943.65 3076.67 1943.65 Q3081.92 1943.65 3085.64 1940.89 Q3089.35 1938.13 3091.53 1932.08 M3060.18 1916.65 L3091.63 1916.65 Q3090.99 1909.54 3088.02 1905.99 Q3083.46 1900.47 3076.2 1900.47 Q3069.62 1900.47 3065.11 1904.87 Q3060.65 1909.27 3060.18 1916.65 Z" fill="#000000" fill-rule="nonzero" fill-opacity="1" /><path clip-path="url(#clip800)" d="M3113.38 1971.81 L3113.38 1893.89 L3122.08 1893.89 L3122.08 1901.21 Q3125.15 1896.92 3129.03 1894.79 Q3132.9 1892.62 3138.41 1892.62 Q3145.63 1892.62 3151.14 1896.33 Q3156.66 1900.05 3159.47 1906.83 Q3162.28 1913.57 3162.28 1921.63 Q3162.28 1930.28 3159.15 1937.23 Q3156.08 1944.12 3150.14 1947.84 Q3144.25 1951.5 3137.73 1951.5 Q3132.95 1951.5 3129.13 1949.48 Q3125.37 1947.47 3122.93 1944.39 L3122.93 1971.81 L3113.38 1971.81 M3122.02 1922.38 Q3122.02 1933.25 3126.43 1938.45 Q3130.83 1943.65 3137.09 1943.65 Q3143.45 1943.65 3147.96 1938.29 Q3152.52 1932.88 3152.52 1921.58 Q3152.52 1910.81 3148.07 1905.46 Q3143.67 1900.1 3137.51 1900.1 Q3131.41 1900.1 3126.69 1905.83 Q3122.02 1911.5 3122.02 1922.38 Z" fill="#000000" fill-rule="nonzero" fill-opacity="1" /><path clip-path="url(#clip800)" d="M3170.24 1922.06 Q3170.24 1906.41 3178.94 1898.88 Q3186.21 1892.62 3196.65 1892.62 Q3208.27 1892.62 3215.64 1900.26 Q3223.02 1907.84 3223.02 1921.26 Q3223.02 1932.14 3219.73 1938.4 Q3216.49 1944.6 3210.23 1948.05 Q3204.03 1951.5 3196.65 1951.5 Q3184.83 1951.5 3177.51 1943.91 Q3170.24 1936.33 3170.24 1922.06 M3180.05 1922.06 Q3180.05 1932.88 3184.77 1938.29 Q3189.49 1943.65 3196.65 1943.65 Q3203.76 1943.65 3208.48 1938.24 Q3213.2 1932.83 3213.2 1921.74 Q3213.2 1911.29 3208.43 1905.93 Q3203.71 1900.52 3196.65 1900.52 Q3189.49 1900.52 3184.77 1905.88 Q3180.05 1911.24 3180.05 1922.06 Z" fill="#000000" fill-rule="nonzero" fill-opacity="1" /><path clip-path="url(#clip800)" d="M3270.97 1929.59 L3280.36 1930.81 Q3278.82 1940.52 3272.45 1946.03 Q3266.14 1951.5 3256.91 1951.5 Q3245.35 1951.5 3238.29 1943.96 Q3231.29 1936.38 3231.29 1922.27 Q3231.29 1913.15 3234.32 1906.3 Q3237.34 1899.46 3243.49 1896.07 Q3249.7 1892.62 3256.96 1892.62 Q3266.14 1892.62 3271.98 1897.29 Q3277.81 1901.9 3279.45 1910.44 L3270.17 1911.87 Q3268.85 1906.2 3265.45 1903.33 Q3262.11 1900.47 3257.34 1900.47 Q3250.12 1900.47 3245.61 1905.67 Q3241.1 1910.81 3241.1 1922 Q3241.1 1933.36 3245.45 1938.5 Q3249.8 1943.65 3256.8 1943.65 Q3262.43 1943.65 3266.19 1940.2 Q3269.96 1936.75 3270.97 1929.59 Z" fill="#000000" fill-rule="nonzero" fill-opacity="1" /><path clip-path="url(#clip800)" d="M3288.52 1950.22 L3288.52 1872.46 L3298.07 1872.46 L3298.07 1900.36 Q3304.76 1892.62 3314.94 1892.62 Q3321.2 1892.62 3325.81 1895.11 Q3330.43 1897.55 3332.39 1901.9 Q3334.41 1906.25 3334.41 1914.53 L3334.41 1950.22 L3324.86 1950.22 L3324.86 1914.53 Q3324.86 1907.37 3321.73 1904.13 Q3318.65 1900.84 3312.98 1900.84 Q3308.73 1900.84 3304.97 1903.07 Q3301.25 1905.24 3299.66 1909.01 Q3298.07 1912.78 3298.07 1919.41 L3298.07 1950.22 L3288.52 1950.22 Z" fill="#000000" fill-rule="nonzero" fill-opacity="1" /><polyline clip-path="url(#clip802)" style="stroke:#000000; stroke-linecap:round; stroke-linejoin:round; stroke-width:2; stroke-opacity:0.1; fill:none" points="431.431,1433.56 5952.76,1433.56 "/>
<polyline clip-path="url(#clip802)" style="stroke:#000000; stroke-linecap:round; stroke-linejoin:round; stroke-width:2; stroke-opacity:0.1; fill:none" points="431.431,1023.96 5952.76,1023.96 "/>
<polyline clip-path="url(#clip802)" style="stroke:#000000; stroke-linecap:round; stroke-linejoin:round; stroke-width:2; stroke-opacity:0.1; fill:none" points="431.431,614.356 5952.76,614.356 "/>
<polyline clip-path="url(#clip802)" style="stroke:#000000; stroke-linecap:round; stroke-linejoin:round; stroke-width:2; stroke-opacity:0.1; fill:none" points="431.431,204.756 5952.76,204.756 "/>
<polyline clip-path="url(#clip800)" style="stroke:#000000; stroke-linecap:round; stroke-linejoin:round; stroke-width:4; stroke-opacity:1; fill:none" points="431.431,1650.27 431.431,47.2441 "/>
<polyline clip-path="url(#clip800)" style="stroke:#000000; stroke-linecap:round; stroke-linejoin:round; stroke-width:4; stroke-opacity:1; fill:none" points="431.431,1433.56 450.328,1433.56 "/>
<polyline clip-path="url(#clip800)" style="stroke:#000000; stroke-linecap:round; stroke-linejoin:round; stroke-width:4; stroke-opacity:1; fill:none" points="431.431,1023.96 450.328,1023.96 "/>
<polyline clip-path="url(#clip800)" style="stroke:#000000; stroke-linecap:round; stroke-linejoin:round; stroke-width:4; stroke-opacity:1; fill:none" points="431.431,614.356 450.328,614.356 "/>
<polyline clip-path="url(#clip800)" style="stroke:#000000; stroke-linecap:round; stroke-linejoin:round; stroke-width:4; stroke-opacity:1; fill:none" points="431.431,204.756 450.328,204.756 "/>
<path clip-path="url(#clip800)" d="M280.697 1438.54 L229.352 1438.54 L229.352 1429.63 L280.697 1429.63 L280.697 1438.54 Z" fill="#000000" fill-rule="nonzero" fill-opacity="1" /><path clip-path="url(#clip800)" d="M341.431 1463.26 L341.431 1472.44 L290.033 1472.44 Q289.927 1468.99 291.147 1465.81 Q293.109 1460.56 297.406 1455.46 Q301.755 1450.37 309.924 1443.69 Q322.601 1433.29 327.056 1427.25 Q331.512 1421.15 331.512 1415.74 Q331.512 1410.06 327.428 1406.19 Q323.396 1402.26 316.872 1402.26 Q309.977 1402.26 305.839 1406.4 Q301.702 1410.54 301.649 1417.86 L291.836 1416.85 Q292.844 1405.87 299.421 1400.14 Q305.999 1394.36 317.084 1394.36 Q328.276 1394.36 334.801 1400.57 Q341.325 1406.77 341.325 1415.95 Q341.325 1420.62 339.415 1425.12 Q337.506 1429.63 333.05 1434.62 Q328.648 1439.6 318.357 1448.3 Q309.765 1455.52 307.325 1458.12 Q304.885 1460.66 303.293 1463.26 L341.431 1463.26 Z" fill="#000000" fill-rule="nonzero" fill-opacity="1" /><path clip-path="url(#clip800)" d="M294.913 1028.94 L243.568 1028.94 L243.568 1020.03 L294.913 1020.03 L294.913 1028.94 Z" fill="#000000" fill-rule="nonzero" fill-opacity="1" /><path clip-path="url(#clip800)" d="M341.431 1062.84 L331.883 1062.84 L331.883 1002 Q328.435 1005.29 322.813 1008.57 Q317.244 1011.86 312.788 1013.51 L312.788 1004.28 Q320.797 1000.51 326.791 995.155 Q332.785 989.798 335.278 984.759 L341.431 984.759 L341.431 1062.84 Z" fill="#000000" fill-rule="nonzero" fill-opacity="1" /><path clip-path="url(#clip800)" d="M290.722 614.887 Q290.722 601.096 293.534 592.715 Q296.398 584.281 301.967 579.72 Q307.59 575.158 316.077 575.158 Q322.336 575.158 327.056 577.704 Q331.777 580.197 334.854 584.971 Q337.93 589.692 339.68 596.534 Q341.431 603.324 341.431 614.887 Q341.431 628.572 338.62 637.005 Q335.808 645.386 330.186 650.001 Q324.616 654.562 316.077 654.562 Q304.832 654.562 298.414 646.5 Q290.722 636.793 290.722 614.887 M300.535 614.887 Q300.535 634.035 304.991 640.4 Q309.499 646.712 316.077 646.712 Q322.654 646.712 327.109 640.347 Q331.618 633.982 331.618 614.887 Q331.618 595.685 327.109 589.373 Q322.654 583.061 315.971 583.061 Q309.393 583.061 305.468 588.631 Q300.535 595.739 300.535 614.887 Z" fill="#000000" fill-rule="nonzero" fill-opacity="1" /><path clip-path="url(#clip800)" d="M341.431 243.636 L331.883 243.636 L331.883 182.796 Q328.435 186.085 322.813 189.373 Q317.244 192.662 312.788 194.306 L312.788 185.077 Q320.797 181.311 326.791 175.954 Q332.785 170.596 335.278 165.557 L341.431 165.557 L341.431 243.636 Z" fill="#000000" fill-rule="nonzero" fill-opacity="1" /><path clip-path="url(#clip800)" d="M116.024 1108.98 L38.2644 1108.98 L38.2644 1099.44 L116.024 1099.44 L116.024 1108.98 Z" fill="#000000" fill-rule="nonzero" fill-opacity="1" /><path clip-path="url(#clip800)" d="M87.859 1088.19 Q72.2115 1088.19 64.6795 1079.49 Q58.4205 1072.22 58.4205 1061.78 Q58.4205 1050.16 66.0586 1042.79 Q73.6436 1035.41 87.0633 1035.41 Q97.937 1035.41 104.196 1038.7 Q110.402 1041.94 113.85 1048.2 Q117.297 1054.4 117.297 1061.78 Q117.297 1073.6 109.712 1080.92 Q102.127 1088.19 87.859 1088.19 M87.859 1078.38 Q98.6796 1078.38 104.09 1073.66 Q109.447 1068.94 109.447 1061.78 Q109.447 1054.67 104.037 1049.95 Q98.6266 1045.23 87.5407 1045.23 Q77.0914 1045.23 71.7341 1050 Q66.3238 1054.72 66.3238 1061.78 Q66.3238 1068.94 71.6811 1073.66 Q77.0384 1078.38 87.859 1078.38 Z" fill="#000000" fill-rule="nonzero" fill-opacity="1" /><path clip-path="url(#clip800)" d="M120.692 1025.97 L122.071 1016.69 Q126.368 1016.11 128.33 1013.45 Q130.982 1009.9 130.982 1003.75 Q130.982 997.117 128.33 993.51 Q125.678 989.903 120.904 988.63 Q117.987 987.888 108.652 987.941 Q116.024 994.2 116.024 1003.54 Q116.024 1015.15 107.644 1021.52 Q99.2631 1027.88 87.5407 1027.88 Q79.4783 1027.88 72.6889 1024.96 Q65.8464 1022.05 62.1335 1016.53 Q58.4205 1010.96 58.4205 1003.48 Q58.4205 993.51 66.4829 987.039 L59.6935 987.039 L59.6935 978.234 L108.386 978.234 Q121.541 978.234 127.004 980.939 Q132.521 983.591 135.703 989.426 Q138.886 995.208 138.886 1003.69 Q138.886 1013.77 134.324 1019.98 Q129.815 1026.18 120.692 1025.97 M86.8512 1018.07 Q97.937 1018.07 103.029 1013.67 Q108.121 1009.26 108.121 1002.63 Q108.121 996.056 103.082 991.601 Q97.9901 987.145 87.1694 987.145 Q76.8262 987.145 71.575 991.76 Q66.3238 996.321 66.3238 1002.79 Q66.3238 1009.16 71.522 1013.61 Q76.6671 1018.07 86.8512 1018.07 Z" fill="#000000" fill-rule="nonzero" fill-opacity="1" /><path clip-path="url(#clip800)" d="M116.024 930.496 L116.024 940.044 L55.1849 940.044 Q58.4736 943.491 61.7622 949.114 Q65.0508 954.683 66.6951 959.139 L57.4658 959.139 Q53.6997 951.129 48.3425 945.136 Q42.9852 939.142 37.9462 936.649 L37.9462 930.496 L116.024 930.496 Z" fill="#000000" fill-rule="nonzero" fill-opacity="1" /><path clip-path="url(#clip800)" d="M77.6749 906.043 Q63.8839 906.043 55.5032 903.232 Q47.0695 900.368 42.5078 894.799 Q37.9462 889.176 37.9462 880.689 Q37.9462 874.43 40.4922 869.71 Q42.9852 864.989 47.759 861.912 Q52.4798 858.836 59.3222 857.085 Q66.1116 855.335 77.6749 855.335 Q91.3598 855.335 99.7935 858.146 Q108.174 860.958 112.789 866.58 Q117.35 872.149 117.35 880.689 Q117.35 891.934 109.288 898.352 Q99.5813 906.043 77.6749 906.043 M77.6749 896.231 Q96.8231 896.231 103.188 891.775 Q109.5 887.266 109.5 880.689 Q109.5 874.112 103.135 869.656 Q96.7701 865.148 77.6749 865.148 Q58.4736 865.148 52.1615 869.656 Q45.8495 874.112 45.8495 880.795 Q45.8495 887.373 51.4189 891.298 Q58.5266 896.231 77.6749 896.231 Z" fill="#000000" fill-rule="nonzero" fill-opacity="1" /><path clip-path="url(#clip800)" d="M138.886 824.73 Q128.914 832.633 115.547 838.096 Q102.18 843.56 87.859 843.56 Q75.2349 843.56 63.6717 839.475 Q50.252 834.702 36.9384 824.73 L36.9384 817.887 Q47.9712 824.305 52.6919 826.374 Q60.0118 829.61 67.9681 831.466 Q77.887 833.747 87.912 833.747 Q113.425 833.747 138.886 817.887 L138.886 824.73 Z" fill="#000000" fill-rule="nonzero" fill-opacity="1" /><path clip-path="url(#clip800)" d="M116.024 807.014 L38.2644 807.014 L38.2644 797.466 L116.024 797.466 L116.024 807.014 Z" fill="#000000" fill-rule="nonzero" fill-opacity="1" /><path clip-path="url(#clip800)" d="M87.859 786.221 Q72.2115 786.221 64.6795 777.522 Q58.4205 770.255 58.4205 759.806 Q58.4205 748.19 66.0586 740.817 Q73.6436 733.444 87.0633 733.444 Q97.937 733.444 104.196 736.732 Q110.402 739.968 113.85 746.227 Q117.297 752.433 117.297 759.806 Q117.297 771.634 109.712 778.954 Q102.127 786.221 87.859 786.221 M87.859 776.408 Q98.6796 776.408 104.09 771.687 Q109.447 766.967 109.447 759.806 Q109.447 752.698 104.037 747.977 Q98.6266 743.257 87.5407 743.257 Q77.0914 743.257 71.7341 748.03 Q66.3238 752.751 66.3238 759.806 Q66.3238 766.967 71.6811 771.687 Q77.0384 776.408 87.859 776.408 Z" fill="#000000" fill-rule="nonzero" fill-opacity="1" /><path clip-path="url(#clip800)" d="M99.21 726.071 L97.7249 716.629 Q103.4 715.834 106.424 712.227 Q109.447 708.567 109.447 702.043 Q109.447 695.466 106.795 692.283 Q104.09 689.1 100.483 689.1 Q97.2475 689.1 95.391 691.912 Q94.118 693.874 92.1554 701.672 Q89.5033 712.174 87.5938 716.258 Q85.6312 720.289 82.2365 722.411 Q78.7888 724.48 74.6515 724.48 Q70.8855 724.48 67.7029 722.782 Q64.4673 721.032 62.3456 718.062 Q60.7013 715.834 59.5874 712.015 Q58.4205 708.143 58.4205 703.74 Q58.4205 697.11 60.33 692.124 Q62.2396 687.085 65.5282 684.698 Q68.7638 682.311 74.2271 681.409 L75.5001 690.745 Q71.1507 691.381 68.7107 694.458 Q66.2708 697.481 66.2708 703.051 Q66.2708 709.628 68.4455 712.439 Q70.6202 715.25 73.5376 715.25 Q75.394 715.25 76.8792 714.083 Q78.4175 712.916 79.4253 710.423 Q79.9557 708.991 81.8652 701.99 Q84.5704 691.859 86.3208 687.881 Q88.0181 683.849 91.3067 681.568 Q94.5954 679.288 99.4752 679.288 Q104.249 679.288 108.492 682.099 Q112.683 684.857 115.017 690.108 Q117.297 695.359 117.297 701.99 Q117.297 712.97 112.736 718.751 Q108.174 724.48 99.21 726.071 Z" fill="#000000" fill-rule="nonzero" fill-opacity="1" /><path clip-path="url(#clip800)" d="M99.21 671.756 L97.7249 662.314 Q103.4 661.519 106.424 657.912 Q109.447 654.252 109.447 647.728 Q109.447 641.15 106.795 637.968 Q104.09 634.785 100.483 634.785 Q97.2475 634.785 95.391 637.596 Q94.118 639.559 92.1554 647.356 Q89.5033 657.859 87.5938 661.943 Q85.6312 665.974 82.2365 668.096 Q78.7888 670.164 74.6515 670.164 Q70.8855 670.164 67.7029 668.467 Q64.4673 666.717 62.3456 663.746 Q60.7013 661.519 59.5874 657.699 Q58.4205 653.827 58.4205 649.425 Q58.4205 642.795 60.33 637.809 Q62.2396 632.77 65.5282 630.383 Q68.7638 627.996 74.2271 627.094 L75.5001 636.43 Q71.1507 637.066 68.7107 640.142 Q66.2708 643.166 66.2708 648.735 Q66.2708 655.313 68.4455 658.124 Q70.6202 660.935 73.5376 660.935 Q75.394 660.935 76.8792 659.768 Q78.4175 658.601 79.4253 656.108 Q79.9557 654.676 81.8652 647.674 Q84.5704 637.543 86.3208 633.565 Q88.0181 629.534 91.3067 627.253 Q94.5954 624.972 99.4752 624.972 Q104.249 624.972 108.492 627.784 Q112.683 630.542 115.017 635.793 Q117.297 641.044 117.297 647.674 Q117.297 658.654 112.736 664.436 Q108.174 670.164 99.21 671.756 Z" fill="#000000" fill-rule="nonzero" fill-opacity="1" /><path clip-path="url(#clip800)" d="M138.886 607.362 L138.886 614.205 Q113.425 598.345 87.912 598.345 Q77.9401 598.345 68.1273 600.626 Q60.1709 602.429 52.8511 605.665 Q48.0773 607.734 36.9384 614.205 L36.9384 607.362 Q50.252 597.39 63.6717 592.617 Q75.2349 588.532 87.859 588.532 Q102.18 588.532 115.547 594.049 Q128.914 599.512 138.886 607.362 Z" fill="#000000" fill-rule="nonzero" fill-opacity="1" /><polyline clip-path="url(#clip802)" style="stroke:#009af9; stroke-linecap:round; stroke-linejoin:round; stroke-width:16; stroke-opacity:1; fill:none" points="587.695,92.6128 589.431,105.971 591.167,118.316 592.904,129.308 594.64,139.69 596.376,148.549 598.112,155.497 599.849,162.762 601.585,169.829 603.321,176.424 605.057,182.5 606.794,188.131 608.53,193.441 610.266,198.602 612.002,203.875 613.739,209.44 615.475,214.151 617.211,218.79 618.948,223.447 620.684,228.19 622.42,233.924 624.156,243.142 625.893,248.728 627.629,254.052 629.365,259.512 631.101,265.408 632.838,272.61 634.574,285.15 636.31,305.902 638.046,329.133 639.783,349.593 641.519,367.184 643.255,383.408 644.991,398.542 646.728,412.852 648.464,426.472 650.2,439.246 651.937,450.843 653.673,460.899 655.409,469.322 657.145,476.331 658.882,482.577 660.618,489.354 662.354,495.599 664.09,498.996 665.827,503.286 667.563,508.704 669.299,514.923 671.035,521.211 672.772,526.575 674.508,526.337 676.244,527.56 677.981,532.784 679.717,534.837 681.453,534.669 683.189,534.306 684.926,534.251 686.662,534.744 688.398,535.766 690.134,537.124 691.871,538.563 693.607,539.935 695.343,541.309 697.079,540.568 698.816,544.985 700.552,545.594 702.288,545.866 704.025,546.599 705.761,548.078 707.497,550.078 709.233,547.737 710.97,548.905 712.706,552.576 714.442,552.65 716.178,553.62 717.915,555.436 719.651,557.617 721.387,557.905 723.123,560.346 724.86,561.326 726.596,562.4 728.332,563.649 730.069,565.022 731.805,566.457 733.541,567.883 735.277,569.285 737.014,571.091 738.75,572.802 740.486,574.49 742.222,576.266 743.959,578.185 745.695,580.185 747.431,582.108 749.167,584.443 750.904,586.827 752.64,589.434 754.376,592.41 756.113,595.783 757.849,599.583 759.585,604.042 761.321,609.594 763.058,616.969 764.794,627.539 766.53,509.513 768.266,515.083 770.003,607.551 771.739,596.943 773.475,597.915 775.211,605.219 776.948,617.794 778.684,620.544 780.42,515.695 782.156,612.86 783.893,612.96 785.629,613.362 787.365,613.783 789.102,611.811 790.838,610.504 792.574,614.747 794.31,617.252 796.047,620.457 797.783,625.142 799.519,617.771 801.255,593.627 802.992,508.231 804.728,478.786 806.464,464.373 808.2,455.408 809.937,449.807 811.673,446.951 813.409,447.172 815.146,453.756 816.882,495.264 818.618,500.929 820.354,498.794 822.091,480.601 823.827,474.086 825.563,471.536 827.299,471.342 829.036,473.085 830.772,476.43 832.508,482.325 834.244,500.403 835.981,506.787 837.717,507.685 839.453,477.376 841.19,522.06 842.926,536.531 844.662,532.971 846.398,519.187 848.135,518.382 849.871,518.624 851.607,518.551 853.343,518.733 855.08,520.856 856.816,523.829 858.552,526.657 860.288,529.482 862.025,535.011 863.761,547.871 865.497,549.556 867.234,550.866 868.97,551.809 870.706,552.372 872.442,552.831 874.179,553.945 875.915,555.926 877.651,557.813 879.387,558.737 881.124,558.932 882.86,560.041 884.596,562.327 886.332,564.315 888.069,565.627 889.805,566.467 891.541,567.102 893.277,567.767 895.014,568.619 896.75,569.774 898.486,571.107 900.223,572.413 901.959,573.462 903.695,574.927 905.431,577.216 907.168,579.201 908.904,580.669 910.64,581.887 912.376,582.976 914.113,584.064 915.849,585.143 917.585,586.13 919.321,586.968 921.058,587.662 922.794,588.332 924.53,589.114 926.267,589.976 928.003,590.803 929.739,591.535 931.475,592.218 933.212,592.915 934.948,593.67 936.684,594.523 938.42,595.468 940.157,596.497 941.893,597.616 943.629,598.854 945.365,600.275 947.102,602.024 948.838,604.367 950.574,608.049 952.311,613.972 954.047,612.283 955.783,611.626 957.519,611.93 959.256,613.051 960.992,614.84 962.728,617.142 964.464,619.113 966.201,617.519 967.937,619.825 969.673,621.267 971.409,620.653 973.146,620.797 974.882,621.931 976.618,623.608 978.355,625.319 980.091,625.587 981.827,625.87 983.563,627.516 985.3,627.829 987.036,628.332 988.772,629.091 990.508,630.045 992.245,631.115 993.981,631.944 995.717,632.034 997.453,633.221 999.19,633.939 1000.93,634.471 1002.66,635.139 1004.4,635.934 1006.13,636.778 1007.87,637.533 1009.61,638.074 1011.34,638.74 1013.08,639.597 1014.82,640.317 1016.55,640.98 1018.29,641.666 1020.02,642.393 1021.76,643.151 1023.5,643.902 1025.23,644.602 1026.97,645.286 1028.71,646.038 1030.44,646.824 1032.18,647.577 1033.92,648.311 1035.65,649.05 1037.39,649.81 1039.12,650.587 1040.86,651.376 1042.6,652.166 1044.33,652.96 1046.07,653.754 1047.81,654.562 1049.54,655.389 1051.28,656.224 1053.01,657.076 1054.75,657.927 1056.49,658.791 1058.22,659.664 1059.96,660.553 1061.7,661.461 1063.43,662.383 1065.17,663.313 1066.9,664.265 1068.64,665.234 1070.38,666.219 1072.11,667.226 1073.85,668.264 1075.59,669.31 1077.32,670.39 1079.06,671.488 1080.79,672.615 1082.53,673.77 1084.27,674.963 1086,676.18 1087.74,677.436 1089.48,678.722 1091.21,680.062 1092.95,681.443 1094.68,682.874 1096.42,684.36 1098.16,685.909 1099.89,687.517 1101.63,689.2 1103.37,690.96 1105.1,692.818 1106.84,694.775 1108.57,696.861 1110.31,699.069 1112.05,701.43 1113.78,703.985 1115.52,706.77 1117.26,709.815 1118.99,713.203 1120.73,717.023 1122.46,721.413 1124.2,726.646 1125.94,733.154 1127.67,741.852 1129.41,753.028 1131.15,616.538 1132.88,703.694 1134.62,756.859 1136.35,766.244 1138.09,772.665 1139.83,776.143 1141.56,779.565 1143.3,784.789 1145.04,792.55 1146.77,802.779 1148.51,815.262 1150.24,829.024 1151.98,843.087 1153.72,856.124 1155.45,866.963 1157.19,874.311 1158.93,876.914 1160.66,883.336 1162.4,888.78 1164.13,892.313 1165.87,895.452 1167.61,898.363 1169.34,900.93 1171.08,902.997 1172.82,904.453 1174.55,905.332 1176.29,905.718 1178.03,905.874 1179.76,906.081 1181.5,906.645 1183.23,907.701 1184.97,909.259 1186.71,911.174 1188.44,913.23 1190.18,915.255 1191.92,917.165 1193.65,918.97 1195.39,920.751 1197.12,922.572 1198.86,924.484 1200.6,926.565 1202.33,928.762 1204.07,931.016 1205.81,933.212 1207.54,935.303 1209.28,937.281 1211.01,939.144 1212.75,940.937 1214.49,942.718 1216.22,944.501 1217.96,946.303 1219.7,948.102 1221.43,949.88 1223.17,951.594 1224.9,953.255 1226.64,954.844 1228.38,956.374 1230.11,957.873 1231.85,959.365 1233.59,960.851 1235.32,962.344 1237.06,963.848 1238.79,965.334 1240.53,966.776 1242.27,968.257 1244,969.689 1245.74,971.112 1247.48,972.492 1249.21,973.911 1250.95,975.338 1252.68,976.766 1254.42,978.196 1256.16,979.613 1257.89,981.016 1259.63,982.425 1261.37,983.792 1263.1,985.149 1264.84,986.517 1266.57,987.874 1268.31,989.242 1270.05,990.587 1271.78,991.926 1273.52,993.275 1275.26,994.558 1276.99,995.863 1278.73,997.152 1280.46,998.437 1282.2,999.738 1283.94,1001.04 1285.67,1002.3 1287.41,1003.58 1289.15,1004.83 1290.88,1006.07 1292.62,1007.3 1294.35,1008.51 1296.09,1009.74 1297.83,1010.97 1299.56,1012.17 1301.3,1013.36 1303.04,1014.54 1304.77,1015.72 1306.51,1016.9 1308.25,1018.05 1309.98,1019.23 1311.72,1020.39 1313.45,1021.53 1315.19,1022.67 1316.93,1023.79 1318.66,1024.91 1320.4,1026.02 1322.14,1027.13 1323.87,1028.22 1325.61,1029.31 1327.34,1030.4 1329.08,1031.48 1330.82,1032.55 1332.55,1033.61 1334.29,1034.66 1336.03,1035.72 1337.76,1036.76 1339.5,1037.79 1341.23,1038.84 1342.97,1039.86 1344.71,1040.88 1346.44,1041.89 1348.18,1042.9 1349.92,1043.9 1351.65,1044.91 1353.39,1045.9 1355.12,1046.89 1356.86,1047.87 1358.6,1048.86 1360.33,1049.83 1362.07,1050.81 1363.81,1051.76 1365.54,1052.71 1367.28,1053.67 1369.01,1054.62 1370.75,1055.57 1372.49,1056.49 1374.22,1057.42 1375.96,1058.36 1377.7,1059.3 1379.43,1060.23 1381.17,1061.17 1382.9,1062.07 1384.64,1062.98 1386.38,1063.88 1388.11,1064.82 1389.85,1065.72 1391.59,1066.61 1393.32,1067.51 1395.06,1068.39 1396.79,1069.28 1398.53,1070.17 1400.27,1071.06 1402,1071.94 1403.74,1072.81 1405.48,1073.7 1407.21,1074.58 1408.95,1075.46 1410.68,1076.33 1412.42,1077.2 1414.16,1078.06 1415.89,1078.91 1417.63,1079.78 1419.37,1080.63 1421.1,1081.49 1422.84,1082.35 1424.57,1083.2 1426.31,1084.05 1428.05,1084.9 1429.78,1085.74 1431.52,1086.58 1433.26,1087.42 1434.99,1088.25 1436.73,1089.09 1438.46,1089.92 1440.2,1090.74 1441.94,1091.57 1443.67,1092.4 1445.41,1093.22 1447.15,1094.04 1448.88,1094.88 1450.62,1095.67 1452.36,1096.48 1454.09,1097.28 1455.83,1098.1 1457.56,1098.89 1459.3,1099.7 1461.04,1100.5 1462.77,1101.3 1464.51,1102.11 1466.25,1102.89 1467.98,1103.69 1469.72,1104.49 1471.45,1105.28 1473.19,1106.05 1474.93,1106.83 1476.66,1107.64 1478.4,1108.41 1480.14,1109.2 1481.87,1109.98 1483.61,1110.75 1485.34,1111.52 1487.08,1112.29 1488.82,1113.06 1490.55,1113.82 1492.29,1114.58 1494.03,1115.33 1495.76,1116.07 1497.5,1116.83 1499.23,1117.59 1500.97,1118.34 1502.71,1119.07 1504.44,1119.82 1506.18,1120.59 1507.92,1121.33 1509.65,1122.09 1511.39,1122.83 1513.12,1123.57 1514.86,1124.3 1516.6,1125.04 1518.33,1125.77 1520.07,1126.51 1521.81,1127.23 1523.54,1127.96 1525.28,1128.69 1527.01,1129.42 1528.75,1130.14 1530.49,1130.88 1532.22,1131.59 1533.96,1132.31 1535.7,1133.02 1537.43,1133.7 1539.17,1134.42 1540.9,1135.13 1542.64,1135.84 1544.38,1136.54 1546.11,1137.24 1547.85,1137.95 1549.59,1138.64 1551.32,1139.34 1553.06,1140.04 1554.79,1140.73 1556.53,1141.42 1558.27,1142.11 1560,1142.8 1561.74,1143.48 1563.48,1144.17 1565.21,1144.86 1566.95,1145.55 1568.68,1146.23 1570.42,1146.91 1572.16,1147.59 1573.89,1148.27 1575.63,1148.94 1577.37,1149.6 1579.1,1150.27 1580.84,1150.94 1582.57,1151.61 1584.31,1152.29 1586.05,1152.93 1587.78,1153.59 1589.52,1154.25 1591.26,1154.91 1592.99,1155.57 1594.73,1156.22 1596.47,1156.88 1598.2,1157.53 1599.94,1158.19 1601.67,1158.82 1603.41,1159.47 1605.15,1160.11 1606.88,1160.75 1608.62,1161.39 1610.36,1162.03 1612.09,1162.67 1613.83,1163.31 1615.56,1163.93 1617.3,1164.57 1619.04,1165.2 1620.77,1165.83 1622.51,1166.46 1624.25,1167.09 1625.98,1167.72 1627.72,1168.34 1629.45,1168.97 1631.19,1169.6 1632.93,1170.22 1634.66,1170.83 1636.4,1171.45 1638.14,1172.07 1639.87,1172.68 1641.61,1173.29 1643.34,1173.91 1645.08,1174.54 1646.82,1175.14 1648.55,1175.75 1650.29,1176.34 1652.03,1176.94 1653.76,1177.55 1655.5,1178.15 1657.23,1178.75 1658.97,1179.35 1660.71,1179.94 1662.44,1180.54 1664.18,1181.13 1665.92,1181.73 1667.65,1182.33 1669.39,1182.92 1671.12,1183.5 1672.86,1184.09 1674.6,1184.68 1676.33,1185.27 1678.07,1185.86 1679.81,1186.43 1681.54,1187.01 1683.28,1187.59 1685.01,1188.16 1686.75,1188.74 1688.49,1189.31 1690.22,1189.9 1691.96,1190.47 1693.7,1191.03 1695.43,1191.6 1697.17,1192.17 1698.9,1192.73 1700.64,1193.29 1702.38,1193.85 1704.11,1194.42 1705.85,1194.99 1707.59,1195.53 1709.32,1196.07 1711.06,1196.63 1712.79,1197.19 1714.53,1197.77 1716.27,1198.33 1718,1198.9 1719.74,1199.45 1721.48,1200 1723.21,1200.54 1724.95,1201.06 1726.69,1201.64 1728.42,1202.19 1730.16,1202.74 1731.89,1203.27 1733.63,1203.8 1735.37,1204.34 1737.1,1204.9 1738.84,1205.43 1740.58,1205.95 1742.31,1206.49 1744.05,1207.04 1745.78,1207.54 1747.52,1208.08 1749.26,1208.61 1750.99,1209.14 1752.73,1209.69 1754.47,1210.21 1756.2,1210.76 1757.94,1211.3 1759.67,1211.8 1761.41,1212.31 1763.15,1212.87 1764.88,1213.39 1766.62,1213.91 1768.36,1214.41 1770.09,1214.95 1771.83,1215.48 1773.56,1215.99 1775.3,1216.46 1777.04,1217 1778.77,1217.51 1780.51,1218.02 1782.25,1218.55 1783.98,1219.06 1785.72,1219.58 1787.45,1220.08 1789.19,1220.59 1790.93,1221.09 1792.66,1221.6 1794.4,1222.09 1796.14,1222.59 1797.87,1223.1 1799.61,1223.6 1801.34,1224.1 1803.08,1224.6 1804.82,1225.08 1806.55,1225.59 1808.29,1226.09 1810.03,1226.57 1811.76,1227.06 1813.5,1227.56 1815.23,1228.05 1816.97,1228.54 1818.71,1229.03 1820.44,1229.51 1822.18,1230 1823.92,1230.49 1825.65,1230.98 1827.39,1231.46 1829.12,1231.95 1830.86,1232.42 1832.6,1232.9 1834.33,1233.38 1836.07,1233.86 1837.81,1234.34 1839.54,1234.82 1841.28,1235.3 1843.01,1235.78 1844.75,1236.25 1846.49,1236.73 1848.22,1237.2 1849.96,1237.67 1851.7,1238.14 1853.43,1238.61 1855.17,1239.08 1856.9,1239.55 1858.64,1240.01 1860.38,1240.48 1862.11,1240.95 1863.85,1241.41 1865.59,1241.88 1867.32,1242.34 1869.06,1242.81 1870.8,1243.27 1872.53,1243.73 1874.27,1244.19 1876,1244.65 1877.74,1245.11 1879.48,1245.57 1881.21,1246.02 1882.95,1246.46 1884.69,1246.92 1886.42,1247.37 1888.16,1247.82 1889.89,1248.27 1891.63,1248.72 1893.37,1249.17 1895.1,1249.63 1896.84,1250.08 1898.58,1250.53 1900.31,1250.98 1902.05,1251.41 1903.78,1251.86 1905.52,1252.3 1907.26,1252.74 1908.99,1253.18 1910.73,1253.62 1912.47,1254.06 1914.2,1254.5 1915.94,1254.94 1917.67,1255.38 1919.41,1255.81 1921.15,1256.25 1922.88,1256.69 1924.62,1257.12 1926.36,1257.56 1928.09,1257.99 1929.83,1258.42 1931.56,1258.85 1933.3,1259.29 1935.04,1259.72 1936.77,1260.15 1938.51,1260.58 1940.25,1261 1941.98,1261.43 1943.72,1261.86 1945.45,1262.28 1947.19,1262.7 1948.93,1263.13 1950.66,1263.55 1952.4,1263.97 1954.14,1264.39 1955.87,1264.81 1957.61,1265.23 1959.34,1265.65 1961.08,1266.07 1962.82,1266.49 1964.55,1266.9 1966.29,1267.32 1968.03,1267.74 1969.76,1268.15 1971.5,1268.58 1973.23,1269 1974.97,1269.41 1976.71,1269.83 1978.44,1270.24 1980.18,1270.65 1981.92,1271.06 1983.65,1271.46 1985.39,1271.87 1987.12,1272.27 1988.86,1272.68 1990.6,1273.08 1992.33,1273.49 1994.07,1273.89 1995.81,1274.26 1997.54,1274.67 1999.28,1275.06 2001.02,1275.47 2002.75,1275.87 2004.49,1276.24 2006.22,1276.64 2007.96,1277.04 2009.7,1277.44 2011.43,1277.84 2013.17,1278.23 2014.91,1278.63 2016.64,1279.03 2018.38,1279.42 2020.11,1279.81 2021.85,1280.21 2023.59,1280.6 2025.32,1280.99 2027.06,1281.38 2028.8,1281.77 2030.53,1282.16 2032.27,1282.55 2034,1282.93 2035.74,1283.32 2037.48,1283.71 2039.21,1284.09 2040.95,1284.47 2042.69,1284.87 2044.42,1285.25 2046.16,1285.64 2047.89,1286.02 2049.63,1286.4 2051.37,1286.78 2053.1,1287.16 2054.84,1287.53 2056.58,1287.89 2058.31,1288.27 2060.05,1288.65 2061.78,1289.02 2063.52,1289.4 2065.26,1289.77 2066.99,1290.13 2068.73,1290.51 2070.47,1290.88 2072.2,1291.25 2073.94,1291.62 2075.67,1291.99 2077.41,1292.36 2079.15,1292.73 2080.88,1293.09 2082.62,1293.46 2084.36,1293.83 2086.09,1294.19 2087.83,1294.56 2089.56,1294.95 2091.3,1295.31 2093.04,1295.68 2094.77,1296.04 2096.51,1296.4 2098.25,1296.75 2099.98,1297.11 2101.72,1297.47 2103.45,1297.83 2105.19,1298.19 2106.93,1298.54 2108.66,1298.9 2110.4,1299.26 2112.14,1299.61 2113.87,1299.96 2115.61,1300.31 2117.34,1300.66 2119.08,1301.02 2120.82,1301.37 2122.55,1301.72 2124.29,1302.07 2126.03,1302.43 2127.76,1302.78 2129.5,1303.13 2131.23,1303.47 2132.97,1303.84 2134.71,1304.19 2136.44,1304.53 2138.18,1304.88 2139.92,1305.2 2141.65,1305.55 2143.39,1305.89 2145.13,1306.23 2146.86,1306.57 2148.6,1306.91 2150.33,1307.25 2152.07,1307.59 2153.81,1307.93 2155.54,1308.26 2157.28,1308.6 2159.02,1308.93 2160.75,1309.27 2162.49,1309.6 2164.22,1309.94 2165.96,1310.27 2167.7,1310.6 2169.43,1310.93 2171.17,1311.26 2172.91,1311.59 2174.64,1311.92 2176.38,1312.25 2178.11,1312.57 2179.85,1312.9 2181.59,1313.23 2183.32,1313.56 2185.06,1313.88 2186.8,1314.21 2188.53,1314.53 2190.27,1314.85 2192,1315.18 2193.74,1315.5 2195.48,1315.82 2197.21,1316.14 2198.95,1316.46 2200.69,1316.78 2202.42,1317.1 2204.16,1317.41 2205.89,1317.73 2207.63,1318.05 2209.37,1318.37 2211.1,1318.68 2212.84,1319 2214.58,1319.29 2216.31,1319.6 2218.05,1319.91 2219.78,1320.21 2221.52,1320.52 2223.26,1320.83 2224.99,1321.14 2226.73,1321.45 2228.47,1321.76 2230.2,1322.07 2231.94,1322.38 2233.67,1322.68 2235.41,1322.99 2237.15,1323.3 2238.88,1323.61 2240.62,1323.91 2242.36,1324.21 2244.09,1324.52 2245.83,1324.82 2247.56,1325.12 2249.3,1325.42 2251.04,1325.72 2252.77,1326.02 2254.51,1326.32 2256.25,1326.61 2257.98,1326.91 2259.72,1327.21 2261.45,1327.5 2263.19,1327.79 2264.93,1328.08 2266.66,1328.38 2268.4,1328.67 2270.14,1328.96 2271.87,1329.25 2273.61,1329.54 2275.35,1329.83 2277.08,1330.12 2278.82,1330.41 2280.55,1330.7 2282.29,1330.99 2284.03,1331.28 2285.76,1331.56 2287.5,1331.85 2289.24,1332.14 2290.97,1332.42 2292.71,1332.7 2294.44,1332.99 2296.18,1333.27 2297.92,1333.55 2299.65,1333.84 2301.39,1334.12 2303.13,1334.4 2304.86,1334.68 2306.6,1334.95 2308.33,1335.23 2310.07,1335.51 2311.81,1335.78 2313.54,1336.06 2315.28,1336.34 2317.02,1336.61 2318.75,1336.88 2320.49,1337.16 2322.22,1337.43 2323.96,1337.7 2325.7,1337.98 2327.43,1338.25 2329.17,1338.52 2330.91,1338.79 2332.64,1339.06 2334.38,1339.33 2336.11,1339.59 2337.85,1339.86 2339.59,1340.13 2341.32,1340.39 2343.06,1340.66 2344.8,1340.93 2346.53,1341.19 2348.27,1341.45 2350,1341.71 2351.74,1341.97 2353.48,1342.24 2355.21,1342.5 2356.95,1342.76 2358.69,1343.02 2360.42,1343.28 2362.16,1343.54 2363.89,1343.8 2365.63,1344.07 2367.37,1344.32 2369.1,1344.58 2370.84,1344.83 2372.58,1345.08 2374.31,1345.31 2376.05,1345.56 2377.78,1345.81 2379.52,1346.07 2381.26,1346.32 2382.99,1346.57 2384.73,1346.82 2386.47,1347.08 2388.2,1347.34 2389.94,1347.59 2391.67,1347.84 2393.41,1348.08 2395.15,1348.33 2396.88,1348.58 2398.62,1348.83 2400.36,1349.07 2402.09,1349.32 2403.83,1349.56 2405.56,1349.81 2407.3,1350.05 2409.04,1350.3 2410.77,1350.53 2412.51,1350.77 2414.25,1351.01 2415.98,1351.26 2417.72,1351.5 2419.46,1351.74 2421.19,1351.98 2422.93,1352.22 2424.66,1352.45 2426.4,1352.69 2428.14,1352.93 2429.87,1353.17 2431.61,1353.4 2433.35,1353.64 2435.08,1353.87 2436.82,1354.1 2438.55,1354.34 2440.29,1354.57 2442.03,1354.81 2443.76,1355.03 2445.5,1355.26 2447.24,1355.49 2448.97,1355.73 2450.71,1355.97 2452.44,1356.2 2454.18,1356.42 2455.92,1356.65 2457.65,1356.88 2459.39,1357.11 2461.13,1357.34 2462.86,1357.56 2464.6,1357.79 2466.33,1358.02 2468.07,1358.24 2469.81,1358.47 2471.54,1358.69 2473.28,1358.92 2475.02,1359.14 2476.75,1359.37 2478.49,1359.59 2480.22,1359.82 2481.96,1360.04 2483.7,1360.27 2485.43,1360.48 2487.17,1360.7 2488.91,1360.92 2490.64,1361.13 2492.38,1361.35 2494.11,1361.57 2495.85,1361.79 2497.59,1362 2499.32,1362.22 2501.06,1362.43 2502.8,1362.66 2504.53,1362.87 2506.27,1363.09 2508,1363.31 2509.74,1363.52 2511.48,1363.74 2513.21,1363.96 2514.95,1364.17 2516.69,1364.38 2518.42,1364.59 2520.16,1364.81 2521.89,1365.02 2523.63,1365.23 2525.37,1365.44 2527.1,1365.65 2528.84,1365.86 2530.58,1366.07 2532.31,1366.27 2534.05,1366.48 2535.78,1366.68 2537.52,1366.89 2539.26,1367.1 2540.99,1367.31 2542.73,1367.51 2544.47,1367.72 2546.2,1367.93 2547.94,1368.13 2549.68,1368.34 2551.41,1368.54 2553.15,1368.74 2554.88,1368.95 2556.62,1369.14 2558.36,1369.35 2560.09,1369.55 2561.83,1369.75 2563.57,1369.95 2565.3,1370.15 2567.04,1370.35 2568.77,1370.55 2570.51,1370.75 2572.25,1370.95 2573.98,1371.15 2575.72,1371.35 2577.46,1371.55 2579.19,1371.75 2580.93,1371.94 2582.66,1372.14 2584.4,1372.34 2586.14,1372.53 2587.87,1372.73 2589.61,1372.93 2591.35,1373.12 2593.08,1373.32 2594.82,1373.51 2596.55,1373.71 2598.29,1373.9 2600.03,1374.09 2601.76,1374.29 2603.5,1374.48 2605.24,1374.67 2606.97,1374.87 2608.71,1375.05 2610.44,1375.24 2612.18,1375.43 2613.92,1375.63 2615.65,1375.81 2617.39,1376 2619.13,1376.19 2620.86,1376.38 2622.6,1376.57 2624.33,1376.76 2626.07,1376.94 2627.81,1377.13 2629.54,1377.32 2631.28,1377.51 2633.02,1377.72 2634.75,1377.91 2636.49,1378.1 2638.22,1378.29 2639.96,1378.48 2641.7,1378.66 2643.43,1378.85 2645.17,1379.03 2646.91,1379.22 2648.64,1379.4 2650.38,1379.59 2652.11,1379.78 2653.85,1379.96 2655.59,1380.14 2657.32,1380.32 2659.06,1380.49 2660.8,1380.68 2662.53,1380.86 2664.27,1381.04 2666,1381.22 2667.74,1381.4 2669.48,1381.58 2671.21,1381.76 2672.95,1381.95 2674.69,1382.13 2676.42,1382.31 2678.16,1382.49 2679.89,1382.67 2681.63,1382.85 2683.37,1383.03 2685.1,1383.21 2686.84,1383.38 2688.58,1383.56 2690.31,1383.74 2692.05,1383.92 2693.79,1384.09 2695.52,1384.27 2697.26,1384.45 2698.99,1384.62 2700.73,1384.8 2702.47,1384.98 2704.2,1385.15 2705.94,1385.33 2707.68,1385.5 2709.41,1385.68 2711.15,1385.84 2712.88,1386.01 2714.62,1386.18 2716.36,1386.35 2718.09,1386.53 2719.83,1386.7 2721.57,1386.87 2723.3,1387.05 2725.04,1387.22 2726.77,1387.39 2728.51,1387.56 2730.25,1387.73 2731.98,1387.91 2733.72,1388.08 2735.46,1388.25 2737.19,1388.42 2738.93,1388.59 2740.66,1388.76 2742.4,1388.94 2744.14,1389.11 2745.87,1389.28 2747.61,1389.45 2749.35,1389.63 2751.08,1389.8 2752.82,1389.97 2754.55,1390.14 2756.29,1390.31 2758.03,1390.48 2759.76,1390.65 2761.5,1390.8 2763.24,1390.97 2764.97,1391.14 2766.71,1391.31 2768.44,1391.47 2770.18,1391.64 2771.92,1391.81 2773.65,1391.97 2775.39,1392.14 2777.13,1392.31 2778.86,1392.47 2780.6,1392.65 2782.33,1392.82 2784.07,1392.98 2785.81,1393.15 2787.54,1393.31 2789.28,1393.48 2791.02,1393.65 2792.75,1393.81 2794.49,1393.97 2796.22,1394.14 2797.96,1394.29 2799.7,1394.46 2801.43,1394.62 2803.17,1394.79 2804.91,1394.95 2806.64,1395.12 2808.38,1395.28 2810.11,1395.44 2811.85,1395.61 2813.59,1395.77 2815.32,1395.93 2817.06,1396.09 2818.8,1396.25 2820.53,1396.43 2822.27,1396.59 2824.01,1396.75 2825.74,1396.92 2827.48,1397.08 2829.21,1397.24 2830.95,1397.4 2832.69,1397.56 2834.42,1397.72 2836.16,1397.88 2837.9,1398.05 2839.63,1398.21 2841.37,1398.37 2843.1,1398.53 2844.84,1398.69 2846.58,1398.85 2848.31,1399.01 2850.05,1399.17 2851.79,1399.33 2853.52,1399.49 2855.26,1399.65 2856.99,1399.81 2858.73,1399.97 2860.47,1400.13 2862.2,1400.28 2863.94,1400.45 2865.68,1400.61 2867.41,1400.77 2869.15,1400.93 2870.88,1401.09 2872.62,1401.24 2874.36,1401.4 2876.09,1401.55 2877.83,1401.7 2879.57,1401.86 2881.3,1402.01 2883.04,1402.17 2884.77,1402.33 2886.51,1402.49 2888.25,1402.62 2889.98,1402.77 2891.72,1402.93 2893.46,1403.09 2895.19,1403.25 2896.93,1403.4 2898.66,1403.56 2900.4,1403.72 2902.14,1403.88 2903.87,1404.03 2905.61,1404.19 2907.35,1404.34 2909.08,1404.5 2910.82,1404.66 2912.55,1404.81 2914.29,1404.97 2916.03,1405.12 2917.76,1405.28 2919.5,1405.44 2921.24,1405.59 2922.97,1405.77 2924.71,1405.93 2926.44,1406.09 2928.18,1406.24 2929.92,1406.4 2931.65,1406.55 2933.39,1406.71 2935.13,1406.86 2936.86,1407.02 2938.6,1407.17 2940.33,1407.33 2942.07,1407.48 2943.81,1407.64 2945.54,1407.79 2947.28,1407.95 2949.02,1408.1 2950.75,1408.26 2952.49,1408.41 2954.22,1408.57 2955.96,1408.72 2957.7,1408.88 2959.43,1409.03 2961.17,1409.19 2962.91,1409.34 2964.64,1409.5 2966.38,1409.65 2968.12,1409.8 2969.85,1409.96 2971.59,1410.11 2973.32,1410.27 2975.06,1410.42 2976.8,1410.57 2978.53,1410.73 2980.27,1410.88 2982.01,1411.04 2983.74,1411.19 2985.48,1411.35 2987.21,1411.5 2988.95,1411.65 2990.69,1411.81 2992.42,1411.96 2994.16,1412.11 2995.9,1412.27 2997.63,1412.41 2999.37,1412.56 3001.1,1412.72 3002.84,1412.87 3004.58,1413.02 3006.31,1413.18 3008.05,1413.33 3009.79,1413.49 3011.52,1413.64 3013.26,1413.79 3014.99,1413.94 3016.73,1414.1 3018.47,1414.25 3020.2,1414.41 3021.94,1414.56 3023.68,1414.71 3025.41,1414.88 3027.15,1415.03 3028.88,1415.19 3030.62,1415.34 3032.36,1415.49 3034.09,1415.65 3035.83,1415.8 3037.57,1415.95 3039.3,1416.11 3041.04,1416.26 3042.77,1416.41 3044.51,1416.57 3046.25,1416.72 3047.98,1416.87 3049.72,1417.03 3051.46,1417.18 3053.19,1417.33 3054.93,1417.49 3056.66,1417.64 3058.4,1417.79 3060.14,1417.95 3061.87,1418.09 3063.61,1418.25 3065.35,1418.4 3067.08,1418.55 3068.82,1418.71 3070.55,1418.86 3072.29,1419.01 3074.03,1419.17 3075.76,1419.32 3077.5,1419.47 3079.24,1419.63 3080.97,1419.78 3082.71,1419.93 3084.44,1420.09 3086.18,1420.24 3087.92,1420.39 3089.65,1420.55 3091.39,1420.7 3093.13,1420.85 3094.86,1421.01 3096.6,1421.16 3098.34,1421.31 3100.07,1421.47 3101.81,1421.62 3103.54,1421.77 3105.28,1421.93 3107.02,1422.08 3108.75,1422.24 3110.49,1422.39 3112.23,1422.54 3113.96,1422.7 3115.7,1422.85 3117.43,1423 3119.17,1423.16 3120.91,1423.31 3122.64,1423.46 3124.38,1423.62 3126.12,1423.77 3127.85,1423.93 3129.59,1424.08 3131.32,1424.24 3133.06,1424.39 3134.8,1424.54 3136.53,1424.7 3138.27,1424.85 3140.01,1425.01 3141.74,1425.16 3143.48,1425.31 3145.21,1425.47 3146.95,1425.62 3148.69,1425.78 3150.42,1425.93 3152.16,1426.09 3153.9,1426.24 3155.63,1426.4 3157.37,1426.55 3159.1,1426.71 3160.84,1426.86 3162.58,1427.02 3164.31,1427.17 3166.05,1427.32 3167.79,1427.48 3169.52,1427.64 3171.26,1427.79 3172.99,1427.95 3174.73,1428.1 3176.47,1428.26 3178.2,1428.41 3179.94,1428.57 3181.68,1428.72 3183.41,1428.88 3185.15,1429.03 3186.88,1429.19 3188.62,1429.34 3190.36,1429.5 3192.09,1429.66 3193.83,1429.81 3195.57,1429.97 3197.3,1430.12 3199.04,1430.28 3200.77,1430.43 3202.51,1430.59 3204.25,1430.75 3205.98,1430.9 3207.72,1431.06 3209.46,1431.21 3211.19,1431.37 3212.93,1431.54 3214.66,1431.7 3216.4,1431.85 3218.14,1432.01 3219.87,1432.16 3221.61,1432.32 3223.35,1432.48 3225.08,1432.64 3226.82,1432.79 3228.55,1432.95 3230.29,1433.11 3232.03,1433.26 3233.76,1433.42 3235.5,1433.58 3237.24,1433.73 3238.97,1433.89 3240.71,1434.05 3242.45,1434.21 3244.18,1434.36 3245.92,1434.52 3247.65,1434.67 3249.39,1434.83 3251.13,1434.99 3252.86,1435.14 3254.6,1435.3 3256.34,1435.46 3258.07,1435.62 3259.81,1435.78 3261.54,1435.94 3263.28,1436.09 3265.02,1436.25 3266.75,1436.41 3268.49,1436.57 3270.23,1436.73 3271.96,1436.88 3273.7,1437.04 3275.43,1437.2 3277.17,1437.36 3278.91,1437.52 3280.64,1437.68 3282.38,1437.84 3284.12,1438 3285.85,1438.16 3287.59,1438.32 3289.32,1438.48 3291.06,1438.64 3292.8,1438.81 3294.53,1438.97 3296.27,1439.13 3298.01,1439.29 3299.74,1439.45 3301.48,1439.61 3303.21,1439.77 3304.95,1439.93 3306.69,1440.09 3308.42,1440.25 3310.16,1440.41 3311.9,1440.57 3313.63,1440.73 3315.37,1440.89 3317.1,1441.05 3318.84,1441.21 3320.58,1441.37 3322.31,1441.54 3324.05,1441.7 3325.79,1441.86 3327.52,1442.02 3329.26,1442.18 3330.99,1442.34 3332.73,1442.5 3334.47,1442.66 3336.2,1442.83 3337.94,1442.99 3339.68,1443.15 3341.41,1443.31 3343.15,1443.47 3344.88,1443.64 3346.62,1443.8 3348.36,1443.96 3350.09,1444.12 3351.83,1444.29 3353.57,1444.45 3355.3,1444.61 3357.04,1444.77 3358.77,1444.94 3360.51,1445.1 3362.25,1445.26 3363.98,1445.42 3365.72,1445.59 3367.46,1445.75 3369.19,1445.91 3370.93,1446.08 3372.66,1446.24 3374.4,1446.41 3376.14,1446.57 3377.87,1446.73 3379.61,1446.9 3381.35,1447.06 3383.08,1447.22 3384.82,1447.39 3386.56,1447.55 3388.29,1447.72 3390.03,1447.88 3391.76,1448.05 3393.5,1448.21 3395.24,1448.38 3396.97,1448.54 3398.71,1448.7 3400.45,1448.87 3402.18,1449.03 3403.92,1449.2 3405.65,1449.37 3407.39,1449.53 3409.13,1449.7 3410.86,1449.85 3412.6,1450.02 3414.34,1450.18 3416.07,1450.35 3417.81,1450.51 3419.54,1450.68 3421.28,1450.84 3423.02,1451.01 3424.75,1451.17 3426.49,1451.33 3428.23,1451.54 3429.96,1451.7 3431.7,1451.87 3433.43,1452.04 3435.17,1452.2 3436.91,1452.37 3438.64,1452.54 3440.38,1452.71 3442.12,1452.88 3443.85,1453.04 3445.59,1453.21 3447.32,1453.38 3449.06,1453.55 3450.8,1453.71 3452.53,1453.88 3454.27,1454.05 3456.01,1454.22 3457.74,1454.38 3459.48,1454.55 3461.21,1454.72 3462.95,1454.89 3464.69,1455.05 3466.42,1455.22 3468.16,1455.39 3469.9,1455.56 3471.63,1455.73 3473.37,1455.9 3475.1,1456.06 3476.84,1456.23 3478.58,1456.4 3480.31,1456.57 3482.05,1456.74 3483.79,1456.91 3485.52,1457.08 3487.26,1457.25 3488.99,1457.42 3490.73,1457.58 3492.47,1457.75 3494.2,1457.92 3495.94,1458.09 3497.68,1458.26 3499.41,1458.43 3501.15,1458.6 3502.88,1458.77 3504.62,1458.94 3506.36,1459.1 3508.09,1459.28 3509.83,1459.45 3511.57,1459.62 3513.3,1459.79 3515.04,1459.96 3516.78,1460.13 3518.51,1460.3 3520.25,1460.47 3521.98,1460.64 3523.72,1460.81 3525.46,1460.98 3527.19,1461.16 3528.93,1461.33 3530.67,1461.5 3532.4,1461.67 3534.14,1461.84 3535.87,1462.01 3537.61,1462.17 3539.35,1462.34 3541.08,1462.51 3542.82,1462.68 3544.56,1462.86 3546.29,1463.03 3548.03,1463.2 3549.76,1463.37 3551.5,1463.54 3553.24,1463.72 3554.97,1463.89 3556.71,1464.06 3558.45,1464.23 3560.18,1464.41 3561.92,1464.58 3563.65,1464.75 3565.39,1464.92 3567.13,1465.1 3568.86,1465.27 3570.6,1465.44 3572.34,1465.62 3574.07,1465.79 3575.81,1465.96 3577.54,1466.13 3579.28,1466.3 3581.02,1466.48 3582.75,1466.65 3584.49,1466.82 3586.23,1467 3587.96,1467.17 3589.7,1467.34 3591.43,1467.52 3593.17,1467.69 3594.91,1467.86 3596.64,1468.04 3598.38,1468.21 3600.12,1468.38 3601.85,1468.56 3603.59,1468.73 3605.32,1468.91 3607.06,1469.08 3608.8,1469.25 3610.53,1469.43 3612.27,1469.6 3614.01,1469.77 3615.74,1469.95 3617.48,1470.13 3619.21,1470.3 3620.95,1470.47 3622.69,1470.65 3624.42,1470.82 3626.16,1471 3627.9,1471.17 3629.63,1471.35 3631.37,1471.52 3633.1,1471.7 3634.84,1471.87 3636.58,1472.04 3638.31,1472.22 3640.05,1472.39 3641.79,1472.57 3643.52,1472.68 3645.26,1472.86 3646.99,1473.04 3648.73,1473.21 3650.47,1473.39 3652.2,1473.56 3653.94,1473.74 3655.68,1473.91 3657.41,1474.09 3659.15,1474.26 3660.89,1474.44 3662.62,1474.62 3664.36,1474.8 3666.09,1474.99 3667.83,1475.16 3669.57,1475.33 3671.3,1475.51 3673.04,1475.68 3674.78,1475.86 3676.51,1476.03 3678.25,1476.21 3679.98,1476.39 3681.72,1476.56 3683.46,1476.74 3685.19,1476.91 3686.93,1477.08 3688.67,1477.26 3690.4,1477.44 3692.14,1477.62 3693.87,1477.8 3695.61,1477.98 3697.35,1478.15 3699.08,1478.33 3700.82,1478.5 3702.56,1478.68 3704.29,1478.85 3706.03,1479.03 3707.76,1479.19 3709.5,1479.36 3711.24,1479.56 3712.97,1479.73 3714.71,1479.91 3716.45,1480.08 3718.18,1480.24 3719.92,1480.42 3721.65,1480.6 3723.39,1480.77 3725.13,1480.95 3726.86,1481.12 3728.6,1481.3 3730.34,1481.47 3732.07,1481.65 3733.81,1481.82 3735.54,1481.99 3737.28,1482.17 3739.02,1482.36 3740.75,1482.53 3742.49,1482.72 3744.23,1482.89 3745.96,1483.06 3747.7,1483.24 3749.43,1483.42 3751.17,1483.59 3752.91,1483.76 3754.64,1483.95 3756.38,1484.12 3758.12,1484.27 3759.85,1484.44 3761.59,1484.63 3763.32,1484.81 3765.06,1484.98 3766.8,1485.16 3768.53,1485.32 3770.27,1485.51 3772.01,1485.69 3773.74,1485.86 3775.48,1486.04 3777.21,1486.22 3778.95,1486.39 3780.69,1486.56 3782.42,1486.73 3784.16,1486.92 3785.9,1487.08 3787.63,1487.27 3789.37,1487.46 3791.11,1487.64 3792.84,1487.84 3794.58,1488.01 3796.31,1488.19 3798.05,1488.37 3799.79,1488.56 3801.52,1488.73 3803.26,1488.91 3805,1489.09 3806.73,1489.26 3808.47,1489.43 3810.2,1489.62 3811.94,1489.79 3813.68,1489.97 3815.41,1490.15 3817.15,1490.33 3818.89,1490.5 3820.62,1490.68 3822.36,1490.85 3824.09,1491.02 3825.83,1491.19 3827.57,1491.37 3829.3,1491.51 3831.04,1491.67 3832.78,1491.85 3834.51,1492.02 3836.25,1492.21 3837.98,1492.37 3839.72,1492.56 3841.46,1492.74 3843.19,1492.91 3844.93,1493.09 3846.67,1493.26 3848.4,1493.44 3850.14,1493.62 3851.87,1493.79 3853.61,1493.97 3855.35,1494.14 3857.08,1494.32 3858.82,1494.49 3860.56,1494.66 3862.29,1494.85 3864.03,1495.02 3865.76,1495.19 3867.5,1495.37 3869.24,1495.53 3870.97,1495.71 3872.71,1495.89 3874.45,1496.06 3876.18,1496.23 3877.92,1496.41 3879.65,1496.57 3881.39,1496.74 3883.13,1496.92 3884.86,1497.09 3886.6,1497.26 3888.34,1497.43 3890.07,1497.63 3891.81,1497.8 3893.54,1497.98 3895.28,1498.15 3897.02,1498.32 3898.75,1498.5 3900.49,1498.67 3902.23,1498.82 3903.96,1498.99 3905.7,1499.17 3907.43,1499.34 3909.17,1499.52 3910.91,1499.7 3912.64,1499.87 3914.38,1500.04 3916.12,1500.21 3917.85,1500.36 3919.59,1500.53 3921.32,1500.7 3923.06,1500.87 3924.8,1501.04 3926.53,1501.21 3928.27,1501.39 3930.01,1501.56 3931.74,1501.73 3933.48,1501.9 3935.22,1502.07 3936.95,1502.24 3938.69,1502.38 3940.42,1502.55 3942.16,1502.72 3943.9,1502.89 3945.63,1503.07 3947.37,1503.24 3949.11,1503.39 3950.84,1503.55 3952.58,1503.72 3954.31,1503.89 3956.05,1504.06 3957.79,1504.22 3959.52,1504.4 3961.26,1504.57 3963,1504.73 3964.73,1504.92 3966.47,1505.08 3968.2,1505.25 3969.94,1505.43 3971.68,1505.6 3973.41,1505.77 3975.15,1505.94 3976.89,1506.1 3978.62,1506.26 3980.36,1506.43 3982.09,1506.6 3983.83,1506.76 3985.57,1506.93 3987.3,1507.1 3989.04,1507.26 3990.78,1507.43 3992.51,1507.59 3994.25,1507.75 3995.98,1507.92 3997.72,1508.08 3999.46,1508.25 4001.19,1508.41 4002.93,1508.57 4004.67,1508.72 4006.4,1508.89 4008.14,1509.05 4009.87,1509.21 4011.61,1509.38 4013.35,1509.54 4015.08,1509.71 4016.82,1509.87 4018.56,1510.03 4020.29,1510.2 4022.03,1510.36 4023.76,1510.52 4025.5,1510.69 4027.24,1510.85 4028.97,1511.01 4030.71,1511.17 4032.45,1511.33 4034.18,1511.49 4035.92,1511.65 4037.65,1511.83 4039.39,1511.99 4041.13,1512.15 4042.86,1512.31 4044.6,1512.47 4046.34,1512.63 4048.07,1512.79 4049.81,1512.94 4051.54,1513.1 4053.28,1513.26 4055.02,1513.43 4056.75,1513.59 4058.49,1513.75 4060.23,1513.91 4061.96,1514.06 4063.7,1514.22 4065.44,1514.36 4067.17,1514.51 4068.91,1514.67 4070.64,1514.83 4072.38,1514.98 4074.12,1515.14 4075.85,1515.3 4077.59,1515.45 4079.33,1515.61 4081.06,1515.73 4082.8,1515.88 4084.53,1516.04 4086.27,1516.19 4088.01,1516.34 4089.74,1516.49 4091.48,1516.64 4093.22,1516.8 4094.95,1516.95 4096.69,1517.11 4098.42,1517.29 4100.16,1517.44 4101.9,1517.59 4103.63,1517.74 4105.37,1517.89 4107.11,1518.04 4108.84,1518.19 4110.58,1518.34 4112.31,1518.45 4114.05,1518.64 4115.79,1518.8 4117.52,1518.95 4119.26,1519.09 4121,1519.23 4122.73,1519.38 4124.47,1519.55 4126.2,1519.7 4127.94,1519.84 4129.68,1519.99 4131.41,1520.14 4133.15,1520.29 4134.89,1520.43 4136.62,1520.58 4138.36,1520.72 4140.09,1520.87 4141.83,1521.01 4143.57,1521.17 4145.3,1521.31 4147.04,1521.46 4148.78,1521.61 4150.51,1521.75 4152.25,1521.9 4153.98,1522.04 4155.72,1522.18 4157.46,1522.32 4159.19,1522.47 4160.93,1522.62 4162.67,1522.76 4164.4,1522.91 4166.14,1523.04 4167.87,1523.19 4169.61,1523.33 4171.35,1523.46 4173.08,1523.61 4174.82,1523.75 4176.56,1523.9 4178.29,1524.04 4180.03,1524.11 4181.76,1524.25 4183.5,1524.39 4185.24,1524.54 4186.97,1524.67 4188.71,1524.8 4190.45,1524.94 4192.18,1525.07 4193.92,1525.2 4195.65,1525.33 4197.39,1525.48 4199.13,1525.6 4200.86,1525.75 4202.6,1525.9 4204.34,1526.04 4206.07,1526.17 4207.81,1526.3 4209.55,1526.44 4211.28,1526.58 4213.02,1526.71 4214.75,1526.85 4216.49,1526.98 4218.23,1527.12 4219.96,1527.26 4221.7,1527.39 4223.44,1527.52 4225.17,1527.65 4226.91,1527.8 4228.64,1527.92 4230.38,1528.05 4232.12,1528.19 4233.85,1528.32 4235.59,1528.45 4237.33,1528.59 4239.06,1528.72 4240.8,1528.85 4242.53,1528.98 4244.27,1529.11 4246.01,1529.24 4247.74,1529.36 4249.48,1529.49 4251.22,1529.62 4252.95,1529.75 4254.69,1529.88 4256.42,1530.01 4258.16,1530.14 4259.9,1530.27 4261.63,1530.4 4263.37,1530.53 4265.11,1530.67 4266.84,1530.78 4268.58,1530.92 4270.31,1531.05 4272.05,1531.18 4273.79,1531.31 4275.52,1531.44 4277.26,1531.57 4279,1531.67 4280.73,1531.79 4282.47,1531.91 4284.2,1532.04 4285.94,1532.16 4287.68,1532.28 4289.41,1532.41 4291.15,1532.53 4292.89,1532.65 4294.62,1532.78 4296.36,1532.9 4298.09,1533.01 4299.83,1533.13 4301.57,1533.25 4303.3,1533.37 4305.04,1533.5 4306.78,1533.62 4308.51,1533.74 4310.25,1533.89 4311.98,1534.01 4313.72,1534.13 4315.46,1534.25 4317.19,1534.37 4318.93,1534.48 4320.67,1534.6 4322.4,1534.72 4324.14,1534.82 4325.87,1534.93 4327.61,1535.06 4329.35,1535.18 4331.08,1535.3 4332.82,1535.41 4334.56,1535.53 4336.29,1535.64 4338.03,1535.76 4339.77,1535.87 4341.5,1535.98 4343.24,1536.09 4344.97,1536.22 4346.71,1536.33 4348.45,1536.46 4350.18,1536.57 4351.92,1536.69 4353.66,1536.8 4355.39,1536.92 4357.13,1537.03 4358.86,1537.14 4360.6,1537.25 4362.34,1537.36 4364.07,1537.46 4365.81,1537.57 4367.55,1537.68 4369.28,1537.78 4371.02,1537.89 4372.75,1537.99 4374.49,1538.1 4376.23,1538.21 4377.96,1538.32 4379.7,1538.43 4381.44,1538.53 4383.17,1538.64 4384.91,1538.74 4386.64,1538.82 4388.38,1538.93 4390.12,1539.04 4391.85,1539.17 4393.59,1539.28 4395.33,1539.38 4397.06,1539.49 4398.8,1539.59 4400.53,1539.71 4402.27,1539.8 4404.01,1539.91 4405.74,1540.02 4407.48,1540.13 4409.22,1540.23 4410.95,1540.34 4412.69,1540.44 4414.42,1540.54 4416.16,1540.65 4417.9,1540.75 4419.63,1540.85 4421.37,1540.95 4423.11,1541.05 4424.84,1541.16 4426.58,1541.24 4428.31,1541.34 4430.05,1541.45 4431.79,1541.56 4433.52,1541.65 4435.26,1541.76 4437,1541.86 4438.73,1541.96 4440.47,1542.06 4442.2,1542.16 4443.94,1542.26 4445.68,1542.36 4447.41,1542.46 4449.15,1542.57 4450.89,1542.67 4452.62,1542.77 4454.36,1542.87 4456.09,1542.97 4457.83,1543.05 4459.57,1543.15 4461.3,1543.24 4463.04,1543.35 4464.78,1543.44 4466.51,1543.53 4468.25,1543.63 4469.98,1543.73 4471.72,1543.81 4473.46,1543.88 4475.19,1543.98 4476.93,1544.07 4478.67,1544.2 4480.4,1544.29 4482.14,1544.38 4483.88,1544.48 4485.61,1544.57 4487.35,1544.67 4489.08,1544.76 4490.82,1544.82 4492.56,1544.91 4494.29,1545 4496.03,1545.1 4497.77,1545.19 4499.5,1545.28 4501.24,1545.37 4502.97,1545.46 4504.71,1545.57 4506.45,1545.66 4508.18,1545.74 4509.92,1545.83 4511.66,1545.92 4513.39,1546 4515.13,1546.1 4516.86,1546.19 4518.6,1546.28 4520.34,1546.37 4522.07,1546.45 4523.81,1546.54 4525.55,1546.62 4527.28,1546.69 4529.02,1546.79 4530.75,1546.88 4532.49,1546.98 4534.23,1547.07 4535.96,1547.16 4537.7,1547.25 4539.44,1547.32 4541.17,1547.39 4542.91,1547.49 4544.64,1547.56 4546.38,1547.62 4548.12,1547.72 4549.85,1547.8 4551.59,1547.88 4553.33,1547.95 4555.06,1548.03 4556.8,1548.12 4558.53,1548.21 4560.27,1548.31 4562.01,1548.39 4563.74,1548.47 4565.48,1548.57 4567.22,1548.65 4568.95,1548.73 4570.69,1548.84 4572.42,1548.93 4574.16,1549 4575.9,1549.1 4577.63,1549.17 4579.37,1549.25 4581.11,1549.33 4582.84,1549.4 4584.58,1549.48 4586.31,1549.56 4588.05,1549.64 4589.79,1549.72 4591.52,1549.8 4593.26,1549.88 4595,1549.96 4596.73,1550.04 4598.47,1550.1 4600.2,1550.18 4601.94,1550.25 4603.68,1550.33 4605.41,1550.41 4607.15,1550.49 4608.89,1550.56 4610.62,1550.64 4612.36,1550.72 4614.1,1550.79 4615.83,1550.87 4617.57,1550.94 4619.3,1551.02 4621.04,1551.1 4622.78,1551.18 4624.51,1551.26 4626.25,1551.36 4627.99,1551.44 4629.72,1551.51 4631.46,1551.57 4633.19,1551.64 4634.93,1551.72 4636.67,1551.79 4638.4,1551.87 4640.14,1551.94 4641.88,1552.02 4643.61,1552.09 4645.35,1552.17 4647.08,1552.24 4648.82,1552.31 4650.56,1552.39 4652.29,1552.46 4654.03,1552.53 4655.77,1552.6 4657.5,1552.68 4659.24,1552.75 4660.97,1552.82 4662.71,1552.9 4664.45,1552.97 4666.18,1553.04 4667.92,1553.1 4669.66,1553.18 4671.39,1553.25 4673.13,1553.32 4674.86,1553.39 4676.6,1553.46 4678.34,1553.53 4680.07,1553.6 4681.81,1553.68 4683.55,1553.75 4685.28,1553.82 4687.02,1553.89 4688.75,1553.97 4690.49,1554.05 4692.23,1554.12 4693.96,1554.19 4695.7,1554.26 4697.44,1554.33 4699.17,1554.4 4700.91,1554.44 4702.64,1554.51 4704.38,1554.58 4706.12,1554.65 4707.85,1554.72 4709.59,1554.79 4711.33,1554.86 4713.06,1554.93 4714.8,1555 4716.53,1555.06 4718.27,1555.12 4720.01,1555.19 4721.74,1555.26 4723.48,1555.33 4725.22,1555.4 4726.95,1555.47 4728.69,1555.53 4730.42,1555.6 4732.16,1555.67 4733.9,1555.73 4735.63,1555.8 4737.37,1555.87 4739.11,1555.93 4740.84,1556 4742.58,1556.07 4744.31,1556.13 4746.05,1556.2 4747.79,1556.27 4749.52,1556.33 4751.26,1556.4 4753,1556.46 4754.73,1556.52 4756.47,1556.58 4758.21,1556.64 4759.94,1556.7 4761.68,1556.76 4763.41,1556.83 4765.15,1556.89 4766.89,1556.94 4768.62,1556.99 4770.36,1557.07 4772.1,1557.13 4773.83,1557.19 4775.57,1557.25 4777.3,1557.36 4779.04,1557.43 4780.78,1557.5 4782.51,1557.56 4784.25,1557.62 4785.99,1557.67 4787.72,1557.75 4789.46,1557.82 4791.19,1557.89 4792.93,1557.95 4794.67,1558.01 4796.4,1558.08 4798.14,1558.13 4799.88,1558.18 4801.61,1558.25 4803.35,1558.32 4805.08,1558.38 4806.82,1558.44 4808.56,1558.5 4810.29,1558.56 4812.03,1558.63 4813.77,1558.68 4815.5,1558.74 4817.24,1558.8 4818.97,1558.86 4820.71,1558.93 4822.45,1558.99 4824.18,1559.07 4825.92,1559.13 4827.66,1559.16 4829.39,1559.22 4831.13,1559.28 4832.86,1559.34 4834.6,1559.39 4836.34,1559.46 4838.07,1559.53 4839.81,1559.59 4841.55,1559.65 4843.28,1559.7 4845.02,1559.76 4846.75,1559.83 4848.49,1559.9 4850.23,1559.96 4851.96,1560.01 4853.7,1560.06 4855.44,1560.09 4857.17,1560.16 4858.91,1560.23 4860.64,1560.32 4862.38,1560.38 4864.12,1560.43 4865.85,1560.48 4867.59,1560.53 4869.33,1560.6 4871.06,1560.66 4872.8,1560.74 4874.53,1560.8 4876.27,1560.84 4878.01,1560.9 4879.74,1560.95 4881.48,1561.01 4883.22,1561.1 4884.95,1561.16 4886.69,1561.23 4888.42,1561.29 4890.16,1561.34 4891.9,1561.4 4893.63,1561.45 4895.37,1561.51 4897.11,1561.57 4898.84,1561.64 4900.58,1561.7 4902.32,1561.76 4904.05,1561.79 4905.79,1561.85 4907.52,1561.9 4909.26,1561.96 4911,1562.02 4912.73,1562.08 4914.47,1562.14 4916.21,1562.2 4917.94,1562.26 4919.68,1562.31 4921.41,1562.37 4923.15,1562.43 4924.89,1562.47 4926.62,1562.53 4928.36,1562.59 4930.1,1562.65 4931.83,1562.71 4933.57,1562.76 4935.3,1562.82 4937.04,1562.88 4938.78,1562.94 4940.51,1563.03 4942.25,1563.09 4943.99,1563.15 4945.72,1563.21 4947.46,1563.26 4949.19,1563.31 4950.93,1563.37 4952.67,1563.43 4954.4,1563.49 4956.14,1563.55 4957.88,1563.61 4959.61,1563.67 4961.35,1563.72 4963.08,1563.77 4964.82,1563.83 4966.56,1563.89 4968.29,1563.97 4970.03,1564.03 4971.77,1564.09 4973.5,1564.15 4975.24,1564.2 4976.97,1564.24 4978.71,1564.3 4980.45,1564.36 4982.18,1564.42 4983.92,1564.49 4985.66,1564.54 4987.39,1564.6 4989.13,1564.65 4990.86,1564.7 4992.6,1564.76 4994.34,1564.82 4996.07,1564.88 4997.81,1564.94 4999.55,1565 5001.28,1565.06 5003.02,1565.1 5004.75,1565.16 5006.49,1565.23 5008.23,1565.29 5009.96,1565.35 5011.7,1565.41 5013.44,1565.47 5015.17,1565.53 5016.91,1565.58 5018.64,1565.65 5020.38,1565.71 5022.12,1565.77 5023.85,1565.82 5025.59,1565.88 5027.33,1565.93 5029.06,1565.99 5030.8,1566.07 5032.54,1566.13 5034.27,1566.2 5036.01,1566.25 5037.74,1566.31 5039.48,1566.37 5041.22,1566.42 5042.95,1566.48 5044.69,1566.54 5046.43,1566.6 5048.16,1566.66 5049.9,1566.72 5051.63,1566.77 5053.37,1566.83 5055.11,1566.89 5056.84,1566.95 5058.58,1567.01 5060.32,1567.07 5062.05,1567.12 5063.79,1567.18 5065.52,1567.24 5067.26,1567.3 5069,1567.36 5070.73,1567.42 5072.47,1567.48 5074.21,1567.54 5075.94,1567.6 5077.68,1567.66 5079.41,1567.72 5081.15,1567.78 5082.89,1567.84 5084.62,1567.9 5086.36,1567.96 5088.1,1568.02 5089.83,1568.07 5091.57,1568.13 5093.3,1568.19 5095.04,1568.25 5096.78,1568.31 5098.51,1568.38 5100.25,1568.43 5101.99,1568.5 5103.72,1568.55 5105.46,1568.61 5107.19,1568.67 5108.93,1568.73 5110.67,1568.79 5112.4,1568.86 5114.14,1568.92 5115.88,1568.98 5117.61,1569.04 5119.35,1569.1 5121.08,1569.15 5122.82,1569.22 5124.56,1569.28 5126.29,1569.34 5128.03,1569.4 5129.77,1569.47 5131.5,1569.53 5133.24,1569.58 5134.97,1569.63 5136.71,1569.69 5138.45,1569.76 5140.18,1569.83 5141.92,1569.89 5143.66,1569.95 5145.39,1570.01 5147.13,1570.07 5148.86,1570.13 5150.6,1570.19 5152.34,1570.26 5154.07,1570.32 5155.81,1570.37 5157.55,1570.43 5159.28,1570.49 5161.02,1570.56 5162.75,1570.62 5164.49,1570.66 5166.23,1570.7 5167.96,1570.74 5169.7,1570.79 5171.44,1570.85 5173.17,1570.92 5174.91,1571.01 5176.65,1571.11 5178.38,1571.19 5180.12,1571.27 5181.85,1571.33 5183.59,1571.37 5185.33,1571.44 5187.06,1571.5 5188.8,1571.58 5190.54,1571.67 5192.27,1571.73 5194.01,1571.79 5195.74,1571.84 5197.48,1571.9 5199.22,1571.97 5200.95,1572.05 5202.69,1572.12 5204.43,1572.17 5206.16,1572.24 5207.9,1572.3 5209.63,1572.38 5211.37,1572.43 5213.11,1572.5 5214.84,1572.56 5216.58,1572.62 5218.32,1572.69 5220.05,1572.75 5221.79,1572.83 5223.52,1572.92 5225.26,1572.99 5227,1573.05 5228.73,1573.11 5230.47,1573.17 5232.21,1573.23 5233.94,1573.31 5235.68,1573.38 5237.41,1573.42 5239.15,1573.5 5240.89,1573.58 5242.62,1573.65 5244.36,1573.72 5246.1,1573.78 5247.83,1573.84 5249.57,1573.91 5251.3,1573.99 5253.04,1574.06 5254.78,1574.13 5256.51,1574.2 5258.25,1574.26 5259.99,1574.33 5261.72,1574.4 5263.46,1574.47 5265.19,1574.53 5266.93,1574.6 5268.67,1574.67 5270.4,1574.74 5272.14,1574.81 5273.88,1574.89 5275.61,1574.96 5277.35,1575.03 5279.08,1575.09 5280.82,1575.16 5282.56,1575.22 5284.29,1575.29 5286.03,1575.37 5287.77,1575.42 5289.5,1575.5 5291.24,1575.58 5292.97,1575.64 5294.71,1575.7 5296.45,1575.76 5298.18,1575.86 5299.92,1575.94 5301.66,1576.02 5303.39,1576.09 5305.13,1576.15 5306.87,1576.23 5308.6,1576.29 5310.34,1576.37 5312.07,1576.43 5313.81,1576.5 5315.55,1576.59 5317.28,1576.64 5319.02,1576.74 5320.76,1576.79 5322.49,1576.88 5324.23,1576.93 5325.96,1577.02 5327.7,1577.1 5329.44,1577.18 5331.17,1577.26 5332.91,1577.34 5334.65,1577.42 5336.38,1577.49 5338.12,1577.55 5339.85,1577.63 5341.59,1577.71 5343.33,1577.79 5345.06,1577.85 5346.8,1577.94 5348.54,1578.02 5350.27,1578.09 5352.01,1578.17 5353.74,1578.28 5355.48,1578.36 5357.22,1578.44 5358.95,1578.51 5360.69,1578.59 5362.43,1578.66 5364.16,1578.74 5365.9,1578.82 5367.63,1578.9 5369.37,1578.98 5371.11,1579.04 5372.84,1579.13 5374.58,1579.2 5376.32,1579.28 5378.05,1579.35 5379.79,1579.47 5381.52,1579.54 5383.26,1579.62 5385,1579.7 5386.73,1579.77 5388.47,1579.86 5390.21,1579.94 5391.94,1580.03 5393.68,1580.11 5395.41,1580.19 5397.15,1580.29 5398.89,1580.36 5400.62,1580.44 5402.36,1580.52 5404.1,1580.61 5405.83,1580.7 5407.57,1580.77 5409.3,1580.85 5411.04,1580.93 5412.78,1581.02 5414.51,1581.1 5416.25,1581.19 5417.99,1581.27 5419.72,1581.36 5421.46,1581.44 5423.19,1581.53 5424.93,1581.62 5426.67,1581.7 5428.4,1581.79 5430.14,1581.88 5431.88,1581.96 5433.61,1582.05 5435.35,1582.14 5437.08,1582.22 5438.82,1582.27 5440.56,1582.34 5442.29,1582.43 5444.03,1582.52 5445.77,1582.61 5447.5,1582.7 5449.24,1582.82 5450.98,1582.91 5452.71,1583 5454.45,1583.09 5456.18,1583.19 5457.92,1583.28 5459.66,1583.37 5461.39,1583.46 5463.13,1583.55 5464.87,1583.63 5466.6,1583.71 5468.34,1583.82 5470.07,1583.91 5471.81,1583.99 5473.55,1584.09 5475.28,1584.18 5477.02,1584.28 5478.76,1584.37 5480.49,1584.46 5482.23,1584.56 5483.96,1584.64 5485.7,1584.74 5487.44,1584.83 5489.17,1584.93 5490.91,1585.02 5492.65,1585.11 5494.38,1585.21 5496.12,1585.3 5497.85,1585.39 5499.59,1585.47 5501.33,1585.57 5503.06,1585.66 5504.8,1585.76 5506.54,1585.85 5508.27,1585.95 5510.01,1586.03 5511.74,1586.13 5513.48,1586.23 5515.22,1586.32 5516.95,1586.41 5518.69,1586.48 5520.43,1586.58 5522.16,1586.64 5523.9,1586.66 5525.63,1586.75 5527.37,1586.86 5529.11,1587.01 5530.84,1587.16 5532.58,1587.3 5534.32,1587.38 5536.05,1587.45 5537.79,1587.54 5539.52,1587.65 5541.26,1587.78 5543,1587.89 5544.73,1587.99 5546.47,1588.07 5548.21,1588.16 5549.94,1588.27 5551.68,1588.4 5553.41,1588.52 5555.15,1588.61 5556.89,1588.69 5558.62,1588.79 5560.36,1588.9 5562.1,1589.02 5563.83,1589.12 5565.57,1589.23 5567.3,1589.32 5569.04,1589.42 5570.78,1589.5 5572.51,1589.62 5574.25,1589.72 5575.99,1589.83 5577.72,1589.92 5579.46,1590.05 5581.2,1590.15 5582.93,1590.26 5584.67,1590.37 5586.4,1590.48 5588.14,1590.58 5589.88,1590.69 5591.61,1590.79 5593.35,1590.91 5595.09,1591.02 5596.82,1591.13 5598.56,1591.23 5600.29,1591.34 5602.03,1591.45 5603.77,1591.56 5605.5,1591.67 5607.24,1591.78 5608.98,1591.89 5610.71,1592.01 5612.45,1592.12 5614.18,1592.23 5615.92,1592.34 5617.66,1592.45 5619.39,1592.56 5621.13,1592.67 5622.87,1592.79 5624.6,1592.9 5626.34,1593.01 5628.07,1593.12 5629.81,1593.23 5631.55,1593.34 5633.28,1593.45 5635.02,1593.57 5636.76,1593.68 5638.49,1593.8 5640.23,1593.91 5641.96,1594.03 5643.7,1594.15 5645.44,1594.26 5647.17,1594.38 5648.91,1594.49 5650.65,1594.57 5652.38,1594.68 5654.12,1594.79 5655.85,1594.9 5657.59,1595.02 5659.33,1595.14 5661.06,1595.26 5662.8,1595.37 5664.54,1595.49 5666.27,1595.6 5668.01,1595.72 5669.74,1595.83 5671.48,1595.95 5673.22,1596.07 5674.95,1596.19 5676.69,1596.31 5678.43,1596.43 5680.16,1596.55 5681.9,1596.66 5683.63,1596.78 5685.37,1596.9 5687.11,1597.02 5688.84,1597.15 5690.58,1597.26 5692.32,1597.41 5694.05,1597.54 5695.79,1597.66 5697.52,1597.78 5699.26,1597.91 5701,1598.03 5702.73,1598.15 5704.47,1598.28 5706.21,1598.4 5707.94,1598.55 5709.68,1598.67 5711.41,1598.79 5713.15,1598.91 5714.89,1599.04 5716.62,1599.16 5718.36,1599.28 5720.1,1599.41 5721.83,1599.52 5723.57,1599.65 5725.31,1599.77 5727.04,1599.9 5728.78,1600.02 5730.51,1600.15 5732.25,1600.27 5733.99,1600.4 5735.72,1600.52 5737.46,1600.65 5739.2,1600.78 5740.93,1600.91 5742.67,1601.03 5744.4,1601.16 5746.14,1601.28 5747.88,1601.41 5749.61,1601.54 5751.35,1601.67 5753.09,1601.8 5754.82,1601.92 5756.56,1602.04 5758.29,1602.17 5760.03,1602.29 5761.77,1602.4 5763.5,1602.53 5765.24,1602.66 5766.98,1602.79 5768.71,1602.92 5770.45,1603.06 5772.18,1603.19 5773.92,1603.32 5775.66,1603.45 5777.39,1603.58 5779.13,1603.71 5780.87,1603.82 5782.6,1603.95 5784.34,1604.09 5786.07,1604.2 5787.81,1604.33 5789.55,1604.47 5791.28,1604.64 5793.02,1604.77 5794.76,1604.9 5796.49,1604.9 "/>
<polyline clip-path="url(#clip802)" style="stroke:#e26f46; stroke-linecap:round; stroke-linejoin:round; stroke-width:8; stroke-opacity:1; fill:none" stroke-dasharray="32, 20" points="934.948,3253.3 934.948,-1555.78 "/>
<polyline clip-path="url(#clip802)" style="stroke:#e26f46; stroke-linecap:round; stroke-linejoin:round; stroke-width:8; stroke-opacity:1; fill:none" stroke-dasharray="32, 20" points="1803.08,3253.3 1803.08,-1555.78 "/>
<polyline clip-path="url(#clip802)" style="stroke:#e26f46; stroke-linecap:round; stroke-linejoin:round; stroke-width:8; stroke-opacity:1; fill:none" stroke-dasharray="32, 20" points="5796.49,3253.3 5796.49,-1555.78 "/>
</svg>
