<?xml version="1.0" encoding="utf-8"?>
<svg xmlns="http://www.w3.org/2000/svg" xmlns:xlink="http://www.w3.org/1999/xlink" width="1500" height="500" viewBox="0 0 6000 2000">
<defs>
  <clipPath id="clip680">
    <rect x="0" y="0" width="6000" height="2000"/>
  </clipPath>
</defs>
<path clip-path="url(#clip680)" d="M0 2000 L6000 2000 L6000 0 L0 0  Z" fill="#ffffff" fill-rule="evenodd" fill-opacity="1"/>
<defs>
  <clipPath id="clip681">
    <rect x="1200" y="0" width="4201" height="2000"/>
  </clipPath>
</defs>
<path clip-path="url(#clip680)" d="M431.431 1650.27 L5952.76 1650.27 L5952.76 47.2441 L431.431 47.2441  Z" fill="#ffffff" fill-rule="evenodd" fill-opacity="1"/>
<defs>
  <clipPath id="clip682">
    <rect x="431" y="47" width="5522" height="1604"/>
  </clipPath>
</defs>
<polyline clip-path="url(#clip682)" style="stroke:#000000; stroke-linecap:round; stroke-linejoin:round; stroke-width:2; stroke-opacity:0.1; fill:none" points="587.695,1650.27 587.695,47.2441 "/>
<polyline clip-path="url(#clip682)" style="stroke:#000000; stroke-linecap:round; stroke-linejoin:round; stroke-width:2; stroke-opacity:0.1; fill:none" points="2323.96,1650.27 2323.96,47.2441 "/>
<polyline clip-path="url(#clip682)" style="stroke:#000000; stroke-linecap:round; stroke-linejoin:round; stroke-width:2; stroke-opacity:0.1; fill:none" points="4060.23,1650.27 4060.23,47.2441 "/>
<polyline clip-path="url(#clip682)" style="stroke:#000000; stroke-linecap:round; stroke-linejoin:round; stroke-width:2; stroke-opacity:0.1; fill:none" points="5796.49,1650.27 5796.49,47.2441 "/>
<polyline clip-path="url(#clip680)" style="stroke:#000000; stroke-linecap:round; stroke-linejoin:round; stroke-width:4; stroke-opacity:1; fill:none" points="431.431,1650.27 5952.76,1650.27 "/>
<polyline clip-path="url(#clip680)" style="stroke:#000000; stroke-linecap:round; stroke-linejoin:round; stroke-width:4; stroke-opacity:1; fill:none" points="587.695,1650.27 587.695,1631.37 "/>
<polyline clip-path="url(#clip680)" style="stroke:#000000; stroke-linecap:round; stroke-linejoin:round; stroke-width:4; stroke-opacity:1; fill:none" points="2323.96,1650.27 2323.96,1631.37 "/>
<polyline clip-path="url(#clip680)" style="stroke:#000000; stroke-linecap:round; stroke-linejoin:round; stroke-width:4; stroke-opacity:1; fill:none" points="4060.23,1650.27 4060.23,1631.37 "/>
<polyline clip-path="url(#clip680)" style="stroke:#000000; stroke-linecap:round; stroke-linejoin:round; stroke-width:4; stroke-opacity:1; fill:none" points="5796.49,1650.27 5796.49,1631.37 "/>
<path clip-path="url(#clip680)" d="M562.341 1757.12 Q562.341 1743.33 565.152 1734.95 Q568.016 1726.52 573.585 1721.95 Q579.208 1717.39 587.695 1717.39 Q593.954 1717.39 598.674 1719.94 Q603.395 1722.43 606.472 1727.21 Q609.548 1731.93 611.299 1738.77 Q613.049 1745.56 613.049 1757.12 Q613.049 1770.81 610.238 1779.24 Q607.426 1787.62 601.804 1792.24 Q596.235 1796.8 587.695 1796.8 Q576.45 1796.8 570.032 1788.74 Q562.341 1779.03 562.341 1757.12 M572.153 1757.12 Q572.153 1776.27 576.609 1782.64 Q581.117 1788.95 587.695 1788.95 Q594.272 1788.95 598.728 1782.58 Q603.236 1776.22 603.236 1757.12 Q603.236 1737.92 598.728 1731.61 Q594.272 1725.3 587.589 1725.3 Q581.011 1725.3 577.086 1730.87 Q572.153 1737.97 572.153 1757.12 Z" fill="#000000" fill-rule="nonzero" fill-opacity="1" /><path clip-path="url(#clip680)" d="M2240.29 1795.47 L2230.74 1795.47 L2230.74 1734.63 Q2227.29 1737.92 2221.67 1741.21 Q2216.1 1744.5 2211.64 1746.14 L2211.64 1736.91 Q2219.65 1733.15 2225.65 1727.79 Q2231.64 1722.43 2234.13 1717.39 L2240.29 1717.39 L2240.29 1795.47 Z" fill="#000000" fill-rule="nonzero" fill-opacity="1" /><path clip-path="url(#clip680)" d="M2264.74 1757.12 Q2264.74 1743.33 2267.55 1734.95 Q2270.41 1726.52 2275.98 1721.95 Q2281.61 1717.39 2290.09 1717.39 Q2296.35 1717.39 2301.07 1719.94 Q2305.79 1722.43 2308.87 1727.21 Q2311.95 1731.93 2313.7 1738.77 Q2315.45 1745.56 2315.45 1757.12 Q2315.45 1770.81 2312.64 1779.24 Q2309.82 1787.62 2304.2 1792.24 Q2298.63 1796.8 2290.09 1796.8 Q2278.85 1796.8 2272.43 1788.74 Q2264.74 1779.03 2264.74 1757.12 M2274.55 1757.12 Q2274.55 1776.27 2279.01 1782.64 Q2283.52 1788.95 2290.09 1788.95 Q2296.67 1788.95 2301.13 1782.58 Q2305.63 1776.22 2305.63 1757.12 Q2305.63 1737.92 2301.13 1731.61 Q2296.67 1725.3 2289.99 1725.3 Q2283.41 1725.3 2279.48 1730.87 Q2274.55 1737.97 2274.55 1757.12 Z" fill="#000000" fill-rule="nonzero" fill-opacity="1" /><path clip-path="url(#clip680)" d="M2325.15 1757.12 Q2325.15 1743.33 2327.97 1734.95 Q2330.83 1726.52 2336.4 1721.95 Q2342.02 1717.39 2350.51 1717.39 Q2356.77 1717.39 2361.49 1719.94 Q2366.21 1722.43 2369.29 1727.21 Q2372.36 1731.93 2374.11 1738.77 Q2375.86 1745.56 2375.86 1757.12 Q2375.86 1770.81 2373.05 1779.24 Q2370.24 1787.62 2364.62 1792.24 Q2359.05 1796.8 2350.51 1796.8 Q2339.26 1796.8 2332.85 1788.74 Q2325.15 1779.03 2325.15 1757.12 M2334.97 1757.12 Q2334.97 1776.27 2339.42 1782.64 Q2343.93 1788.95 2350.51 1788.95 Q2357.09 1788.95 2361.54 1782.58 Q2366.05 1776.22 2366.05 1757.12 Q2366.05 1737.92 2361.54 1731.61 Q2357.09 1725.3 2350.4 1725.3 Q2343.82 1725.3 2339.9 1730.87 Q2334.97 1737.97 2334.97 1757.12 Z" fill="#000000" fill-rule="nonzero" fill-opacity="1" /><path clip-path="url(#clip680)" d="M2385.57 1757.12 Q2385.57 1743.33 2388.38 1734.95 Q2391.24 1726.52 2396.81 1721.95 Q2402.44 1717.39 2410.92 1717.39 Q2417.18 1717.39 2421.9 1719.94 Q2426.62 1722.43 2429.7 1727.21 Q2432.78 1731.93 2434.53 1738.77 Q2436.28 1745.56 2436.28 1757.12 Q2436.28 1770.81 2433.47 1779.24 Q2430.66 1787.62 2425.03 1792.24 Q2419.46 1796.8 2410.92 1796.8 Q2399.68 1796.8 2393.26 1788.74 Q2385.57 1779.03 2385.57 1757.12 M2395.38 1757.12 Q2395.38 1776.27 2399.84 1782.64 Q2404.35 1788.95 2410.92 1788.95 Q2417.5 1788.95 2421.96 1782.58 Q2426.46 1776.22 2426.46 1757.12 Q2426.46 1737.92 2421.96 1731.61 Q2417.5 1725.3 2410.82 1725.3 Q2404.24 1725.3 2400.31 1730.87 Q2395.38 1737.97 2395.38 1757.12 Z" fill="#000000" fill-rule="nonzero" fill-opacity="1" /><path clip-path="url(#clip680)" d="M3995.09 1786.3 L3995.09 1795.47 L3943.69 1795.47 Q3943.59 1792.02 3944.81 1788.84 Q3946.77 1783.59 3951.07 1778.5 Q3955.41 1773.41 3963.58 1766.72 Q3976.26 1756.33 3980.72 1750.28 Q3985.17 1744.18 3985.17 1738.77 Q3985.17 1733.09 3981.09 1729.22 Q3977.06 1725.3 3970.53 1725.3 Q3963.64 1725.3 3959.5 1729.43 Q3955.36 1733.57 3955.31 1740.89 L3945.5 1739.88 Q3946.5 1728.9 3953.08 1723.17 Q3959.66 1717.39 3970.74 1717.39 Q3981.94 1717.39 3988.46 1723.6 Q3994.98 1729.81 3994.98 1738.98 Q3994.98 1743.65 3993.07 1748.16 Q3991.17 1752.67 3986.71 1757.65 Q3982.31 1762.64 3972.02 1771.34 Q3963.42 1778.55 3960.98 1781.15 Q3958.54 1783.7 3956.95 1786.3 L3995.09 1786.3 Z" fill="#000000" fill-rule="nonzero" fill-opacity="1" /><path clip-path="url(#clip680)" d="M4005.33 1757.12 Q4005.33 1743.33 4008.14 1734.95 Q4011 1726.52 4016.57 1721.95 Q4022.19 1717.39 4030.68 1717.39 Q4036.94 1717.39 4041.66 1719.94 Q4046.38 1722.43 4049.46 1727.21 Q4052.54 1731.93 4054.29 1738.77 Q4056.04 1745.56 4056.04 1757.12 Q4056.04 1770.81 4053.22 1779.24 Q4050.41 1787.62 4044.79 1792.24 Q4039.22 1796.8 4030.68 1796.8 Q4019.44 1796.8 4013.02 1788.74 Q4005.33 1779.03 4005.33 1757.12 M4015.14 1757.12 Q4015.14 1776.27 4019.6 1782.64 Q4024.1 1788.95 4030.68 1788.95 Q4037.26 1788.95 4041.71 1782.58 Q4046.22 1776.22 4046.22 1757.12 Q4046.22 1737.92 4041.71 1731.61 Q4037.26 1725.3 4030.58 1725.3 Q4024 1725.3 4020.07 1730.87 Q4015.14 1737.97 4015.14 1757.12 Z" fill="#000000" fill-rule="nonzero" fill-opacity="1" /><path clip-path="url(#clip680)" d="M4065.74 1757.12 Q4065.74 1743.33 4068.55 1734.95 Q4071.42 1726.52 4076.99 1721.95 Q4082.61 1717.39 4091.1 1717.39 Q4097.36 1717.39 4102.08 1719.94 Q4106.8 1722.43 4109.87 1727.21 Q4112.95 1731.93 4114.7 1738.77 Q4116.45 1745.56 4116.45 1757.12 Q4116.45 1770.81 4113.64 1779.24 Q4110.83 1787.62 4105.21 1792.24 Q4099.64 1796.8 4091.1 1796.8 Q4079.85 1796.8 4073.43 1788.74 Q4065.74 1779.03 4065.74 1757.12 M4075.56 1757.12 Q4075.56 1776.27 4080.01 1782.64 Q4084.52 1788.95 4091.1 1788.95 Q4097.67 1788.95 4102.13 1782.58 Q4106.64 1776.22 4106.64 1757.12 Q4106.64 1737.92 4102.13 1731.61 Q4097.67 1725.3 4090.99 1725.3 Q4084.41 1725.3 4080.49 1730.87 Q4075.56 1737.97 4075.56 1757.12 Z" fill="#000000" fill-rule="nonzero" fill-opacity="1" /><path clip-path="url(#clip680)" d="M4126.16 1757.12 Q4126.16 1743.33 4128.97 1734.95 Q4131.83 1726.52 4137.4 1721.95 Q4143.03 1717.39 4151.51 1717.39 Q4157.77 1717.39 4162.49 1719.94 Q4167.21 1722.43 4170.29 1727.21 Q4173.37 1731.93 4175.12 1738.77 Q4176.87 1745.56 4176.87 1757.12 Q4176.87 1770.81 4174.05 1779.24 Q4171.24 1787.62 4165.62 1792.24 Q4160.05 1796.8 4151.51 1796.8 Q4140.27 1796.8 4133.85 1788.74 Q4126.16 1779.03 4126.16 1757.12 M4135.97 1757.12 Q4135.97 1776.27 4140.43 1782.64 Q4144.93 1788.95 4151.51 1788.95 Q4158.09 1788.95 4162.54 1782.58 Q4167.05 1776.22 4167.05 1757.12 Q4167.05 1737.92 4162.54 1731.61 Q4158.09 1725.3 4151.41 1725.3 Q4144.83 1725.3 4140.9 1730.87 Q4135.97 1737.97 4135.97 1757.12 Z" fill="#000000" fill-rule="nonzero" fill-opacity="1" /><path clip-path="url(#clip680)" d="M5680.54 1774.94 L5690.09 1773.67 Q5691.73 1781.79 5695.66 1785.39 Q5699.64 1788.95 5705.31 1788.95 Q5712.05 1788.95 5716.66 1784.28 Q5721.33 1779.61 5721.33 1772.72 Q5721.33 1766.14 5717.03 1761.9 Q5712.74 1757.6 5706.11 1757.6 Q5703.4 1757.6 5699.37 1758.66 L5700.43 1750.28 Q5701.39 1750.39 5701.97 1750.39 Q5708.07 1750.39 5712.95 1747.2 Q5717.83 1744.02 5717.83 1737.39 Q5717.83 1732.14 5714.28 1728.69 Q5710.72 1725.24 5705.1 1725.24 Q5699.53 1725.24 5695.82 1728.74 Q5692.1 1732.25 5691.04 1739.25 L5681.5 1737.55 Q5683.25 1727.95 5689.45 1722.7 Q5695.66 1717.39 5704.89 1717.39 Q5711.25 1717.39 5716.61 1720.15 Q5721.97 1722.86 5724.78 1727.58 Q5727.64 1732.3 5727.64 1737.6 Q5727.64 1742.64 5724.94 1746.78 Q5722.23 1750.92 5716.93 1753.36 Q5723.82 1754.95 5727.64 1759.99 Q5731.46 1764.97 5731.46 1772.5 Q5731.46 1782.69 5724.04 1789.8 Q5716.61 1796.85 5705.26 1796.85 Q5695.02 1796.85 5688.23 1790.75 Q5681.5 1784.65 5680.54 1774.94 Z" fill="#000000" fill-rule="nonzero" fill-opacity="1" /><path clip-path="url(#clip680)" d="M5740.9 1757.12 Q5740.9 1743.33 5743.71 1734.95 Q5746.58 1726.52 5752.15 1721.95 Q5757.77 1717.39 5766.26 1717.39 Q5772.52 1717.39 5777.24 1719.94 Q5781.96 1722.43 5785.03 1727.21 Q5788.11 1731.93 5789.86 1738.77 Q5791.61 1745.56 5791.61 1757.12 Q5791.61 1770.81 5788.8 1779.24 Q5785.99 1787.62 5780.37 1792.24 Q5774.8 1796.8 5766.26 1796.8 Q5755.01 1796.8 5748.59 1788.74 Q5740.9 1779.03 5740.9 1757.12 M5750.72 1757.12 Q5750.72 1776.27 5755.17 1782.64 Q5759.68 1788.95 5766.26 1788.95 Q5772.84 1788.95 5777.29 1782.58 Q5781.8 1776.22 5781.8 1757.12 Q5781.8 1737.92 5777.29 1731.61 Q5772.84 1725.3 5766.15 1725.3 Q5759.57 1725.3 5755.65 1730.87 Q5750.72 1737.97 5750.72 1757.12 Z" fill="#000000" fill-rule="nonzero" fill-opacity="1" /><path clip-path="url(#clip680)" d="M5801.32 1757.12 Q5801.32 1743.33 5804.13 1734.95 Q5806.99 1726.52 5812.56 1721.95 Q5818.19 1717.39 5826.67 1717.39 Q5832.93 1717.39 5837.65 1719.94 Q5842.37 1722.43 5845.45 1727.21 Q5848.53 1731.93 5850.28 1738.77 Q5852.03 1745.56 5852.03 1757.12 Q5852.03 1770.81 5849.22 1779.24 Q5846.4 1787.62 5840.78 1792.24 Q5835.21 1796.8 5826.67 1796.8 Q5815.43 1796.8 5809.01 1788.74 Q5801.32 1779.03 5801.32 1757.12 M5811.13 1757.12 Q5811.13 1776.27 5815.59 1782.64 Q5820.1 1788.95 5826.67 1788.95 Q5833.25 1788.95 5837.71 1782.58 Q5842.21 1776.22 5842.21 1757.12 Q5842.21 1737.92 5837.71 1731.61 Q5833.25 1725.3 5826.57 1725.3 Q5819.99 1725.3 5816.06 1730.87 Q5811.13 1737.97 5811.13 1757.12 Z" fill="#000000" fill-rule="nonzero" fill-opacity="1" /><path clip-path="url(#clip680)" d="M5861.73 1757.12 Q5861.73 1743.33 5864.55 1734.95 Q5867.41 1726.52 5872.98 1721.95 Q5878.6 1717.39 5887.09 1717.39 Q5893.35 1717.39 5898.07 1719.94 Q5902.79 1722.43 5905.87 1727.21 Q5908.94 1731.93 5910.69 1738.77 Q5912.44 1745.56 5912.44 1757.12 Q5912.44 1770.81 5909.63 1779.24 Q5906.82 1787.62 5901.2 1792.24 Q5895.63 1796.8 5887.09 1796.8 Q5875.84 1796.8 5869.43 1788.74 Q5861.73 1779.03 5861.73 1757.12 M5871.55 1757.12 Q5871.55 1776.27 5876 1782.64 Q5880.51 1788.95 5887.09 1788.95 Q5893.67 1788.95 5898.12 1782.58 Q5902.63 1776.22 5902.63 1757.12 Q5902.63 1737.92 5898.12 1731.61 Q5893.67 1725.3 5886.98 1725.3 Q5880.4 1725.3 5876.48 1730.87 Q5871.55 1737.97 5871.55 1757.12 Z" fill="#000000" fill-rule="nonzero" fill-opacity="1" /><path clip-path="url(#clip680)" d="M3091.53 1932.08 L3101.39 1933.3 Q3099.06 1941.95 3092.75 1946.72 Q3086.43 1951.5 3076.62 1951.5 Q3064.26 1951.5 3056.99 1943.91 Q3049.78 1936.27 3049.78 1922.54 Q3049.78 1908.32 3057.1 1900.47 Q3064.42 1892.62 3076.09 1892.62 Q3087.39 1892.62 3094.55 1900.31 Q3101.71 1908 3101.71 1921.95 Q3101.71 1922.8 3101.66 1924.5 L3059.65 1924.5 Q3060.18 1933.78 3064.9 1938.71 Q3069.62 1943.65 3076.67 1943.65 Q3081.92 1943.65 3085.64 1940.89 Q3089.35 1938.13 3091.53 1932.08 M3060.18 1916.65 L3091.63 1916.65 Q3090.99 1909.54 3088.02 1905.99 Q3083.46 1900.47 3076.2 1900.47 Q3069.62 1900.47 3065.11 1904.87 Q3060.65 1909.27 3060.18 1916.65 Z" fill="#000000" fill-rule="nonzero" fill-opacity="1" /><path clip-path="url(#clip680)" d="M3113.38 1971.81 L3113.38 1893.89 L3122.08 1893.89 L3122.08 1901.21 Q3125.15 1896.92 3129.03 1894.79 Q3132.9 1892.62 3138.41 1892.62 Q3145.63 1892.62 3151.14 1896.33 Q3156.66 1900.05 3159.47 1906.83 Q3162.28 1913.57 3162.28 1921.63 Q3162.28 1930.28 3159.15 1937.23 Q3156.08 1944.12 3150.14 1947.84 Q3144.25 1951.5 3137.73 1951.5 Q3132.95 1951.5 3129.13 1949.48 Q3125.37 1947.47 3122.93 1944.39 L3122.93 1971.81 L3113.38 1971.81 M3122.02 1922.38 Q3122.02 1933.25 3126.43 1938.45 Q3130.83 1943.65 3137.09 1943.65 Q3143.45 1943.65 3147.96 1938.29 Q3152.52 1932.88 3152.52 1921.58 Q3152.52 1910.81 3148.07 1905.46 Q3143.67 1900.1 3137.51 1900.1 Q3131.41 1900.1 3126.69 1905.83 Q3122.02 1911.5 3122.02 1922.38 Z" fill="#000000" fill-rule="nonzero" fill-opacity="1" /><path clip-path="url(#clip680)" d="M3170.24 1922.06 Q3170.24 1906.41 3178.94 1898.88 Q3186.21 1892.62 3196.65 1892.62 Q3208.27 1892.62 3215.64 1900.26 Q3223.02 1907.84 3223.02 1921.26 Q3223.02 1932.14 3219.73 1938.4 Q3216.49 1944.6 3210.23 1948.05 Q3204.03 1951.5 3196.65 1951.5 Q3184.83 1951.5 3177.51 1943.91 Q3170.24 1936.33 3170.24 1922.06 M3180.05 1922.06 Q3180.05 1932.88 3184.77 1938.29 Q3189.49 1943.65 3196.65 1943.65 Q3203.76 1943.65 3208.48 1938.24 Q3213.2 1932.83 3213.2 1921.74 Q3213.2 1911.29 3208.43 1905.93 Q3203.71 1900.52 3196.65 1900.52 Q3189.49 1900.52 3184.77 1905.88 Q3180.05 1911.24 3180.05 1922.06 Z" fill="#000000" fill-rule="nonzero" fill-opacity="1" /><path clip-path="url(#clip680)" d="M3270.97 1929.59 L3280.36 1930.81 Q3278.82 1940.52 3272.45 1946.03 Q3266.14 1951.5 3256.91 1951.5 Q3245.35 1951.5 3238.29 1943.96 Q3231.29 1936.38 3231.29 1922.27 Q3231.29 1913.15 3234.32 1906.3 Q3237.34 1899.46 3243.49 1896.07 Q3249.7 1892.62 3256.96 1892.62 Q3266.14 1892.62 3271.98 1897.29 Q3277.81 1901.9 3279.45 1910.44 L3270.17 1911.87 Q3268.85 1906.2 3265.45 1903.33 Q3262.11 1900.47 3257.34 1900.47 Q3250.12 1900.47 3245.61 1905.67 Q3241.1 1910.81 3241.1 1922 Q3241.1 1933.36 3245.45 1938.5 Q3249.8 1943.65 3256.8 1943.65 Q3262.43 1943.65 3266.19 1940.2 Q3269.96 1936.75 3270.97 1929.59 Z" fill="#000000" fill-rule="nonzero" fill-opacity="1" /><path clip-path="url(#clip680)" d="M3288.52 1950.22 L3288.52 1872.46 L3298.07 1872.46 L3298.07 1900.36 Q3304.76 1892.62 3314.94 1892.62 Q3321.2 1892.62 3325.81 1895.11 Q3330.43 1897.55 3332.39 1901.9 Q3334.41 1906.25 3334.41 1914.53 L3334.41 1950.22 L3324.86 1950.22 L3324.86 1914.53 Q3324.86 1907.37 3321.73 1904.13 Q3318.65 1900.84 3312.98 1900.84 Q3308.73 1900.84 3304.97 1903.07 Q3301.25 1905.24 3299.66 1909.01 Q3298.07 1912.78 3298.07 1919.41 L3298.07 1950.22 L3288.52 1950.22 Z" fill="#000000" fill-rule="nonzero" fill-opacity="1" /><polyline clip-path="url(#clip682)" style="stroke:#000000; stroke-linecap:round; stroke-linejoin:round; stroke-width:2; stroke-opacity:0.1; fill:none" points="431.431,1340.27 5952.76,1340.27 "/>
<polyline clip-path="url(#clip682)" style="stroke:#000000; stroke-linecap:round; stroke-linejoin:round; stroke-width:2; stroke-opacity:0.1; fill:none" points="431.431,964.476 5952.76,964.476 "/>
<polyline clip-path="url(#clip682)" style="stroke:#000000; stroke-linecap:round; stroke-linejoin:round; stroke-width:2; stroke-opacity:0.1; fill:none" points="431.431,588.681 5952.76,588.681 "/>
<polyline clip-path="url(#clip682)" style="stroke:#000000; stroke-linecap:round; stroke-linejoin:round; stroke-width:2; stroke-opacity:0.1; fill:none" points="431.431,212.886 5952.76,212.886 "/>
<polyline clip-path="url(#clip680)" style="stroke:#000000; stroke-linecap:round; stroke-linejoin:round; stroke-width:4; stroke-opacity:1; fill:none" points="431.431,1650.27 431.431,47.2441 "/>
<polyline clip-path="url(#clip680)" style="stroke:#000000; stroke-linecap:round; stroke-linejoin:round; stroke-width:4; stroke-opacity:1; fill:none" points="431.431,1340.27 450.328,1340.27 "/>
<polyline clip-path="url(#clip680)" style="stroke:#000000; stroke-linecap:round; stroke-linejoin:round; stroke-width:4; stroke-opacity:1; fill:none" points="431.431,964.476 450.328,964.476 "/>
<polyline clip-path="url(#clip680)" style="stroke:#000000; stroke-linecap:round; stroke-linejoin:round; stroke-width:4; stroke-opacity:1; fill:none" points="431.431,588.681 450.328,588.681 "/>
<polyline clip-path="url(#clip680)" style="stroke:#000000; stroke-linecap:round; stroke-linejoin:round; stroke-width:4; stroke-opacity:1; fill:none" points="431.431,212.886 450.328,212.886 "/>
<path clip-path="url(#clip680)" d="M280.697 1345.26 L229.352 1345.26 L229.352 1336.35 L280.697 1336.35 L280.697 1345.26 Z" fill="#000000" fill-rule="nonzero" fill-opacity="1" /><path clip-path="url(#clip680)" d="M341.431 1369.97 L341.431 1379.15 L290.033 1379.15 Q289.927 1375.7 291.147 1372.52 Q293.109 1367.27 297.406 1362.18 Q301.755 1357.09 309.924 1350.4 Q322.601 1340.01 327.056 1333.96 Q331.512 1327.86 331.512 1322.45 Q331.512 1316.77 327.428 1312.9 Q323.396 1308.98 316.872 1308.98 Q309.977 1308.98 305.839 1313.11 Q301.702 1317.25 301.649 1324.57 L291.836 1323.56 Q292.844 1312.58 299.421 1306.85 Q305.999 1301.07 317.084 1301.07 Q328.276 1301.07 334.801 1307.28 Q341.325 1313.48 341.325 1322.66 Q341.325 1327.33 339.415 1331.84 Q337.506 1336.35 333.05 1341.33 Q328.648 1346.32 318.357 1355.02 Q309.765 1362.23 307.325 1364.83 Q304.885 1367.38 303.293 1369.97 L341.431 1369.97 Z" fill="#000000" fill-rule="nonzero" fill-opacity="1" /><path clip-path="url(#clip680)" d="M294.913 969.462 L243.568 969.462 L243.568 960.551 L294.913 960.551 L294.913 969.462 Z" fill="#000000" fill-rule="nonzero" fill-opacity="1" /><path clip-path="url(#clip680)" d="M341.431 1003.36 L331.883 1003.36 L331.883 942.516 Q328.435 945.805 322.813 949.093 Q317.244 952.382 312.788 954.026 L312.788 944.797 Q320.797 941.031 326.791 935.674 Q332.785 930.316 335.278 925.277 L341.431 925.277 L341.431 1003.36 Z" fill="#000000" fill-rule="nonzero" fill-opacity="1" /><path clip-path="url(#clip680)" d="M290.722 589.211 Q290.722 575.42 293.534 567.039 Q296.398 558.606 301.967 554.044 Q307.59 549.482 316.077 549.482 Q322.336 549.482 327.056 552.028 Q331.777 554.521 334.854 559.295 Q337.93 564.016 339.68 570.858 Q341.431 577.648 341.431 589.211 Q341.431 602.896 338.62 611.33 Q335.808 619.71 330.186 624.325 Q324.616 628.887 316.077 628.887 Q304.832 628.887 298.414 620.824 Q290.722 611.118 290.722 589.211 M300.535 589.211 Q300.535 608.359 304.991 614.724 Q309.499 621.036 316.077 621.036 Q322.654 621.036 327.109 614.671 Q331.618 608.306 331.618 589.211 Q331.618 570.01 327.109 563.698 Q322.654 557.386 315.971 557.386 Q309.393 557.386 305.468 562.955 Q300.535 570.063 300.535 589.211 Z" fill="#000000" fill-rule="nonzero" fill-opacity="1" /><path clip-path="url(#clip680)" d="M341.431 251.766 L331.883 251.766 L331.883 190.926 Q328.435 194.215 322.813 197.503 Q317.244 200.792 312.788 202.436 L312.788 193.207 Q320.797 189.441 326.791 184.084 Q332.785 178.726 335.278 173.687 L341.431 173.687 L341.431 251.766 Z" fill="#000000" fill-rule="nonzero" fill-opacity="1" /><path clip-path="url(#clip680)" d="M116.024 1108.98 L38.2644 1108.98 L38.2644 1099.44 L116.024 1099.44 L116.024 1108.98 Z" fill="#000000" fill-rule="nonzero" fill-opacity="1" /><path clip-path="url(#clip680)" d="M87.859 1088.19 Q72.2115 1088.19 64.6795 1079.49 Q58.4205 1072.22 58.4205 1061.78 Q58.4205 1050.16 66.0586 1042.79 Q73.6436 1035.41 87.0633 1035.41 Q97.937 1035.41 104.196 1038.7 Q110.402 1041.94 113.85 1048.2 Q117.297 1054.4 117.297 1061.78 Q117.297 1073.6 109.712 1080.92 Q102.127 1088.19 87.859 1088.19 M87.859 1078.38 Q98.6796 1078.38 104.09 1073.66 Q109.447 1068.94 109.447 1061.78 Q109.447 1054.67 104.037 1049.95 Q98.6266 1045.23 87.5407 1045.23 Q77.0914 1045.23 71.7341 1050 Q66.3238 1054.72 66.3238 1061.78 Q66.3238 1068.94 71.6811 1073.66 Q77.0384 1078.38 87.859 1078.38 Z" fill="#000000" fill-rule="nonzero" fill-opacity="1" /><path clip-path="url(#clip680)" d="M120.692 1025.97 L122.071 1016.69 Q126.368 1016.11 128.33 1013.45 Q130.982 1009.9 130.982 1003.75 Q130.982 997.117 128.33 993.51 Q125.678 989.903 120.904 988.63 Q117.987 987.888 108.652 987.941 Q116.024 994.2 116.024 1003.54 Q116.024 1015.15 107.644 1021.52 Q99.2631 1027.88 87.5407 1027.88 Q79.4783 1027.88 72.6889 1024.96 Q65.8464 1022.05 62.1335 1016.53 Q58.4205 1010.96 58.4205 1003.48 Q58.4205 993.51 66.4829 987.039 L59.6935 987.039 L59.6935 978.234 L108.386 978.234 Q121.541 978.234 127.004 980.939 Q132.521 983.591 135.703 989.426 Q138.886 995.208 138.886 1003.69 Q138.886 1013.77 134.324 1019.98 Q129.815 1026.18 120.692 1025.97 M86.8512 1018.07 Q97.937 1018.07 103.029 1013.67 Q108.121 1009.26 108.121 1002.63 Q108.121 996.056 103.082 991.601 Q97.9901 987.145 87.1694 987.145 Q76.8262 987.145 71.575 991.76 Q66.3238 996.321 66.3238 1002.79 Q66.3238 1009.16 71.522 1013.61 Q76.6671 1018.07 86.8512 1018.07 Z" fill="#000000" fill-rule="nonzero" fill-opacity="1" /><path clip-path="url(#clip680)" d="M116.024 930.496 L116.024 940.044 L55.1849 940.044 Q58.4736 943.491 61.7622 949.114 Q65.0508 954.683 66.6951 959.139 L57.4658 959.139 Q53.6997 951.129 48.3425 945.136 Q42.9852 939.142 37.9462 936.649 L37.9462 930.496 L116.024 930.496 Z" fill="#000000" fill-rule="nonzero" fill-opacity="1" /><path clip-path="url(#clip680)" d="M77.6749 906.043 Q63.8839 906.043 55.5032 903.232 Q47.0695 900.368 42.5078 894.799 Q37.9462 889.176 37.9462 880.689 Q37.9462 874.43 40.4922 869.71 Q42.9852 864.989 47.759 861.912 Q52.4798 858.836 59.3222 857.085 Q66.1116 855.335 77.6749 855.335 Q91.3598 855.335 99.7935 858.146 Q108.174 860.958 112.789 866.58 Q117.35 872.149 117.35 880.689 Q117.35 891.934 109.288 898.352 Q99.5813 906.043 77.6749 906.043 M77.6749 896.231 Q96.8231 896.231 103.188 891.775 Q109.5 887.266 109.5 880.689 Q109.5 874.112 103.135 869.656 Q96.7701 865.148 77.6749 865.148 Q58.4736 865.148 52.1615 869.656 Q45.8495 874.112 45.8495 880.795 Q45.8495 887.373 51.4189 891.298 Q58.5266 896.231 77.6749 896.231 Z" fill="#000000" fill-rule="nonzero" fill-opacity="1" /><path clip-path="url(#clip680)" d="M138.886 824.73 Q128.914 832.633 115.547 838.096 Q102.18 843.56 87.859 843.56 Q75.2349 843.56 63.6717 839.475 Q50.252 834.702 36.9384 824.73 L36.9384 817.887 Q47.9712 824.305 52.6919 826.374 Q60.0118 829.61 67.9681 831.466 Q77.887 833.747 87.912 833.747 Q113.425 833.747 138.886 817.887 L138.886 824.73 Z" fill="#000000" fill-rule="nonzero" fill-opacity="1" /><path clip-path="url(#clip680)" d="M116.024 807.014 L38.2644 807.014 L38.2644 797.466 L116.024 797.466 L116.024 807.014 Z" fill="#000000" fill-rule="nonzero" fill-opacity="1" /><path clip-path="url(#clip680)" d="M87.859 786.221 Q72.2115 786.221 64.6795 777.522 Q58.4205 770.255 58.4205 759.806 Q58.4205 748.19 66.0586 740.817 Q73.6436 733.444 87.0633 733.444 Q97.937 733.444 104.196 736.732 Q110.402 739.968 113.85 746.227 Q117.297 752.433 117.297 759.806 Q117.297 771.634 109.712 778.954 Q102.127 786.221 87.859 786.221 M87.859 776.408 Q98.6796 776.408 104.09 771.687 Q109.447 766.967 109.447 759.806 Q109.447 752.698 104.037 747.977 Q98.6266 743.257 87.5407 743.257 Q77.0914 743.257 71.7341 748.03 Q66.3238 752.751 66.3238 759.806 Q66.3238 766.967 71.6811 771.687 Q77.0384 776.408 87.859 776.408 Z" fill="#000000" fill-rule="nonzero" fill-opacity="1" /><path clip-path="url(#clip680)" d="M99.21 726.071 L97.7249 716.629 Q103.4 715.834 106.424 712.227 Q109.447 708.567 109.447 702.043 Q109.447 695.466 106.795 692.283 Q104.09 689.1 100.483 689.1 Q97.2475 689.1 95.391 691.912 Q94.118 693.874 92.1554 701.672 Q89.5033 712.174 87.5938 716.258 Q85.6312 720.289 82.2365 722.411 Q78.7888 724.48 74.6515 724.48 Q70.8855 724.48 67.7029 722.782 Q64.4673 721.032 62.3456 718.062 Q60.7013 715.834 59.5874 712.015 Q58.4205 708.143 58.4205 703.74 Q58.4205 697.11 60.33 692.124 Q62.2396 687.085 65.5282 684.698 Q68.7638 682.311 74.2271 681.409 L75.5001 690.745 Q71.1507 691.381 68.7107 694.458 Q66.2708 697.481 66.2708 703.051 Q66.2708 709.628 68.4455 712.439 Q70.6202 715.25 73.5376 715.25 Q75.394 715.25 76.8792 714.083 Q78.4175 712.916 79.4253 710.423 Q79.9557 708.991 81.8652 701.99 Q84.5704 691.859 86.3208 687.881 Q88.0181 683.849 91.3067 681.568 Q94.5954 679.288 99.4752 679.288 Q104.249 679.288 108.492 682.099 Q112.683 684.857 115.017 690.108 Q117.297 695.359 117.297 701.99 Q117.297 712.97 112.736 718.751 Q108.174 724.48 99.21 726.071 Z" fill="#000000" fill-rule="nonzero" fill-opacity="1" /><path clip-path="url(#clip680)" d="M99.21 671.756 L97.7249 662.314 Q103.4 661.519 106.424 657.912 Q109.447 654.252 109.447 647.728 Q109.447 641.15 106.795 637.968 Q104.09 634.785 100.483 634.785 Q97.2475 634.785 95.391 637.596 Q94.118 639.559 92.1554 647.356 Q89.5033 657.859 87.5938 661.943 Q85.6312 665.974 82.2365 668.096 Q78.7888 670.164 74.6515 670.164 Q70.8855 670.164 67.7029 668.467 Q64.4673 666.717 62.3456 663.746 Q60.7013 661.519 59.5874 657.699 Q58.4205 653.827 58.4205 649.425 Q58.4205 642.795 60.33 637.809 Q62.2396 632.77 65.5282 630.383 Q68.7638 627.996 74.2271 627.094 L75.5001 636.43 Q71.1507 637.066 68.7107 640.142 Q66.2708 643.166 66.2708 648.735 Q66.2708 655.313 68.4455 658.124 Q70.6202 660.935 73.5376 660.935 Q75.394 660.935 76.8792 659.768 Q78.4175 658.601 79.4253 656.108 Q79.9557 654.676 81.8652 647.674 Q84.5704 637.543 86.3208 633.565 Q88.0181 629.534 91.3067 627.253 Q94.5954 624.972 99.4752 624.972 Q104.249 624.972 108.492 627.784 Q112.683 630.542 115.017 635.793 Q117.297 641.044 117.297 647.674 Q117.297 658.654 112.736 664.436 Q108.174 670.164 99.21 671.756 Z" fill="#000000" fill-rule="nonzero" fill-opacity="1" /><path clip-path="url(#clip680)" d="M138.886 607.362 L138.886 614.205 Q113.425 598.345 87.912 598.345 Q77.9401 598.345 68.1273 600.626 Q60.1709 602.429 52.8511 605.665 Q48.0773 607.734 36.9384 614.205 L36.9384 607.362 Q50.252 597.39 63.6717 592.617 Q75.2349 588.532 87.859 588.532 Q102.18 588.532 115.547 594.049 Q128.914 599.512 138.886 607.362 Z" fill="#000000" fill-rule="nonzero" fill-opacity="1" /><polyline clip-path="url(#clip682)" style="stroke:#009af9; stroke-linecap:round; stroke-linejoin:round; stroke-width:16; stroke-opacity:1; fill:none" points="587.695,92.6128 589.431,96.4115 591.167,100.227 592.904,104.058 594.64,107.9 596.376,111.754 598.112,115.618 599.849,119.492 601.585,123.372 603.321,127.258 605.057,131.148 606.794,135.039 608.53,138.932 610.266,142.825 612.002,146.717 613.739,150.608 615.475,154.496 617.211,158.382 618.948,162.264 620.684,166.141 622.42,170.014 624.156,173.881 625.893,177.742 627.629,181.596 629.365,185.443 631.101,189.282 632.838,193.114 634.574,196.937 636.31,200.752 638.046,204.559 639.783,208.356 641.519,212.145 643.255,215.926 644.991,219.698 646.728,223.461 648.464,227.216 650.2,230.962 651.937,234.701 653.673,238.43 655.409,242.152 657.145,245.866 658.882,249.571 660.618,253.269 662.354,256.959 664.09,260.641 665.827,264.315 667.563,267.981 669.299,271.639 671.035,275.288 672.772,278.929 674.508,282.562 676.244,286.185 677.981,289.8 679.717,293.404 681.453,296.999 683.189,300.583 684.926,304.156 686.662,307.718 688.398,311.268 690.134,314.805 691.871,318.329 693.607,321.838 695.343,325.333 697.079,328.813 698.816,332.276 700.552,335.723 702.288,339.152 704.025,342.562 705.761,345.953 707.497,349.323 709.233,352.673 710.97,356 712.706,359.305 714.442,362.586 716.178,365.843 717.915,369.074 719.651,372.28 721.387,375.458 723.123,378.608 724.86,381.73 726.596,384.822 728.332,387.884 730.069,390.916 731.805,393.915 733.541,396.882 735.277,399.816 737.014,402.716 738.75,405.581 740.486,408.412 742.222,411.207 743.959,413.966 745.695,416.688 747.431,419.374 749.167,422.022 750.904,424.632 752.64,427.204 754.376,429.737 756.113,432.232 757.849,434.688 759.585,437.106 761.321,439.484 763.058,441.823 764.794,444.122 766.53,446.383 768.266,448.605 770.003,450.787 771.739,452.931 773.475,455.036 775.211,457.103 776.948,459.132 778.684,461.123 780.42,463.076 782.156,464.992 783.893,466.872 785.629,468.716 787.365,470.524 789.102,472.296 790.838,474.034 792.574,475.738 794.31,477.408 796.047,479.045 797.783,480.649 799.519,482.222 801.255,483.764 802.992,485.275 804.728,486.756 806.464,488.208 808.2,489.632 809.937,491.027 811.673,492.396 813.409,493.738 815.146,495.054 816.882,496.345 818.618,497.611 820.354,498.854 822.091,500.073 823.827,501.27 825.563,502.445 827.299,503.599 829.036,504.732 830.772,505.845 832.508,506.939 834.244,508.014 835.981,509.071 837.717,510.11 839.453,511.133 841.19,512.139 842.926,513.128 844.662,514.103 846.398,515.062 848.135,516.007 849.871,516.939 851.607,517.856 853.343,518.761 855.08,519.653 856.816,520.533 858.552,521.401 860.288,522.257 862.025,523.103 863.761,523.938 865.497,524.763 867.234,525.578 868.97,526.383 870.706,527.179 872.442,527.966 874.179,528.744 875.915,529.514 877.651,530.276 879.387,531.029 881.124,531.775 882.86,532.514 884.596,533.246 886.332,533.97 888.069,534.688 889.805,535.399 891.541,536.104 893.277,536.802 895.014,537.494 896.75,538.181 898.486,538.862 900.223,539.537 901.959,540.207 903.695,540.871 905.431,541.531 907.168,542.185 908.904,542.834 910.64,543.478 912.376,544.118 914.113,544.753 915.849,545.384 917.585,546.01 919.321,546.632 921.058,547.249 922.794,547.862 924.53,548.471 926.267,549.077 928.003,549.678 929.739,550.275 931.475,550.868 933.212,551.458 934.948,552.044 936.684,552.626 938.42,553.204 940.157,553.779 941.893,554.351 943.629,554.919 945.365,555.483 947.102,556.044 948.838,556.602 950.574,557.157 952.311,557.708 954.047,558.256 955.783,558.801 957.519,559.342 959.256,559.881 960.992,560.416 962.728,560.948 964.464,561.478 966.201,562.004 967.937,562.527 969.673,563.047 971.409,563.565 973.146,564.079 974.882,564.591 976.618,565.1 978.355,565.606 980.091,566.109 981.827,566.609 983.563,567.107 985.3,567.602 987.036,568.094 988.772,568.584 990.508,569.071 992.245,569.555 993.981,570.037 995.717,570.517 997.453,570.993 999.19,571.467 1000.93,571.939 1002.66,572.408 1004.4,572.875 1006.13,573.339 1007.87,573.801 1009.61,574.26 1011.34,574.717 1013.08,575.172 1014.82,575.624 1016.55,576.074 1018.29,576.522 1020.02,576.967 1021.76,577.41 1023.5,577.851 1025.23,578.29 1026.97,578.726 1028.71,579.161 1030.44,579.593 1032.18,580.023 1033.92,580.451 1035.65,580.877 1037.39,581.3 1039.12,581.722 1040.86,582.142 1042.6,582.559 1044.33,582.975 1046.07,583.388 1047.81,583.8 1049.54,584.21 1051.28,584.617 1053.01,585.023 1054.75,585.427 1056.49,585.829 1058.22,586.229 1059.96,586.628 1061.7,587.024 1063.43,587.419 1065.17,587.812 1066.9,588.203 1068.64,588.592 1070.38,588.98 1072.11,589.366 1073.85,589.75 1075.59,590.133 1077.32,590.514 1079.06,590.893 1080.79,591.271 1082.53,591.647 1084.27,592.021 1086,592.394 1087.74,592.765 1089.48,593.135 1091.21,593.503 1092.95,593.87 1094.68,594.235 1096.42,594.598 1098.16,594.961 1099.89,595.321 1101.63,595.681 1103.37,596.039 1105.1,596.395 1106.84,596.75 1108.57,597.104 1110.31,597.456 1112.05,597.807 1113.78,598.157 1115.52,598.505 1117.26,598.853 1118.99,599.198 1120.73,599.543 1122.46,599.886 1124.2,600.228 1125.94,600.569 1127.67,600.909 1129.41,601.247 1131.15,601.585 1132.88,601.921 1134.62,602.256 1136.35,602.59 1138.09,602.922 1139.83,603.254 1141.56,603.584 1143.3,603.914 1145.04,604.242 1146.77,604.57 1148.51,604.896 1150.24,605.221 1151.98,605.545 1153.72,605.869 1155.45,606.191 1157.19,606.512 1158.93,606.833 1160.66,607.152 1162.4,607.471 1164.13,607.788 1165.87,608.105 1167.61,608.421 1169.34,608.736 1171.08,609.05 1172.82,609.363 1174.55,609.676 1176.29,609.987 1178.03,610.298 1179.76,610.608 1181.5,610.917 1183.23,611.226 1184.97,611.533 1186.71,611.84 1188.44,612.147 1190.18,612.452 1191.92,612.757 1193.65,613.061 1195.39,613.364 1197.12,613.667 1198.86,613.969 1200.6,614.27 1202.33,614.571 1204.07,614.871 1205.81,615.171 1207.54,615.47 1209.28,615.768 1211.01,616.066 1212.75,616.363 1214.49,616.66 1216.22,616.956 1217.96,617.251 1219.7,617.546 1221.43,617.841 1223.17,618.135 1224.9,618.428 1226.64,618.721 1228.38,619.014 1230.11,619.306 1231.85,619.598 1233.59,619.889 1235.32,620.18 1237.06,620.47 1238.79,620.76 1240.53,621.05 1242.27,621.339 1244,621.628 1245.74,621.916 1247.48,622.204 1249.21,622.492 1250.95,622.78 1252.68,623.067 1254.42,623.353 1256.16,623.64 1257.89,623.926 1259.63,624.212 1261.37,624.498 1263.1,624.783 1264.84,625.069 1266.57,625.354 1268.31,625.638 1270.05,625.923 1271.78,626.207 1273.52,626.491 1275.26,626.775 1276.99,627.059 1278.73,627.342 1280.46,627.626 1282.2,627.909 1283.94,628.192 1285.67,628.475 1287.41,628.758 1289.15,629.041 1290.88,629.323 1292.62,629.606 1294.35,629.888 1296.09,630.171 1297.83,630.453 1299.56,630.736 1301.3,631.018 1303.04,631.3 1304.77,631.582 1306.51,631.864 1308.25,632.146 1309.98,632.429 1311.72,632.711 1313.45,632.993 1315.19,633.275 1316.93,633.557 1318.66,633.84 1320.4,634.122 1322.14,634.404 1323.87,634.687 1325.61,634.969 1327.34,635.252 1329.08,635.535 1330.82,635.818 1332.55,636.101 1334.29,636.384 1336.03,636.667 1337.76,636.95 1339.5,637.234 1341.23,637.517 1342.97,637.801 1344.71,638.085 1346.44,638.369 1348.18,638.654 1349.92,638.938 1351.65,639.223 1353.39,639.508 1355.12,639.794 1356.86,640.079 1358.6,640.365 1360.33,640.651 1362.07,640.937 1363.81,641.224 1365.54,641.51 1367.28,641.797 1369.01,642.085 1370.75,642.372 1372.49,642.66 1374.22,642.949 1375.96,643.237 1377.7,643.526 1379.43,643.816 1381.17,644.105 1382.9,644.395 1384.64,644.686 1386.38,644.977 1388.11,645.268 1389.85,645.559 1391.59,645.851 1393.32,646.144 1395.06,646.436 1396.79,646.73 1398.53,647.023 1400.27,647.317 1402,647.612 1403.74,647.907 1405.48,648.202 1407.21,648.498 1408.95,648.795 1410.68,649.092 1412.42,649.389 1414.16,649.687 1415.89,649.985 1417.63,650.284 1419.37,650.584 1421.1,650.884 1422.84,651.184 1424.57,651.486 1426.31,651.787 1428.05,652.089 1429.78,652.392 1431.52,652.696 1433.26,653 1434.99,653.304 1436.73,653.61 1438.46,653.915 1440.2,654.222 1441.94,654.529 1443.67,654.837 1445.41,655.145 1447.15,655.454 1448.88,655.764 1450.62,656.074 1452.36,656.385 1454.09,656.697 1455.83,657.009 1457.56,657.323 1459.3,657.636 1461.04,657.951 1462.77,658.266 1464.51,658.582 1466.25,658.899 1467.98,659.217 1469.72,659.535 1471.45,659.854 1473.19,660.174 1474.93,660.494 1476.66,660.816 1478.4,661.138 1480.14,661.461 1481.87,661.785 1483.61,662.109 1485.34,662.435 1487.08,662.761 1488.82,663.088 1490.55,663.416 1492.29,663.745 1494.03,664.074 1495.76,664.405 1497.5,664.736 1499.23,665.069 1500.97,665.402 1502.71,665.736 1504.44,666.071 1506.18,666.407 1507.92,666.744 1509.65,667.082 1511.39,667.421 1513.12,667.76 1514.86,668.101 1516.6,668.443 1518.33,668.785 1520.07,669.129 1521.81,669.473 1523.54,669.819 1525.28,670.166 1527.01,670.513 1528.75,670.862 1530.49,671.212 1532.22,671.562 1533.96,671.914 1535.7,672.267 1537.43,672.62 1539.17,672.975 1540.9,673.331 1542.64,673.688 1544.38,674.047 1546.11,674.406 1547.85,674.766 1549.59,675.128 1551.32,675.49 1553.06,675.854 1554.79,676.219 1556.53,676.585 1558.27,676.952 1560,677.32 1561.74,677.689 1563.48,678.06 1565.21,678.432 1566.95,678.805 1568.68,679.179 1570.42,679.554 1572.16,679.931 1573.89,680.308 1575.63,680.687 1577.37,681.068 1579.1,681.449 1580.84,681.832 1582.57,682.216 1584.31,682.601 1586.05,682.988 1587.78,683.375 1589.52,683.764 1591.26,684.155 1592.99,684.546 1594.73,684.939 1596.47,685.334 1598.2,685.729 1599.94,686.126 1601.67,686.524 1603.41,686.924 1605.15,687.325 1606.88,687.727 1608.62,688.131 1610.36,688.536 1612.09,688.942 1613.83,689.35 1615.56,689.759 1617.3,690.169 1619.04,690.581 1620.77,690.995 1622.51,691.409 1624.25,691.826 1625.98,692.243 1627.72,692.662 1629.45,693.083 1631.19,693.505 1632.93,693.928 1634.66,694.353 1636.4,694.78 1638.14,695.207 1639.87,695.637 1641.61,696.068 1643.34,696.5 1645.08,696.934 1646.82,697.369 1648.55,697.806 1650.29,698.244 1652.03,698.684 1653.76,699.126 1655.5,699.569 1657.23,700.013 1658.97,700.459 1660.71,700.907 1662.44,701.356 1664.18,701.807 1665.92,702.259 1667.65,702.713 1669.39,703.169 1671.12,703.626 1672.86,704.085 1674.6,704.545 1676.33,705.007 1678.07,705.471 1679.81,705.936 1681.54,706.403 1683.28,706.871 1685.01,707.341 1686.75,707.813 1688.49,708.287 1690.22,708.762 1691.96,709.238 1693.7,709.717 1695.43,710.197 1697.17,710.679 1698.9,711.162 1700.64,711.647 1702.38,712.134 1704.11,712.623 1705.85,713.113 1707.59,713.605 1709.32,714.099 1711.06,714.594 1712.79,715.091 1714.53,715.59 1716.27,716.09 1718,716.593 1719.74,717.097 1721.48,717.602 1723.21,718.11 1724.95,718.619 1726.69,719.13 1728.42,719.643 1730.16,720.157 1731.89,720.674 1733.63,721.192 1735.37,721.711 1737.1,722.233 1738.84,722.756 1740.58,723.281 1742.31,723.808 1744.05,724.337 1745.78,724.867 1747.52,725.4 1749.26,725.934 1750.99,726.469 1752.73,727.007 1754.47,727.546 1756.2,728.088 1757.94,728.631 1759.67,729.175 1761.41,729.722 1763.15,730.27 1764.88,730.82 1766.62,731.372 1768.36,731.926 1770.09,732.482 1771.83,733.039 1773.56,733.598 1775.3,734.16 1777.04,734.722 1778.77,735.287 1780.51,735.853 1782.25,736.422 1783.98,736.992 1785.72,737.564 1787.45,738.137 1789.19,738.713 1790.93,739.29 1792.66,739.869 1794.4,740.45 1796.14,741.033 1797.87,741.618 1799.61,742.204 1801.34,742.792 1803.08,743.382 1804.82,743.974 1806.55,744.567 1808.29,745.163 1810.03,745.76 1811.76,746.359 1813.5,746.959 1815.23,747.562 1816.97,748.166 1818.71,748.772 1820.44,749.38 1822.18,749.99 1823.92,750.601 1825.65,751.214 1827.39,751.829 1829.12,752.446 1830.86,753.064 1832.6,753.684 1834.33,754.306 1836.07,754.93 1837.81,755.556 1839.54,756.183 1841.28,756.812 1843.01,757.442 1844.75,758.075 1846.49,758.709 1848.22,759.345 1849.96,759.982 1851.7,760.621 1853.43,761.262 1855.17,761.905 1856.9,762.549 1858.64,763.195 1860.38,763.843 1862.11,764.492 1863.85,765.143 1865.59,765.795 1867.32,766.45 1869.06,767.106 1870.8,767.763 1872.53,768.422 1874.27,769.083 1876,769.746 1877.74,770.41 1879.48,771.075 1881.21,771.742 1882.95,772.411 1884.69,773.081 1886.42,773.753 1888.16,774.427 1889.89,775.102 1891.63,775.778 1893.37,776.456 1895.1,777.136 1896.84,777.817 1898.58,778.5 1900.31,779.184 1902.05,779.87 1903.78,780.557 1905.52,781.245 1907.26,781.935 1908.99,782.627 1910.73,783.32 1912.47,784.014 1914.2,784.71 1915.94,785.407 1917.67,786.105 1919.41,786.805 1921.15,787.507 1922.88,788.209 1924.62,788.913 1926.36,789.619 1928.09,790.325 1929.83,791.033 1931.56,791.743 1933.3,792.453 1935.04,793.165 1936.77,793.879 1938.51,794.593 1940.25,795.309 1941.98,796.026 1943.72,796.744 1945.45,797.463 1947.19,798.184 1948.93,798.906 1950.66,799.629 1952.4,800.353 1954.14,801.078 1955.87,801.805 1957.61,802.532 1959.34,803.261 1961.08,803.991 1962.82,804.722 1964.55,805.454 1966.29,806.187 1968.03,806.921 1969.76,807.656 1971.5,808.393 1973.23,809.13 1974.97,809.868 1976.71,810.607 1978.44,811.347 1980.18,812.089 1981.92,812.831 1983.65,813.574 1985.39,814.318 1987.12,815.063 1988.86,815.808 1990.6,816.555 1992.33,817.303 1994.07,818.051 1995.81,818.8 1997.54,819.55 1999.28,820.301 2001.02,821.053 2002.75,821.805 2004.49,822.559 2006.22,823.313 2007.96,824.067 2009.7,824.823 2011.43,825.579 2013.17,826.336 2014.91,827.093 2016.64,827.852 2018.38,828.611 2020.11,829.37 2021.85,830.13 2023.59,830.891 2025.32,831.653 2027.06,832.415 2028.8,833.177 2030.53,833.941 2032.27,834.704 2034,835.469 2035.74,836.233 2037.48,836.999 2039.21,837.764 2040.95,838.531 2042.69,839.297 2044.42,840.064 2046.16,840.832 2047.89,841.6 2049.63,842.369 2051.37,843.137 2053.1,843.907 2054.84,844.676 2056.58,845.446 2058.31,846.216 2060.05,846.987 2061.78,847.758 2063.52,848.529 2065.26,849.301 2066.99,850.072 2068.73,850.844 2070.47,851.617 2072.2,852.389 2073.94,853.162 2075.67,853.935 2077.41,854.708 2079.15,855.481 2080.88,856.254 2082.62,857.028 2084.36,857.802 2086.09,858.575 2087.83,859.349 2089.56,860.123 2091.3,860.897 2093.04,861.672 2094.77,862.446 2096.51,863.22 2098.25,863.994 2099.98,864.768 2101.72,865.543 2103.45,866.317 2105.19,867.091 2106.93,867.865 2108.66,868.64 2110.4,869.414 2112.14,870.188 2113.87,870.962 2115.61,871.735 2117.34,872.509 2119.08,873.283 2120.82,874.056 2122.55,874.829 2124.29,875.602 2126.03,876.375 2127.76,877.148 2129.5,877.921 2131.23,878.693 2132.97,879.465 2134.71,880.237 2136.44,881.008 2138.18,881.78 2139.92,882.551 2141.65,883.322 2143.39,884.092 2145.13,884.862 2146.86,885.632 2148.6,886.402 2150.33,887.171 2152.07,887.94 2153.81,888.708 2155.54,889.476 2157.28,890.244 2159.02,891.011 2160.75,891.778 2162.49,892.545 2164.22,893.311 2165.96,894.076 2167.7,894.841 2169.43,895.606 2171.17,896.37 2172.91,897.134 2174.64,897.897 2176.38,898.66 2178.11,899.422 2179.85,900.184 2181.59,900.945 2183.32,901.706 2185.06,902.466 2186.8,903.225 2188.53,903.984 2190.27,904.742 2192,905.5 2193.74,906.257 2195.48,907.014 2197.21,907.77 2198.95,908.525 2200.69,909.28 2202.42,910.034 2204.16,910.787 2205.89,911.54 2207.63,912.292 2209.37,913.043 2211.1,913.793 2212.84,914.543 2214.58,915.293 2216.31,916.041 2218.05,916.789 2219.78,917.536 2221.52,918.282 2223.26,919.028 2224.99,919.772 2226.73,920.516 2228.47,921.259 2230.2,922.002 2231.94,922.743 2233.67,923.484 2235.41,924.224 2237.15,924.963 2238.88,925.702 2240.62,926.439 2242.36,927.176 2244.09,927.912 2245.83,928.647 2247.56,929.381 2249.3,930.114 2251.04,930.847 2252.77,931.578 2254.51,932.309 2256.25,933.039 2257.98,933.767 2259.72,934.495 2261.45,935.222 2263.19,935.948 2264.93,936.674 2266.66,937.398 2268.4,938.121 2270.14,938.843 2271.87,939.565 2273.61,940.285 2275.35,941.005 2277.08,941.723 2278.82,942.441 2280.55,943.157 2282.29,943.873 2284.03,944.587 2285.76,945.301 2287.5,946.013 2289.24,946.725 2290.97,947.435 2292.71,948.145 2294.44,948.853 2296.18,949.56 2297.92,950.267 2299.65,950.972 2301.39,951.676 2303.13,952.38 2304.86,953.082 2306.6,953.783 2308.33,954.483 2310.07,955.182 2311.81,955.88 2313.54,956.577 2315.28,957.272 2317.02,957.967 2318.75,958.66 2320.49,959.353 2322.22,960.044 2323.96,960.734 2325.7,961.423 2327.43,962.111 2329.17,962.798 2330.91,963.484 2332.64,964.169 2334.38,964.852 2336.11,965.534 2337.85,966.215 2339.59,966.896 2341.32,967.574 2343.06,968.252 2344.8,968.929 2346.53,969.604 2348.27,970.278 2350,970.951 2351.74,971.623 2353.48,972.294 2355.21,972.964 2356.95,973.632 2358.69,974.299 2360.42,974.965 2362.16,975.63 2363.89,976.294 2365.63,976.956 2367.37,977.618 2369.1,978.278 2370.84,978.936 2372.58,979.594 2374.31,980.251 2376.05,980.906 2377.78,981.56 2379.52,982.213 2381.26,982.864 2382.99,983.515 2384.73,984.164 2386.47,984.812 2388.2,985.458 2389.94,986.104 2391.67,986.748 2393.41,987.391 2395.15,988.033 2396.88,988.673 2398.62,989.313 2400.36,989.951 2402.09,990.587 2403.83,991.223 2405.56,991.857 2407.3,992.49 2409.04,993.122 2410.77,993.753 2412.51,994.382 2414.25,995.01 2415.98,995.637 2417.72,996.262 2419.46,996.887 2421.19,997.51 2422.93,998.132 2424.66,998.752 2426.4,999.371 2428.14,999.989 2429.87,1000.61 2431.61,1001.22 2433.35,1001.84 2435.08,1002.44 2436.82,1003.06 2438.55,1003.67 2440.29,1004.28 2442.03,1004.89 2443.76,1005.49 2445.5,1006.1 2447.24,1006.7 2448.97,1007.31 2450.71,1007.91 2452.44,1008.51 2454.18,1009.11 2455.92,1009.7 2457.65,1010.3 2459.39,1010.9 2461.13,1011.49 2462.86,1012.08 2464.6,1012.67 2466.33,1013.26 2468.07,1013.85 2469.81,1014.44 2471.54,1015.03 2473.28,1015.61 2475.02,1016.2 2476.75,1016.78 2478.49,1017.36 2480.22,1017.94 2481.96,1018.52 2483.7,1019.09 2485.43,1019.67 2487.17,1020.25 2488.91,1020.82 2490.64,1021.39 2492.38,1021.96 2494.11,1022.53 2495.85,1023.1 2497.59,1023.67 2499.32,1024.23 2501.06,1024.8 2502.8,1025.36 2504.53,1025.92 2506.27,1026.48 2508,1027.04 2509.74,1027.6 2511.48,1028.16 2513.21,1028.71 2514.95,1029.27 2516.69,1029.82 2518.42,1030.37 2520.16,1030.92 2521.89,1031.47 2523.63,1032.02 2525.37,1032.57 2527.1,1033.12 2528.84,1033.66 2530.58,1034.2 2532.31,1034.75 2534.05,1035.29 2535.78,1035.83 2537.52,1036.36 2539.26,1036.9 2540.99,1037.44 2542.73,1037.97 2544.47,1038.5 2546.2,1039.04 2547.94,1039.57 2549.68,1040.1 2551.41,1040.63 2553.15,1041.15 2554.88,1041.68 2556.62,1042.2 2558.36,1042.73 2560.09,1043.25 2561.83,1043.77 2563.57,1044.29 2565.3,1044.81 2567.04,1045.33 2568.77,1045.84 2570.51,1046.36 2572.25,1046.87 2573.98,1047.38 2575.72,1047.89 2577.46,1048.41 2579.19,1048.91 2580.93,1049.42 2582.66,1049.93 2584.4,1050.43 2586.14,1050.94 2587.87,1051.44 2589.61,1051.94 2591.35,1052.44 2593.08,1052.94 2594.82,1053.44 2596.55,1053.94 2598.29,1054.44 2600.03,1054.93 2601.76,1055.42 2603.5,1055.92 2605.24,1056.41 2606.97,1056.9 2608.71,1057.39 2610.44,1057.87 2612.18,1058.36 2613.92,1058.85 2615.65,1059.33 2617.39,1059.82 2619.13,1060.3 2620.86,1060.78 2622.6,1061.26 2624.33,1061.74 2626.07,1062.21 2627.81,1062.69 2629.54,1063.17 2631.28,1063.64 2633.02,1064.11 2634.75,1064.59 2636.49,1065.06 2638.22,1065.53 2639.96,1066 2641.7,1066.46 2643.43,1066.93 2645.17,1067.4 2646.91,1067.86 2648.64,1068.32 2650.38,1068.79 2652.11,1069.25 2653.85,1069.71 2655.59,1070.17 2657.32,1070.62 2659.06,1071.08 2660.8,1071.54 2662.53,1071.99 2664.27,1072.45 2666,1072.9 2667.74,1073.35 2669.48,1073.8 2671.21,1074.25 2672.95,1074.7 2674.69,1075.15 2676.42,1075.59 2678.16,1076.04 2679.89,1076.48 2681.63,1076.93 2683.37,1077.37 2685.1,1077.81 2686.84,1078.25 2688.58,1078.69 2690.31,1079.13 2692.05,1079.56 2693.79,1080 2695.52,1080.44 2697.26,1080.87 2698.99,1081.3 2700.73,1081.74 2702.47,1082.17 2704.2,1082.6 2705.94,1083.03 2707.68,1083.46 2709.41,1083.88 2711.15,1084.31 2712.88,1084.73 2714.62,1085.16 2716.36,1085.58 2718.09,1086.01 2719.83,1086.43 2721.57,1086.85 2723.3,1087.27 2725.04,1087.69 2726.77,1088.1 2728.51,1088.52 2730.25,1088.94 2731.98,1089.35 2733.72,1089.77 2735.46,1090.18 2737.19,1090.59 2738.93,1091 2740.66,1091.41 2742.4,1091.82 2744.14,1092.23 2745.87,1092.64 2747.61,1093.05 2749.35,1093.45 2751.08,1093.86 2752.82,1094.26 2754.55,1094.67 2756.29,1095.07 2758.03,1095.47 2759.76,1095.87 2761.5,1096.27 2763.24,1096.67 2764.97,1097.07 2766.71,1097.47 2768.44,1097.86 2770.18,1098.26 2771.92,1098.65 2773.65,1099.05 2775.39,1099.44 2777.13,1099.83 2778.86,1100.22 2780.6,1100.62 2782.33,1101.01 2784.07,1101.39 2785.81,1101.78 2787.54,1102.17 2789.28,1102.56 2791.02,1102.94 2792.75,1103.33 2794.49,1103.71 2796.22,1104.09 2797.96,1104.48 2799.7,1104.86 2801.43,1105.24 2803.17,1105.62 2804.91,1106 2806.64,1106.38 2808.38,1106.76 2810.11,1107.13 2811.85,1107.51 2813.59,1107.89 2815.32,1108.26 2817.06,1108.63 2818.8,1109.01 2820.53,1109.38 2822.27,1109.75 2824.01,1110.12 2825.74,1110.49 2827.48,1110.86 2829.21,1111.23 2830.95,1111.6 2832.69,1111.97 2834.42,1112.33 2836.16,1112.7 2837.9,1113.07 2839.63,1113.43 2841.37,1113.79 2843.1,1114.16 2844.84,1114.52 2846.58,1114.88 2848.31,1115.24 2850.05,1115.6 2851.79,1115.96 2853.52,1116.32 2855.26,1116.68 2856.99,1117.04 2858.73,1117.39 2860.47,1117.75 2862.2,1118.11 2863.94,1118.46 2865.68,1118.81 2867.41,1119.17 2869.15,1119.52 2870.88,1119.87 2872.62,1120.23 2874.36,1120.58 2876.09,1120.93 2877.83,1121.28 2879.57,1121.63 2881.3,1121.97 2883.04,1122.32 2884.77,1122.67 2886.51,1123.02 2888.25,1123.36 2889.98,1123.71 2891.72,1124.05 2893.46,1124.39 2895.19,1124.74 2896.93,1125.08 2898.66,1125.42 2900.4,1125.76 2902.14,1126.11 2903.87,1126.45 2905.61,1126.79 2907.35,1127.12 2909.08,1127.46 2910.82,1127.8 2912.55,1128.14 2914.29,1128.48 2916.03,1128.81 2917.76,1129.15 2919.5,1129.48 2921.24,1129.82 2922.97,1130.15 2924.71,1130.48 2926.44,1130.82 2928.18,1131.15 2929.92,1131.48 2931.65,1131.81 2933.39,1132.14 2935.13,1132.47 2936.86,1132.8 2938.6,1133.13 2940.33,1133.46 2942.07,1133.79 2943.81,1134.11 2945.54,1134.44 2947.28,1134.77 2949.02,1135.09 2950.75,1135.42 2952.49,1135.74 2954.22,1136.07 2955.96,1136.39 2957.7,1136.71 2959.43,1137.04 2961.17,1137.36 2962.91,1137.68 2964.64,1138 2966.38,1138.32 2968.12,1138.64 2969.85,1138.96 2971.59,1139.28 2973.32,1139.6 2975.06,1139.92 2976.8,1140.23 2978.53,1140.55 2980.27,1140.87 2982.01,1141.18 2983.74,1141.5 2985.48,1141.81 2987.21,1142.13 2988.95,1142.44 2990.69,1142.76 2992.42,1143.07 2994.16,1143.38 2995.9,1143.69 2997.63,1144.01 2999.37,1144.32 3001.1,1144.63 3002.84,1144.94 3004.58,1145.25 3006.31,1145.56 3008.05,1145.87 3009.79,1146.18 3011.52,1146.48 3013.26,1146.79 3014.99,1147.1 3016.73,1147.41 3018.47,1147.71 3020.2,1148.02 3021.94,1148.32 3023.68,1148.63 3025.41,1148.93 3027.15,1149.24 3028.88,1149.54 3030.62,1149.85 3032.36,1150.15 3034.09,1150.45 3035.83,1150.75 3037.57,1151.05 3039.3,1151.36 3041.04,1151.66 3042.77,1151.96 3044.51,1152.26 3046.25,1152.56 3047.98,1152.86 3049.72,1153.15 3051.46,1153.45 3053.19,1153.75 3054.93,1154.05 3056.66,1154.35 3058.4,1154.64 3060.14,1154.94 3061.87,1155.23 3063.61,1155.53 3065.35,1155.83 3067.08,1156.12 3068.82,1156.41 3070.55,1156.71 3072.29,1157 3074.03,1157.3 3075.76,1157.59 3077.5,1157.88 3079.24,1158.17 3080.97,1158.47 3082.71,1158.76 3084.44,1159.05 3086.18,1159.34 3087.92,1159.63 3089.65,1159.92 3091.39,1160.21 3093.13,1160.5 3094.86,1160.79 3096.6,1161.08 3098.34,1161.36 3100.07,1161.65 3101.81,1161.94 3103.54,1162.23 3105.28,1162.51 3107.02,1162.8 3108.75,1163.09 3110.49,1163.37 3112.23,1163.66 3113.96,1163.94 3115.7,1164.23 3117.43,1164.51 3119.17,1164.79 3120.91,1165.08 3122.64,1165.36 3124.38,1165.64 3126.12,1165.93 3127.85,1166.21 3129.59,1166.49 3131.32,1166.77 3133.06,1167.05 3134.8,1167.34 3136.53,1167.62 3138.27,1167.9 3140.01,1168.18 3141.74,1168.46 3143.48,1168.74 3145.21,1169.02 3146.95,1169.29 3148.69,1169.57 3150.42,1169.85 3152.16,1170.13 3153.9,1170.41 3155.63,1170.68 3157.37,1170.96 3159.1,1171.24 3160.84,1171.51 3162.58,1171.79 3164.31,1172.07 3166.05,1172.34 3167.79,1172.62 3169.52,1172.89 3171.26,1173.17 3172.99,1173.44 3174.73,1173.71 3176.47,1173.99 3178.2,1174.26 3179.94,1174.53 3181.68,1174.81 3183.41,1175.08 3185.15,1175.35 3186.88,1175.62 3188.62,1175.89 3190.36,1176.17 3192.09,1176.44 3193.83,1176.71 3195.57,1176.98 3197.3,1177.25 3199.04,1177.52 3200.77,1177.79 3202.51,1178.06 3204.25,1178.33 3205.98,1178.59 3207.72,1178.86 3209.46,1179.13 3211.19,1179.4 3212.93,1179.67 3214.66,1179.93 3216.4,1180.2 3218.14,1180.47 3219.87,1180.74 3221.61,1181 3223.35,1181.27 3225.08,1181.53 3226.82,1181.8 3228.55,1182.06 3230.29,1182.33 3232.03,1182.59 3233.76,1182.86 3235.5,1183.12 3237.24,1183.39 3238.97,1183.65 3240.71,1183.91 3242.45,1184.18 3244.18,1184.44 3245.92,1184.7 3247.65,1184.97 3249.39,1185.23 3251.13,1185.49 3252.86,1185.75 3254.6,1186.01 3256.34,1186.28 3258.07,1186.54 3259.81,1186.8 3261.54,1187.06 3263.28,1187.32 3265.02,1187.58 3266.75,1187.84 3268.49,1188.1 3270.23,1188.36 3271.96,1188.62 3273.7,1188.88 3275.43,1189.13 3277.17,1189.39 3278.91,1189.65 3280.64,1189.91 3282.38,1190.17 3284.12,1190.42 3285.85,1190.68 3287.59,1190.94 3289.32,1191.2 3291.06,1191.45 3292.8,1191.71 3294.53,1191.96 3296.27,1192.22 3298.01,1192.48 3299.74,1192.73 3301.48,1192.99 3303.21,1193.24 3304.95,1193.5 3306.69,1193.75 3308.42,1194.01 3310.16,1194.26 3311.9,1194.51 3313.63,1194.77 3315.37,1195.02 3317.1,1195.27 3318.84,1195.53 3320.58,1195.78 3322.31,1196.03 3324.05,1196.29 3325.79,1196.54 3327.52,1196.79 3329.26,1197.04 3330.99,1197.29 3332.73,1197.54 3334.47,1197.8 3336.2,1198.05 3337.94,1198.3 3339.68,1198.55 3341.41,1198.8 3343.15,1199.05 3344.88,1199.3 3346.62,1199.55 3348.36,1199.8 3350.09,1200.05 3351.83,1200.3 3353.57,1200.55 3355.3,1200.79 3357.04,1201.04 3358.77,1201.29 3360.51,1201.54 3362.25,1201.79 3363.98,1202.04 3365.72,1202.28 3367.46,1202.53 3369.19,1202.78 3370.93,1203.02 3372.66,1203.27 3374.4,1203.52 3376.14,1203.76 3377.87,1204.01 3379.61,1204.26 3381.35,1204.5 3383.08,1204.75 3384.82,1204.99 3386.56,1205.24 3388.29,1205.49 3390.03,1205.73 3391.76,1205.98 3393.5,1206.22 3395.24,1206.46 3396.97,1206.71 3398.71,1206.95 3400.45,1207.2 3402.18,1207.44 3403.92,1207.68 3405.65,1207.93 3407.39,1208.17 3409.13,1208.41 3410.86,1208.66 3412.6,1208.9 3414.34,1209.14 3416.07,1209.38 3417.81,1209.63 3419.54,1209.87 3421.28,1210.11 3423.02,1210.35 3424.75,1210.59 3426.49,1210.84 3428.23,1211.08 3429.96,1211.32 3431.7,1211.56 3433.43,1211.8 3435.17,1212.04 3436.91,1212.28 3438.64,1212.52 3440.38,1212.76 3442.12,1213 3443.85,1213.24 3445.59,1213.48 3447.32,1213.72 3449.06,1213.96 3450.8,1214.2 3452.53,1214.44 3454.27,1214.67 3456.01,1214.91 3457.74,1215.15 3459.48,1215.39 3461.21,1215.63 3462.95,1215.87 3464.69,1216.1 3466.42,1216.34 3468.16,1216.58 3469.9,1216.82 3471.63,1217.05 3473.37,1217.29 3475.1,1217.53 3476.84,1217.76 3478.58,1218 3480.31,1218.24 3482.05,1218.47 3483.79,1218.71 3485.52,1218.95 3487.26,1219.18 3488.99,1219.42 3490.73,1219.65 3492.47,1219.89 3494.2,1220.12 3495.94,1220.36 3497.68,1220.59 3499.41,1220.83 3501.15,1221.06 3502.88,1221.3 3504.62,1221.53 3506.36,1221.77 3508.09,1222 3509.83,1222.24 3511.57,1222.47 3513.3,1222.7 3515.04,1222.94 3516.78,1223.17 3518.51,1223.4 3520.25,1223.64 3521.98,1223.87 3523.72,1224.1 3525.46,1224.34 3527.19,1224.57 3528.93,1224.8 3530.67,1225.03 3532.4,1225.27 3534.14,1225.5 3535.87,1225.73 3537.61,1225.96 3539.35,1226.18 3541.08,1226.43 3542.82,1226.66 3544.56,1226.89 3546.29,1227.12 3548.03,1227.35 3549.76,1227.58 3551.5,1227.81 3553.24,1228.05 3554.97,1228.28 3556.71,1228.51 3558.45,1228.74 3560.18,1228.97 3561.92,1229.2 3563.65,1229.43 3565.39,1229.66 3567.13,1229.89 3568.86,1230.12 3570.6,1230.35 3572.34,1230.58 3574.07,1230.81 3575.81,1231.04 3577.54,1231.26 3579.28,1231.49 3581.02,1231.72 3582.75,1231.95 3584.49,1232.18 3586.23,1232.41 3587.96,1232.64 3589.7,1232.87 3591.43,1233.09 3593.17,1233.32 3594.91,1233.54 3596.64,1233.78 3598.38,1234.01 3600.12,1234.23 3601.85,1234.46 3603.59,1234.69 3605.32,1234.92 3607.06,1235.14 3608.8,1235.37 3610.53,1235.6 3612.27,1235.83 3614.01,1236.05 3615.74,1236.28 3617.48,1236.51 3619.21,1236.73 3620.95,1236.96 3622.69,1237.19 3624.42,1237.41 3626.16,1237.64 3627.9,1237.86 3629.63,1238.09 3631.37,1238.32 3633.1,1238.54 3634.84,1238.77 3636.58,1238.99 3638.31,1239.22 3640.05,1239.45 3641.79,1239.67 3643.52,1239.9 3645.26,1240.12 3646.99,1240.35 3648.73,1240.57 3650.47,1240.8 3652.2,1241.02 3653.94,1241.25 3655.68,1241.47 3657.41,1241.7 3659.15,1241.92 3660.89,1242.15 3662.62,1242.37 3664.36,1242.59 3666.09,1242.82 3667.83,1243.04 3669.57,1243.27 3671.3,1243.49 3673.04,1243.71 3674.78,1243.94 3676.51,1244.16 3678.25,1244.39 3679.98,1244.61 3681.72,1244.83 3683.46,1245.06 3685.19,1245.28 3686.93,1245.5 3688.67,1245.73 3690.4,1245.95 3692.14,1246.17 3693.87,1246.39 3695.61,1246.62 3697.35,1246.84 3699.08,1247.06 3700.82,1247.29 3702.56,1247.51 3704.29,1247.73 3706.03,1247.95 3707.76,1248.18 3709.5,1248.4 3711.24,1248.62 3712.97,1248.84 3714.71,1249.06 3716.45,1249.29 3718.18,1249.51 3719.92,1249.73 3721.65,1249.95 3723.39,1250.17 3725.13,1250.4 3726.86,1250.62 3728.6,1250.84 3730.34,1251.06 3732.07,1251.28 3733.81,1251.5 3735.54,1251.73 3737.28,1251.95 3739.02,1252.17 3740.75,1252.39 3742.49,1252.61 3744.23,1252.83 3745.96,1253.05 3747.7,1253.27 3749.43,1253.49 3751.17,1253.71 3752.91,1253.94 3754.64,1254.16 3756.38,1254.38 3758.12,1254.6 3759.85,1254.82 3761.59,1255.04 3763.32,1255.26 3765.06,1255.48 3766.8,1255.7 3768.53,1255.92 3770.27,1256.14 3772.01,1256.36 3773.74,1256.58 3775.48,1256.8 3777.21,1257.02 3778.95,1257.24 3780.69,1257.46 3782.42,1257.68 3784.16,1257.9 3785.9,1258.12 3787.63,1258.34 3789.37,1258.56 3791.11,1258.78 3792.84,1259 3794.58,1259.22 3796.31,1259.44 3798.05,1259.66 3799.79,1259.88 3801.52,1260.1 3803.26,1260.32 3805,1260.54 3806.73,1260.76 3808.47,1260.98 3810.2,1261.2 3811.94,1261.41 3813.68,1261.63 3815.41,1261.85 3817.15,1262.07 3818.89,1262.29 3820.62,1262.51 3822.36,1262.73 3824.09,1262.95 3825.83,1263.17 3827.57,1263.39 3829.3,1263.61 3831.04,1263.83 3832.78,1264.04 3834.51,1264.26 3836.25,1264.48 3837.98,1264.7 3839.72,1264.92 3841.46,1265.14 3843.19,1265.36 3844.93,1265.58 3846.67,1265.79 3848.4,1266.01 3850.14,1266.23 3851.87,1266.45 3853.61,1266.67 3855.35,1266.89 3857.08,1267.11 3858.82,1267.32 3860.56,1267.54 3862.29,1267.76 3864.03,1267.98 3865.76,1268.2 3867.5,1268.42 3869.24,1268.64 3870.97,1268.85 3872.71,1269.07 3874.45,1269.29 3876.18,1269.51 3877.92,1269.73 3879.65,1269.95 3881.39,1270.17 3883.13,1270.38 3884.86,1270.6 3886.6,1270.82 3888.34,1271.04 3890.07,1271.26 3891.81,1271.48 3893.54,1271.69 3895.28,1271.91 3897.02,1272.13 3898.75,1272.35 3900.49,1272.57 3902.23,1272.79 3903.96,1273 3905.7,1273.22 3907.43,1273.44 3909.17,1273.66 3910.91,1273.88 3912.64,1274.09 3914.38,1274.31 3916.12,1274.53 3917.85,1274.75 3919.59,1274.97 3921.32,1275.19 3923.06,1275.4 3924.8,1275.62 3926.53,1275.84 3928.27,1276.06 3930.01,1276.28 3931.74,1276.5 3933.48,1276.71 3935.22,1276.93 3936.95,1277.15 3938.69,1277.37 3940.42,1277.59 3942.16,1277.81 3943.9,1278.02 3945.63,1278.24 3947.37,1278.46 3949.11,1278.68 3950.84,1278.9 3952.58,1279.12 3954.31,1279.33 3956.05,1279.55 3957.79,1279.77 3959.52,1279.99 3961.26,1280.21 3963,1280.43 3964.73,1280.65 3966.47,1280.86 3968.2,1281.08 3969.94,1281.3 3971.68,1281.52 3973.41,1281.74 3975.15,1281.96 3976.89,1282.18 3978.62,1282.39 3980.36,1282.61 3982.09,1282.83 3983.83,1283.05 3985.57,1283.27 3987.3,1283.49 3989.04,1283.71 3990.78,1283.93 3992.51,1284.14 3994.25,1284.36 3995.98,1284.58 3997.72,1284.8 3999.46,1285.02 4001.19,1285.24 4002.93,1285.46 4004.67,1285.68 4006.4,1285.9 4008.14,1286.11 4009.87,1286.33 4011.61,1286.55 4013.35,1286.77 4015.08,1286.99 4016.82,1287.21 4018.56,1287.43 4020.29,1287.65 4022.03,1287.87 4023.76,1288.09 4025.5,1288.31 4027.24,1288.53 4028.97,1288.75 4030.71,1288.97 4032.45,1289.19 4034.18,1289.4 4035.92,1289.62 4037.65,1289.84 4039.39,1290.06 4041.13,1290.28 4042.86,1290.5 4044.6,1290.72 4046.34,1290.94 4048.07,1291.16 4049.81,1291.38 4051.54,1291.6 4053.28,1291.82 4055.02,1292.04 4056.75,1292.26 4058.49,1292.48 4060.23,1292.7 4061.96,1292.92 4063.7,1293.14 4065.44,1293.36 4067.17,1293.59 4068.91,1293.81 4070.64,1294.03 4072.38,1294.25 4074.12,1294.47 4075.85,1294.69 4077.59,1294.91 4079.33,1295.13 4081.06,1295.35 4082.8,1295.57 4084.53,1295.79 4086.27,1296.01 4088.01,1296.23 4089.74,1296.46 4091.48,1296.68 4093.22,1296.9 4094.95,1297.12 4096.69,1297.34 4098.42,1297.56 4100.16,1297.78 4101.9,1298 4103.63,1298.23 4105.37,1298.45 4107.11,1298.67 4108.84,1298.89 4110.58,1299.11 4112.31,1299.33 4114.05,1299.56 4115.79,1299.78 4117.52,1300 4119.26,1300.22 4121,1300.45 4122.73,1300.67 4124.47,1300.89 4126.2,1301.11 4127.94,1301.34 4129.68,1301.56 4131.41,1301.78 4133.15,1302 4134.89,1302.23 4136.62,1302.45 4138.36,1302.67 4140.09,1302.89 4141.83,1303.12 4143.57,1303.34 4145.3,1303.56 4147.04,1303.79 4148.78,1304.01 4150.51,1304.23 4152.25,1304.46 4153.98,1304.68 4155.72,1304.9 4157.46,1305.13 4159.19,1305.35 4160.93,1305.58 4162.67,1305.8 4164.4,1306.02 4166.14,1306.25 4167.87,1306.47 4169.61,1306.7 4171.35,1306.92 4173.08,1307.15 4174.82,1307.37 4176.56,1307.59 4178.29,1307.82 4180.03,1308.04 4181.76,1308.27 4183.5,1308.49 4185.24,1308.72 4186.97,1308.94 4188.71,1309.17 4190.45,1309.39 4192.18,1309.62 4193.92,1309.84 4195.65,1310.07 4197.39,1310.3 4199.13,1310.52 4200.86,1310.75 4202.6,1310.97 4204.34,1311.2 4206.07,1311.43 4207.81,1311.65 4209.55,1311.88 4211.28,1312.1 4213.02,1312.33 4214.75,1312.56 4216.49,1312.78 4218.23,1313.01 4219.96,1313.24 4221.7,1313.46 4223.44,1313.69 4225.17,1313.92 4226.91,1314.15 4228.64,1314.37 4230.38,1314.6 4232.12,1314.83 4233.85,1315.06 4235.59,1315.28 4237.33,1315.51 4239.06,1315.74 4240.8,1315.97 4242.53,1316.2 4244.27,1316.42 4246.01,1316.65 4247.74,1316.88 4249.48,1317.11 4251.22,1317.34 4252.95,1317.57 4254.69,1317.8 4256.42,1318.02 4258.16,1318.25 4259.9,1318.48 4261.63,1318.71 4263.37,1318.94 4265.11,1319.17 4266.84,1319.4 4268.58,1319.63 4270.31,1319.86 4272.05,1320.09 4273.79,1320.32 4275.52,1320.55 4277.26,1320.78 4279,1321.01 4280.73,1321.24 4282.47,1321.47 4284.2,1321.7 4285.94,1321.93 4287.68,1322.17 4289.41,1322.4 4291.15,1322.63 4292.89,1322.86 4294.62,1323.09 4296.36,1323.32 4298.09,1323.55 4299.83,1323.79 4301.57,1324.02 4303.3,1324.25 4305.04,1324.48 4306.78,1324.72 4308.51,1324.95 4310.25,1325.18 4311.98,1325.41 4313.72,1325.65 4315.46,1325.88 4317.19,1326.11 4318.93,1326.35 4320.67,1326.58 4322.4,1326.81 4324.14,1327.05 4325.87,1327.28 4327.61,1327.51 4329.35,1327.75 4331.08,1327.98 4332.82,1328.21 4334.56,1328.45 4336.29,1328.68 4338.03,1328.92 4339.77,1329.15 4341.5,1329.39 4343.24,1329.62 4344.97,1329.86 4346.71,1330.09 4348.45,1330.33 4350.18,1330.56 4351.92,1330.8 4353.66,1331.04 4355.39,1331.27 4357.13,1331.51 4358.86,1331.74 4360.6,1331.98 4362.34,1332.22 4364.07,1332.45 4365.81,1332.69 4367.55,1332.93 4369.28,1333.17 4371.02,1333.4 4372.75,1333.64 4374.49,1333.88 4376.23,1334.11 4377.96,1334.35 4379.7,1334.59 4381.44,1334.83 4383.17,1335.07 4384.91,1335.31 4386.64,1335.54 4388.38,1335.78 4390.12,1336.02 4391.85,1336.26 4393.59,1336.5 4395.33,1336.74 4397.06,1336.98 4398.8,1337.22 4400.53,1337.46 4402.27,1337.7 4404.01,1337.94 4405.74,1338.18 4407.48,1338.42 4409.22,1338.66 4410.95,1338.9 4412.69,1339.14 4414.42,1339.38 4416.16,1339.62 4417.9,1339.86 4419.63,1340.1 4421.37,1340.34 4423.11,1340.59 4424.84,1340.83 4426.58,1341.07 4428.31,1341.31 4430.05,1341.55 4431.79,1341.8 4433.52,1342.04 4435.26,1342.28 4437,1342.53 4438.73,1342.77 4440.47,1343.01 4442.2,1343.26 4443.94,1343.5 4445.68,1343.74 4447.41,1343.99 4449.15,1344.23 4450.89,1344.47 4452.62,1344.72 4454.36,1344.96 4456.09,1345.21 4457.83,1345.45 4459.57,1345.7 4461.3,1345.94 4463.04,1346.19 4464.78,1346.43 4466.51,1346.68 4468.25,1346.93 4469.98,1347.17 4471.72,1347.42 4473.46,1347.66 4475.19,1347.91 4476.93,1348.16 4478.67,1348.4 4480.4,1348.65 4482.14,1348.9 4483.88,1349.15 4485.61,1349.39 4487.35,1349.64 4489.08,1349.89 4490.82,1350.14 4492.56,1350.39 4494.29,1350.63 4496.03,1350.88 4497.77,1351.13 4499.5,1351.38 4501.24,1351.63 4502.97,1351.88 4504.71,1352.13 4506.45,1352.38 4508.18,1352.63 4509.92,1352.88 4511.66,1353.13 4513.39,1353.38 4515.13,1353.63 4516.86,1353.88 4518.6,1354.13 4520.34,1354.38 4522.07,1354.63 4523.81,1354.89 4525.55,1355.14 4527.28,1355.39 4529.02,1355.64 4530.75,1355.89 4532.49,1356.15 4534.23,1356.4 4535.96,1356.65 4537.7,1356.9 4539.44,1357.16 4541.17,1357.41 4542.91,1357.66 4544.64,1357.92 4546.38,1358.17 4548.12,1358.43 4549.85,1358.68 4551.59,1358.93 4553.33,1359.19 4555.06,1359.44 4556.8,1359.7 4558.53,1359.95 4560.27,1360.21 4562.01,1360.46 4563.74,1360.72 4565.48,1360.98 4567.22,1361.23 4568.95,1361.49 4570.69,1361.75 4572.42,1362 4574.16,1362.26 4575.9,1362.52 4577.63,1362.77 4579.37,1363.03 4581.11,1363.29 4582.84,1363.55 4584.58,1363.8 4586.31,1364.06 4588.05,1364.32 4589.79,1364.58 4591.52,1364.84 4593.26,1365.1 4595,1365.36 4596.73,1365.62 4598.47,1365.88 4600.2,1366.14 4601.94,1366.4 4603.68,1366.66 4605.41,1366.92 4607.15,1367.18 4608.89,1367.44 4610.62,1367.7 4612.36,1367.96 4614.1,1368.22 4615.83,1368.49 4617.57,1368.75 4619.3,1369.01 4621.04,1369.27 4622.78,1369.53 4624.51,1369.8 4626.25,1370.06 4627.99,1370.32 4629.72,1370.59 4631.46,1370.85 4633.19,1371.11 4634.93,1371.38 4636.67,1371.64 4638.4,1371.91 4640.14,1372.17 4641.88,1372.44 4643.61,1372.7 4645.35,1372.97 4647.08,1373.23 4648.82,1373.5 4650.56,1373.76 4652.29,1374.03 4654.03,1374.3 4655.77,1374.56 4657.5,1374.83 4659.24,1375.1 4660.97,1375.36 4662.71,1375.63 4664.45,1375.9 4666.18,1376.17 4667.92,1376.43 4669.66,1376.7 4671.39,1376.97 4673.13,1377.24 4674.86,1377.51 4676.6,1377.78 4678.34,1378.05 4680.07,1378.32 4681.81,1378.59 4683.55,1378.86 4685.28,1379.13 4687.02,1379.4 4688.75,1379.67 4690.49,1379.94 4692.23,1380.21 4693.96,1380.48 4695.7,1380.75 4697.44,1381.03 4699.17,1381.3 4700.91,1381.57 4702.64,1381.84 4704.38,1382.11 4706.12,1382.39 4707.85,1382.66 4709.59,1382.93 4711.33,1383.21 4713.06,1383.48 4714.8,1383.76 4716.53,1384.03 4718.27,1384.3 4720.01,1384.58 4721.74,1384.85 4723.48,1385.13 4725.22,1385.4 4726.95,1385.68 4728.69,1385.96 4730.42,1386.23 4732.16,1386.51 4733.9,1386.79 4735.63,1387.06 4737.37,1387.34 4739.11,1387.62 4740.84,1387.89 4742.58,1388.17 4744.31,1388.45 4746.05,1388.73 4747.79,1389.01 4749.52,1389.29 4751.26,1389.56 4753,1389.84 4754.73,1390.12 4756.47,1390.4 4758.21,1390.68 4759.94,1390.96 4761.68,1391.24 4763.41,1391.52 4765.15,1391.8 4766.89,1392.09 4768.62,1392.37 4770.36,1392.65 4772.1,1392.93 4773.83,1393.21 4775.57,1393.49 4777.3,1393.78 4779.04,1394.06 4780.78,1394.34 4782.51,1394.62 4784.25,1394.91 4785.99,1395.19 4787.72,1395.48 4789.46,1395.76 4791.19,1396.04 4792.93,1396.33 4794.67,1396.61 4796.4,1396.9 4798.14,1397.18 4799.88,1397.47 4801.61,1397.76 4803.35,1398.04 4805.08,1398.33 4806.82,1398.62 4808.56,1398.9 4810.29,1399.19 4812.03,1399.48 4813.77,1399.76 4815.5,1400.05 4817.24,1400.34 4818.97,1400.63 4820.71,1400.92 4822.45,1401.21 4824.18,1401.49 4825.92,1401.78 4827.66,1402.07 4829.39,1402.36 4831.13,1402.65 4832.86,1402.94 4834.6,1403.23 4836.34,1403.53 4838.07,1403.82 4839.81,1404.11 4841.55,1404.4 4843.28,1404.69 4845.02,1404.98 4846.75,1405.28 4848.49,1405.57 4850.23,1405.86 4851.96,1406.15 4853.7,1406.45 4855.44,1406.74 4857.17,1407.03 4858.91,1407.33 4860.64,1407.62 4862.38,1407.92 4864.12,1408.21 4865.85,1408.51 4867.59,1408.8 4869.33,1409.1 4871.06,1409.39 4872.8,1409.69 4874.53,1409.99 4876.27,1410.28 4878.01,1410.58 4879.74,1410.88 4881.48,1411.17 4883.22,1411.47 4884.95,1411.77 4886.69,1412.07 4888.42,1412.37 4890.16,1412.67 4891.9,1412.97 4893.63,1413.26 4895.37,1413.56 4897.11,1413.86 4898.84,1414.16 4900.58,1414.46 4902.32,1414.76 4904.05,1415.06 4905.79,1415.37 4907.52,1415.67 4909.26,1415.97 4911,1416.27 4912.73,1416.57 4914.47,1416.88 4916.21,1417.18 4917.94,1417.48 4919.68,1417.78 4921.41,1418.09 4923.15,1418.39 4924.89,1418.7 4926.62,1419 4928.36,1419.3 4930.1,1419.61 4931.83,1419.91 4933.57,1420.22 4935.3,1420.52 4937.04,1420.83 4938.78,1421.14 4940.51,1421.44 4942.25,1421.75 4943.99,1422.06 4945.72,1422.36 4947.46,1422.67 4949.19,1422.98 4950.93,1423.29 4952.67,1423.59 4954.4,1423.9 4956.14,1424.21 4957.88,1424.52 4959.61,1424.83 4961.35,1425.14 4963.08,1425.45 4964.82,1425.76 4966.56,1426.07 4968.29,1426.38 4970.03,1426.69 4971.77,1427 4973.5,1427.31 4975.24,1427.63 4976.97,1427.94 4978.71,1428.25 4980.45,1428.56 4982.18,1428.88 4983.92,1429.19 4985.66,1429.5 4987.39,1429.82 4989.13,1430.13 4990.86,1430.44 4992.6,1430.76 4994.34,1431.07 4996.07,1431.39 4997.81,1431.7 4999.55,1432.02 5001.28,1432.33 5003.02,1432.65 5004.75,1432.97 5006.49,1433.28 5008.23,1433.6 5009.96,1433.92 5011.7,1434.23 5013.44,1434.55 5015.17,1434.87 5016.91,1435.19 5018.64,1435.51 5020.38,1435.83 5022.12,1436.15 5023.85,1436.46 5025.59,1436.78 5027.33,1437.1 5029.06,1437.42 5030.8,1437.75 5032.54,1438.07 5034.27,1438.39 5036.01,1438.71 5037.74,1439.03 5039.48,1439.35 5041.22,1439.67 5042.95,1440 5044.69,1440.32 5046.43,1440.64 5048.16,1440.97 5049.9,1441.29 5051.63,1441.61 5053.37,1441.94 5055.11,1442.26 5056.84,1442.59 5058.58,1442.91 5060.32,1443.24 5062.05,1443.56 5063.79,1443.89 5065.52,1444.21 5067.26,1444.54 5069,1444.87 5070.73,1445.19 5072.47,1445.52 5074.21,1445.85 5075.94,1446.18 5077.68,1446.5 5079.41,1446.83 5081.15,1447.16 5082.89,1447.49 5084.62,1447.82 5086.36,1448.15 5088.1,1448.48 5089.83,1448.81 5091.57,1449.14 5093.3,1449.47 5095.04,1449.8 5096.78,1450.13 5098.51,1450.46 5100.25,1450.79 5101.99,1451.13 5103.72,1451.46 5105.46,1451.79 5107.19,1452.12 5108.93,1452.46 5110.67,1452.79 5112.4,1453.12 5114.14,1453.46 5115.88,1453.79 5117.61,1454.13 5119.35,1454.46 5121.08,1454.8 5122.82,1455.13 5124.56,1455.47 5126.29,1455.8 5128.03,1456.14 5129.77,1456.48 5131.5,1456.81 5133.24,1457.15 5134.97,1457.49 5136.71,1457.82 5138.45,1458.16 5140.18,1458.5 5141.92,1458.84 5143.66,1459.18 5145.39,1459.52 5147.13,1459.86 5148.86,1460.2 5150.6,1460.54 5152.34,1460.88 5154.07,1461.22 5155.81,1461.56 5157.55,1461.9 5159.28,1462.24 5161.02,1462.58 5162.75,1462.92 5164.49,1463.26 5166.23,1463.61 5167.96,1463.95 5169.7,1464.29 5171.44,1464.64 5173.17,1464.98 5174.91,1465.32 5176.65,1465.67 5178.38,1466.01 5180.12,1466.36 5181.85,1466.7 5183.59,1467.05 5185.33,1467.39 5187.06,1467.74 5188.8,1468.08 5190.54,1468.43 5192.27,1468.78 5194.01,1469.13 5195.74,1469.47 5197.48,1469.82 5199.22,1470.17 5200.95,1470.52 5202.69,1470.86 5204.43,1471.21 5206.16,1471.56 5207.9,1471.91 5209.63,1472.26 5211.37,1472.61 5213.11,1472.96 5214.84,1473.31 5216.58,1473.66 5218.32,1474.01 5220.05,1474.36 5221.79,1474.72 5223.52,1475.07 5225.26,1475.42 5227,1475.77 5228.73,1476.13 5230.47,1476.48 5232.21,1476.83 5233.94,1477.19 5235.68,1477.54 5237.41,1477.89 5239.15,1478.25 5240.89,1478.6 5242.62,1478.96 5244.36,1479.31 5246.1,1479.67 5247.83,1480.02 5249.57,1480.38 5251.3,1480.74 5253.04,1481.09 5254.78,1481.45 5256.51,1481.81 5258.25,1482.16 5259.99,1482.52 5261.72,1482.88 5263.46,1483.24 5265.19,1483.6 5266.93,1483.96 5268.67,1484.32 5270.4,1484.68 5272.14,1485.04 5273.88,1485.4 5275.61,1485.76 5277.35,1486.12 5279.08,1486.48 5280.82,1486.84 5282.56,1487.2 5284.29,1487.56 5286.03,1487.92 5287.77,1488.29 5289.5,1488.65 5291.24,1489.01 5292.97,1489.37 5294.71,1489.74 5296.45,1490.1 5298.18,1490.47 5299.92,1490.83 5301.66,1491.2 5303.39,1491.56 5305.13,1491.93 5306.87,1492.29 5308.6,1492.66 5310.34,1493.02 5312.07,1493.39 5313.81,1493.76 5315.55,1494.12 5317.28,1494.49 5319.02,1494.86 5320.76,1495.22 5322.49,1495.59 5324.23,1495.96 5325.96,1496.33 5327.7,1496.7 5329.44,1497.07 5331.17,1497.44 5332.91,1497.81 5334.65,1498.18 5336.38,1498.55 5338.12,1498.92 5339.85,1499.29 5341.59,1499.66 5343.33,1500.03 5345.06,1500.4 5346.8,1500.77 5348.54,1501.14 5350.27,1501.52 5352.01,1501.89 5353.74,1502.26 5355.48,1502.64 5357.22,1503.01 5358.95,1503.38 5360.69,1503.76 5362.43,1504.13 5364.16,1504.51 5365.9,1504.88 5367.63,1505.26 5369.37,1505.63 5371.11,1506.01 5372.84,1506.38 5374.58,1506.76 5376.32,1507.14 5378.05,1507.51 5379.79,1507.89 5381.52,1508.27 5383.26,1508.65 5385,1509.02 5386.73,1509.4 5388.47,1509.78 5390.21,1510.16 5391.94,1510.54 5393.68,1510.92 5395.41,1511.3 5397.15,1511.68 5398.89,1512.06 5400.62,1512.44 5402.36,1512.82 5404.1,1513.2 5405.83,1513.58 5407.57,1513.96 5409.3,1514.34 5411.04,1514.72 5412.78,1515.11 5414.51,1515.49 5416.25,1515.87 5417.99,1516.26 5419.72,1516.64 5421.46,1517.02 5423.19,1517.41 5424.93,1517.79 5426.67,1518.17 5428.4,1518.56 5430.14,1518.94 5431.88,1519.33 5433.61,1519.71 5435.35,1520.1 5437.08,1520.49 5438.82,1520.87 5440.56,1521.26 5442.29,1521.65 5444.03,1522.03 5445.77,1522.42 5447.5,1522.81 5449.24,1523.2 5450.98,1523.58 5452.71,1523.97 5454.45,1524.36 5456.18,1524.75 5457.92,1525.14 5459.66,1525.53 5461.39,1525.92 5463.13,1526.31 5464.87,1526.7 5466.6,1527.09 5468.34,1527.48 5470.07,1527.87 5471.81,1528.26 5473.55,1528.65 5475.28,1529.04 5477.02,1529.43 5478.76,1529.83 5480.49,1530.22 5482.23,1530.61 5483.96,1531 5485.7,1531.4 5487.44,1531.79 5489.17,1532.19 5490.91,1532.58 5492.65,1532.97 5494.38,1533.37 5496.12,1533.76 5497.85,1534.16 5499.59,1534.55 5501.33,1534.95 5503.06,1535.34 5504.8,1535.74 5506.54,1536.14 5508.27,1536.53 5510.01,1536.93 5511.74,1537.33 5513.48,1537.72 5515.22,1538.12 5516.95,1538.52 5518.69,1538.92 5520.43,1539.31 5522.16,1539.71 5523.9,1540.11 5525.63,1540.51 5527.37,1540.91 5529.11,1541.31 5530.84,1541.71 5532.58,1542.11 5534.32,1542.51 5536.05,1542.91 5537.79,1543.31 5539.52,1543.71 5541.26,1544.11 5543,1544.51 5544.73,1544.91 5546.47,1545.32 5548.21,1545.72 5549.94,1546.12 5551.68,1546.52 5553.41,1546.92 5555.15,1547.33 5556.89,1547.73 5558.62,1548.13 5560.36,1548.54 5562.1,1548.94 5563.83,1549.35 5565.57,1549.75 5567.3,1550.16 5569.04,1550.56 5570.78,1550.97 5572.51,1551.37 5574.25,1551.78 5575.99,1552.18 5577.72,1552.59 5579.46,1552.99 5581.2,1553.4 5582.93,1553.81 5584.67,1554.21 5586.4,1554.62 5588.14,1555.03 5589.88,1555.44 5591.61,1555.84 5593.35,1556.25 5595.09,1556.66 5596.82,1557.07 5598.56,1557.48 5600.29,1557.89 5602.03,1558.3 5603.77,1558.7 5605.5,1559.11 5607.24,1559.52 5608.98,1559.93 5610.71,1560.34 5612.45,1560.75 5614.18,1561.16 5615.92,1561.58 5617.66,1561.99 5619.39,1562.4 5621.13,1562.81 5622.87,1563.22 5624.6,1563.63 5626.34,1564.04 5628.07,1564.46 5629.81,1564.87 5631.55,1565.28 5633.28,1565.7 5635.02,1566.11 5636.76,1566.52 5638.49,1566.94 5640.23,1567.35 5641.96,1567.76 5643.7,1568.18 5645.44,1568.59 5647.17,1569.01 5648.91,1569.42 5650.65,1569.84 5652.38,1570.25 5654.12,1570.67 5655.85,1571.08 5657.59,1571.5 5659.33,1571.91 5661.06,1572.33 5662.8,1572.75 5664.54,1573.16 5666.27,1573.58 5668.01,1574 5669.74,1574.41 5671.48,1574.83 5673.22,1575.25 5674.95,1575.67 5676.69,1576.08 5678.43,1576.5 5680.16,1576.92 5681.9,1577.34 5683.63,1577.76 5685.37,1578.18 5687.11,1578.6 5688.84,1579.01 5690.58,1579.43 5692.32,1579.85 5694.05,1580.27 5695.79,1580.69 5697.52,1581.11 5699.26,1581.53 5701,1581.95 5702.73,1582.37 5704.47,1582.8 5706.21,1583.22 5707.94,1583.64 5709.68,1584.06 5711.41,1584.48 5713.15,1584.9 5714.89,1585.32 5716.62,1585.75 5718.36,1586.17 5720.1,1586.59 5721.83,1587.01 5723.57,1587.44 5725.31,1587.86 5727.04,1588.28 5728.78,1588.71 5730.51,1589.13 5732.25,1589.55 5733.99,1589.98 5735.72,1590.4 5737.46,1590.82 5739.2,1591.25 5740.93,1591.67 5742.67,1592.1 5744.4,1592.52 5746.14,1592.95 5747.88,1593.37 5749.61,1593.8 5751.35,1594.22 5753.09,1594.65 5754.82,1595.07 5756.56,1595.5 5758.29,1595.92 5760.03,1596.35 5761.77,1596.78 5763.5,1597.2 5765.24,1597.63 5766.98,1598.06 5768.71,1598.48 5770.45,1598.91 5772.18,1599.34 5773.92,1599.76 5775.66,1600.19 5777.39,1600.62 5779.13,1601.05 5780.87,1601.47 5782.6,1601.9 5784.34,1602.33 5786.07,1602.76 5787.81,1603.19 5789.55,1603.62 5791.28,1604.04 5793.02,1604.47 5794.76,1604.9 5796.49,1604.9 "/>
<polyline clip-path="url(#clip682)" style="stroke:#e26f46; stroke-linecap:round; stroke-linejoin:round; stroke-width:8; stroke-opacity:1; fill:none" stroke-dasharray="32, 20" points="934.948,3253.3 934.948,-1555.78 "/>
<polyline clip-path="url(#clip682)" style="stroke:#e26f46; stroke-linecap:round; stroke-linejoin:round; stroke-width:8; stroke-opacity:1; fill:none" stroke-dasharray="32, 20" points="1803.08,3253.3 1803.08,-1555.78 "/>
<polyline clip-path="url(#clip682)" style="stroke:#e26f46; stroke-linecap:round; stroke-linejoin:round; stroke-width:8; stroke-opacity:1; fill:none" stroke-dasharray="32, 20" points="5796.49,3253.3 5796.49,-1555.78 "/>
</svg>
